FekadeMesfinGeez-Regular.ufo
<glyph name="ha-ethi" format="2">
  <advance width="1202"/>
  <unicode hex="1200"/>
  <outline>
    <contour>
      <point x="1118" y="899" type="qcurve" smooth="yes"/>
      <point x="1145" y="432"/>
      <point x="870" y="182" type="qcurve" smooth="yes"/>
      <point x="647" y="-20"/>
      <point x="346" y="-6" type="qcurve" smooth="yes"/>
      <point x="82" y="6"/>
      <point x="82" y="281" type="qcurve" smooth="yes"/>
      <point x="82" y="383"/>
      <point x="150" y="788"/>
      <point x="150" y="891" type="qcurve" smooth="yes"/>
      <point x="150" y="1001"/>
      <point x="109" y="1059" type="qcurve"/>
      <point x="225" y="1100" type="line" smooth="yes"/>
      <point x="305" y="1128"/>
      <point x="346" y="1128" type="qcurve" smooth="yes"/>
      <point x="428" y="1128"/>
      <point x="428" y="993" type="qcurve" smooth="yes"/>
      <point x="428" y="938"/>
      <point x="399" y="659" type="qcurve" smooth="yes"/>
      <point x="367" y="324"/>
      <point x="367" y="272" type="qcurve" smooth="yes"/>
      <point x="367" y="182"/>
      <point x="418" y="80"/>
      <point x="485" y="43" type="qcurve"/>
      <point x="500" y="37"/>
      <point x="516" y="37" type="qcurve" smooth="yes"/>
      <point x="559" y="37"/>
      <point x="659" y="111"/>
      <point x="688" y="170" type="qcurve" smooth="yes"/>
      <point x="750" y="293"/>
      <point x="788" y="539" type="qcurve"/>
      <point x="819" y="752"/>
      <point x="819" y="930" type="qcurve" smooth="yes"/>
      <point x="819" y="1188"/>
      <point x="756" y="1237" type="qcurve"/>
      <point x="895" y="1272" type="line" smooth="yes"/>
      <point x="965" y="1288"/>
      <point x="995" y="1288" type="qcurve" smooth="yes"/>
      <point x="1059" y="1288"/>
      <point x="1106" y="1137"/>
    </contour>
  </outline>
</glyph>
<glyph name="hu-ethi" format="2">
  <advance width="1661"/>
  <unicode hex="1201"/>
  <outline>
    <contour>
      <point x="1036" y="715" type="line"/>
      <point x="1020" y="461"/>
      <point x="879" y="268" type="qcurve" smooth="yes"/>
      <point x="725" y="55"/>
      <point x="487" y="16" type="qcurve" smooth="yes"/>
      <point x="426" y="6"/>
      <point x="326" y="10" type="qcurve" smooth="yes"/>
      <point x="82" y="23"/>
      <point x="82" y="274" type="qcurve" smooth="yes"/>
      <point x="82" y="369"/>
      <point x="143" y="743"/>
      <point x="143" y="838" type="qcurve" smooth="yes"/>
      <point x="143" y="938"/>
      <point x="106" y="991" type="qcurve"/>
      <point x="215" y="1028" type="line" smooth="yes"/>
      <point x="287" y="1053"/>
      <point x="326" y="1053" type="qcurve" smooth="yes"/>
      <point x="401" y="1053"/>
      <point x="401" y="930" type="qcurve" smooth="yes"/>
      <point x="401" y="881"/>
      <point x="375" y="623" type="qcurve" smooth="yes"/>
      <point x="344" y="313"/>
      <point x="344" y="266" type="qcurve" smooth="yes"/>
      <point x="344" y="117"/>
      <point x="455" y="55" type="qcurve" smooth="yes"/>
      <point x="465" y="49"/>
      <point x="481" y="49" type="qcurve" smooth="yes"/>
      <point x="520" y="49"/>
      <point x="614" y="119"/>
      <point x="641" y="172" type="qcurve" smooth="yes"/>
      <point x="696" y="285"/>
      <point x="731" y="512" type="qcurve" smooth="yes"/>
      <point x="762" y="709"/>
      <point x="762" y="872" type="qcurve" smooth="yes"/>
      <point x="762" y="1110"/>
      <point x="702" y="1155" type="qcurve"/>
      <point x="831" y="1186" type="line" smooth="yes"/>
      <point x="895" y="1202"/>
      <point x="922" y="1202" type="qcurve" smooth="yes"/>
      <point x="981" y="1202"/>
      <point x="1024" y="1061"/>
      <point x="1036" y="844" type="qcurve" smooth="yes"/>
      <point x="1038" y="799"/>
      <point x="1038" y="756" type="qcurve"/>
      <point x="1288" y="821"/>
      <point x="1538" y="885" type="qcurve"/>
      <point x="1526" y="842"/>
      <point x="1526" y="786" type="qcurve" smooth="yes"/>
      <point x="1526" y="672"/>
      <point x="1579" y="573" type="qcurve"/>
      <point x="1513" y="530"/>
      <point x="1425" y="530" type="qcurve" smooth="yes"/>
      <point x="1335" y="530"/>
      <point x="1282" y="580" type="qcurve" smooth="yes"/>
      <point x="1219" y="639"/>
      <point x="1223" y="756" type="qcurve"/>
    </contour>
  </outline>
</glyph>
<glyph name="hi-ethi" format="2">
  <advance width="1311"/>
  <unicode hex="1202"/>
  <outline>
    <contour>
      <point x="1229" y="-98" type="qcurve"/>
      <point x="1094" y="-143"/>
      <point x="1028" y="-143" type="qcurve" smooth="yes"/>
      <point x="922" y="-143"/>
      <point x="881" y="-102" type="qcurve" smooth="yes"/>
      <point x="868" y="-88"/>
      <point x="823" y="6" type="qcurve"/>
      <point x="815" y="10"/>
      <point x="739" y="10" type="qcurve" smooth="yes"/>
      <point x="719" y="10"/>
      <point x="446" y="-29"/>
      <point x="422" y="-29" type="qcurve" smooth="yes"/>
      <point x="350" y="-29"/>
      <point x="311" y="18" type="qcurve"/>
      <point x="276" y="55"/>
      <point x="276" y="113" type="qcurve" smooth="yes"/>
      <point x="276" y="141"/>
      <point x="381" y="403" type="qcurve" smooth="yes"/>
      <point x="469" y="623"/>
      <point x="557" y="844" type="qcurve"/>
      <point x="545" y="856"/>
      <point x="530" y="856" type="qcurve"/>
      <point x="559" y="854"/>
      <point x="481" y="854" type="qcurve" smooth="yes"/>
      <point x="461" y="854"/>
      <point x="279" y="778"/>
      <point x="250" y="778" type="qcurve" smooth="yes"/>
      <point x="217" y="778"/>
      <point x="145" y="815"/>
      <point x="133" y="874"/>
      <point x="133" y="932" type="qcurve" smooth="yes"/>
      <point x="133" y="956"/>
      <point x="137" y="1061"/>
      <point x="137" y="1087" type="qcurve" smooth="yes"/>
      <point x="137" y="1237"/>
      <point x="82" y="1280" type="qcurve"/>
      <point x="84" y="1280"/>
      <point x="254" y="1323" type="qcurve" smooth="yes"/>
      <point x="315" y="1337"/>
      <point x="354" y="1337" type="qcurve" smooth="yes"/>
      <point x="432" y="1337"/>
      <point x="432" y="1268" type="qcurve" smooth="yes"/>
      <point x="432" y="1241"/>
      <point x="401" y="1083"/>
      <point x="401" y="1036" type="qcurve" smooth="yes"/>
      <point x="401" y="954"/>
      <point x="438" y="897" type="qcurve"/>
      <point x="446" y="893"/>
      <point x="528" y="893" type="qcurve" smooth="yes"/>
      <point x="604" y="893"/>
      <point x="690" y="1071" type="qcurve" smooth="yes"/>
      <point x="762" y="1225"/>
      <point x="760" y="1274" type="qcurve"/>
      <point x="764" y="1288"/>
      <point x="733" y="1360"/>
      <point x="717" y="1374" type="qcurve"/>
      <point x="903" y="1411" type="line"/>
      <point x="948" y="1421"/>
      <point x="979" y="1421" type="qcurve" smooth="yes"/>
      <point x="1057" y="1421"/>
      <point x="1057" y="1343" type="qcurve" smooth="yes"/>
      <point x="1057" y="1221"/>
      <point x="932" y="954" type="qcurve"/>
      <point x="817" y="721"/>
      <point x="700" y="489" type="qcurve"/>
      <point x="575" y="229"/>
      <point x="575" y="125" type="qcurve" smooth="yes"/>
      <point x="575" y="31"/>
      <point x="700" y="31" type="qcurve" smooth="yes"/>
      <point x="782" y="31"/>
      <point x="834" y="49" type="qcurve"/>
      <point x="901" y="127"/>
      <point x="948" y="147" type="qcurve"/>
      <point x="1018" y="182"/>
      <point x="1169" y="182" type="qcurve"/>
      <point x="1169" y="176"/>
      <point x="1151" y="113"/>
      <point x="1151" y="88" type="qcurve" smooth="yes"/>
      <point x="1151" y="16"/>
    </contour>
  </outline>
</glyph>
<glyph name="haa-ethi" format="2">
  <advance width="1065"/>
  <unicode hex="1203"/>
  <outline>
    <contour>
      <point x="844" y="1460" type="line" smooth="yes"/>
      <point x="870" y="1468"/>
      <point x="893" y="1468" type="qcurve" smooth="yes"/>
      <point x="983" y="1468"/>
      <point x="983" y="1339" type="qcurve" smooth="yes"/>
      <point x="983" y="1227"/>
      <point x="918" y="1034" type="qcurve" smooth="yes"/>
      <point x="862" y="874"/>
      <point x="711" y="586"/>
      <point x="635" y="444" type="qcurve"/>
      <point x="537" y="244"/>
      <point x="537" y="141" type="qcurve" smooth="yes"/>
      <point x="537" y="47"/>
      <point x="618" y="31" type="qcurve"/>
      <point x="444" y="-6" type="line" smooth="yes"/>
      <point x="414" y="-12"/>
      <point x="387" y="-12" type="qcurve" smooth="yes"/>
      <point x="295" y="-12"/>
      <point x="274" y="53" type="qcurve" smooth="yes"/>
      <point x="264" y="86"/>
      <point x="264" y="127" type="qcurve" smooth="yes"/>
      <point x="264" y="248"/>
      <point x="365" y="467" type="qcurve"/>
      <point x="449" y="641"/>
      <point x="532" y="815" type="qcurve"/>
      <point x="508" y="817"/>
      <point x="483" y="817" type="qcurve" smooth="yes"/>
      <point x="424" y="817"/>
      <point x="242" y="778"/>
      <point x="211" y="778" type="qcurve" smooth="yes"/>
      <point x="147" y="778"/>
      <point x="117" y="829" type="qcurve" smooth="yes"/>
      <point x="96" y="864"/>
      <point x="96" y="915" type="qcurve" smooth="yes"/>
      <point x="96" y="961"/>
      <point x="137" y="1147"/>
      <point x="137" y="1188" type="qcurve" smooth="yes"/>
      <point x="137" y="1266"/>
      <point x="82" y="1303" type="qcurve"/>
      <point x="229" y="1346" type="line" smooth="yes"/>
      <point x="303" y="1368"/>
      <point x="342" y="1368" type="qcurve" smooth="yes"/>
      <point x="414" y="1368"/>
      <point x="414" y="1282" type="qcurve" smooth="yes"/>
      <point x="414" y="1243"/>
      <point x="399" y="1165" type="qcurve" smooth="yes"/>
      <point x="389" y="1118"/>
      <point x="379" y="1069" type="qcurve" smooth="yes"/>
      <point x="365" y="1004"/>
      <point x="365" y="963" type="qcurve" smooth="yes"/>
      <point x="365" y="862"/>
      <point x="446" y="858" type="qcurve" smooth="yes"/>
      <point x="549" y="852" type="line"/>
      <point x="686" y="1120"/>
      <point x="686" y="1284" type="qcurve" smooth="yes"/>
      <point x="686" y="1364"/>
      <point x="649" y="1405" type="qcurve"/>
    </contour>
  </outline>
</glyph>
<glyph name="hee-ethi" format="2">
  <advance width="1266"/>
  <unicode hex="1204"/>
  <outline>
    <contour>
      <point x="397" y="-12" type="qcurve"/>
      <point x="313" y="-12"/>
      <point x="297" y="-8" type="qcurve"/>
      <point x="246" y="2"/>
      <point x="219" y="47" type="qcurve"/>
      <point x="201" y="80"/>
      <point x="201" y="119" type="qcurve" smooth="yes"/>
      <point x="201" y="188"/>
      <point x="279" y="332" type="qcurve" smooth="yes"/>
      <point x="563" y="852" type="line"/>
      <point x="545" y="854"/>
      <point x="524" y="854" type="qcurve" smooth="yes"/>
      <point x="457" y="854"/>
      <point x="238" y="786"/>
      <point x="203" y="786" type="qcurve" smooth="yes"/>
      <point x="150" y="786"/>
      <point x="98" y="868"/>
      <point x="98" y="928" type="qcurve" smooth="yes"/>
      <point x="98" y="969"/>
      <point x="131" y="1145"/>
      <point x="131" y="1184" type="qcurve" smooth="yes"/>
      <point x="131" y="1264"/>
      <point x="82" y="1303" type="qcurve"/>
      <point x="229" y="1346" type="line" smooth="yes"/>
      <point x="299" y="1366"/>
      <point x="338" y="1366" type="qcurve" smooth="yes"/>
      <point x="412" y="1366"/>
      <point x="412" y="1276" type="qcurve" smooth="yes"/>
      <point x="412" y="1235"/>
      <point x="399" y="1165" type="qcurve" smooth="yes"/>
      <point x="385" y="1085"/>
      <point x="385" y="1034" type="qcurve" smooth="yes"/>
      <point x="385" y="885"/>
      <point x="489" y="889" type="qcurve" smooth="yes"/>
      <point x="596" y="893" type="line"/>
      <point x="766" y="1165"/>
      <point x="766" y="1294" type="qcurve" smooth="yes"/>
      <point x="766" y="1354"/>
      <point x="723" y="1370" type="qcurve"/>
      <point x="961" y="1411" type="line"/>
      <point x="979" y="1415"/>
      <point x="995" y="1415" type="qcurve" smooth="yes"/>
      <point x="1075" y="1415"/>
      <point x="1075" y="1329" type="qcurve" smooth="yes"/>
      <point x="1075" y="1204"/>
      <point x="827" y="756" type="qcurve" smooth="yes"/>
      <point x="584" y="313" type="line" smooth="yes"/>
      <point x="496" y="156"/>
      <point x="496" y="96" type="qcurve" smooth="yes"/>
      <point x="496" y="41"/>
      <point x="575" y="49" type="qcurve"/>
      <point x="682" y="80" type="line" smooth="yes"/>
      <point x="877" y="135"/>
      <point x="877" y="283" type="qcurve" smooth="yes"/>
      <point x="877" y="377"/>
      <point x="813" y="395" type="qcurve"/>
      <point x="1012" y="455" type="line" smooth="yes"/>
      <point x="1051" y="467"/>
      <point x="1081" y="467" type="qcurve" smooth="yes"/>
      <point x="1192" y="467"/>
      <point x="1184" y="287" type="qcurve" smooth="yes"/>
      <point x="1180" y="188"/>
      <point x="1038" y="127" type="qcurve"/>
      <point x="471" y="-25"/>
    </contour>
  </outline>
</glyph>
<glyph name="he-ethi" format="2">
  <advance width="1188"/>
  <unicode hex="1205"/>
  <outline>
    <contour>
      <point x="1106" y="891" type="qcurve" smooth="yes"/>
      <point x="1122" y="49"/>
      <point x="508" y="2" type="qcurve" smooth="yes"/>
      <point x="434" y="-4"/>
      <point x="393" y="-4" type="qcurve" smooth="yes"/>
      <point x="215" y="-4"/>
      <point x="170" y="84" type="qcurve" smooth="yes"/>
      <point x="133" y="156"/>
      <point x="133" y="256" type="qcurve" smooth="yes"/>
      <point x="133" y="332"/>
      <point x="158" y="469" type="qcurve" smooth="yes"/>
      <point x="193" y="659"/>
      <point x="199" y="702" type="qcurve"/>
      <point x="86" y="694" type="line"/>
      <point x="127" y="842"/>
      <point x="127" y="940" type="qcurve" smooth="yes"/>
      <point x="127" y="1042"/>
      <point x="82" y="1083" type="qcurve"/>
      <point x="268" y="1133" type="line" smooth="yes"/>
      <point x="303" y="1143"/>
      <point x="328" y="1143" type="qcurve" smooth="yes"/>
      <point x="395" y="1143"/>
      <point x="395" y="1051" type="qcurve"/>
      <point x="395" y="1053"/>
      <point x="362" y="762" type="qcurve"/>
      <point x="469" y="782"/>
      <point x="483" y="776" type="qcurve"/>
      <point x="391" y="311"/>
      <point x="391" y="264" type="qcurve" smooth="yes"/>
      <point x="391" y="51"/>
      <point x="541" y="49" type="qcurve" smooth="yes"/>
      <point x="631" y="47"/>
      <point x="774" y="268"/>
      <point x="797" y="440" type="qcurve" smooth="yes"/>
      <point x="831" y="709"/>
      <point x="831" y="852" type="qcurve" smooth="yes"/>
      <point x="831" y="1130"/>
      <point x="733" y="1202" type="qcurve"/>
      <point x="905" y="1247" type="line" smooth="yes"/>
      <point x="958" y="1262"/>
      <point x="989" y="1262" type="qcurve" smooth="yes"/>
      <point x="1061" y="1262"/>
      <point x="1083" y="1182" type="qcurve" smooth="yes"/>
      <point x="1102" y="1112"/>
    </contour>
  </outline>
</glyph>
<glyph name="ho-ethi" format="2">
  <advance width="1636"/>
  <unicode hex="1206"/>
  <outline>
    <contour>
      <point x="1327" y="1378" type="line" smooth="yes"/>
      <point x="1354" y="1384"/>
      <point x="1378" y="1384" type="qcurve" smooth="yes"/>
      <point x="1460" y="1384"/>
      <point x="1554" y="1282"/>
      <point x="1554" y="1210" type="qcurve" smooth="yes"/>
      <point x="1554" y="1169"/>
      <point x="1540" y="1130" type="qcurve" smooth="yes"/>
      <point x="1470" y="942"/>
      <point x="1067" y="874" type="qcurve"/>
      <point x="1067" y="489"/>
      <point x="946" y="268" type="qcurve" smooth="yes"/>
      <point x="801" y="8"/>
      <point x="498" y="8" type="qcurve" smooth="yes"/>
      <point x="453" y="8"/>
      <point x="403" y="14" type="qcurve" smooth="yes"/>
      <point x="133" y="47"/>
      <point x="133" y="434" type="qcurve" smooth="yes"/>
      <point x="133" y="516"/>
      <point x="160" y="834"/>
      <point x="160" y="895" type="qcurve" smooth="yes"/>
      <point x="160" y="1067"/>
      <point x="82" y="1094" type="qcurve"/>
      <point x="264" y="1155"/>
      <point x="344" y="1155" type="qcurve" smooth="yes"/>
      <point x="389" y="1155"/>
      <point x="418" y="1141" type="qcurve"/>
      <point x="440" y="1128"/>
      <point x="444" y="1032" type="qcurve"/>
      <point x="444" y="1028"/>
      <point x="444" y="868" type="qcurve" smooth="yes"/>
      <point x="444" y="715"/>
      <point x="416" y="319"/>
      <point x="416" y="272" type="qcurve" smooth="yes"/>
      <point x="416" y="100"/>
      <point x="522" y="76" type="qcurve" smooth="yes"/>
      <point x="561" y="68"/>
      <point x="590" y="68" type="qcurve" smooth="yes"/>
      <point x="684" y="68"/>
      <point x="715" y="174" type="qcurve" smooth="yes"/>
      <point x="729" y="225"/>
      <point x="756" y="487" type="qcurve" smooth="yes"/>
      <point x="778" y="711"/>
      <point x="778" y="913" type="qcurve" smooth="yes"/>
      <point x="778" y="1219"/>
      <point x="719" y="1243" type="qcurve"/>
    </contour>
    <contour>
      <point x="1257" y="1110" type="qcurve" smooth="yes"/>
      <point x="1262" y="1171"/>
      <point x="1262" y="1202" type="qcurve" smooth="yes"/>
      <point x="1262" y="1288"/>
      <point x="1208" y="1288" type="qcurve" smooth="yes"/>
      <point x="1184" y="1288"/>
      <point x="1079" y="1264" type="qcurve"/>
      <point x="1055" y="1257"/>
      <point x="1061" y="915" type="qcurve"/>
      <point x="1243" y="938"/>
    </contour>
  </outline>
</glyph>
<glyph name="laa-ethi" format="2">
  <advance width="1153"/>
  <unicode hex="120B"/>
  <outline>
    <contour>
      <point x="575" y="1380" type="line"/>
      <point x="594" y="1386"/>
      <point x="608" y="1386" type="qcurve" smooth="yes"/>
      <point x="662" y="1386"/>
      <point x="692" y="1296" type="qcurve" smooth="yes"/>
      <point x="731" y="1186"/>
      <point x="743" y="1174" type="qcurve" smooth="yes"/>
      <point x="834" y="1087"/>
      <point x="872" y="1012" type="qcurve" smooth="yes"/>
      <point x="936" y="887"/>
      <point x="952" y="668" type="qcurve" smooth="yes"/>
      <point x="956" y="606"/>
      <point x="948" y="475" type="qcurve" smooth="yes"/>
      <point x="940" y="319"/>
      <point x="940" y="264" type="qcurve" smooth="yes"/>
      <point x="940" y="61"/>
      <point x="1016" y="6" type="qcurve"/>
      <point x="889" y="-2" type="line"/>
      <point x="881" y="-2"/>
      <point x="811" y="-12"/>
      <point x="793" y="-12" type="qcurve" smooth="yes"/>
      <point x="664" y="-12"/>
      <point x="664" y="186" type="qcurve" smooth="yes"/>
      <point x="664" y="248"/>
      <point x="682" y="557"/>
      <point x="682" y="633" type="qcurve" smooth="yes"/>
      <point x="682" y="909"/>
      <point x="584" y="942" type="qcurve"/>
      <point x="528" y="938"/>
      <point x="401" y="754"/>
      <point x="387" y="645" type="qcurve" smooth="yes"/>
      <point x="377" y="563"/>
      <point x="377" y="528" type="qcurve" smooth="yes"/>
      <point x="377" y="430"/>
      <point x="432" y="422" type="qcurve"/>
      <point x="256" y="418" type="line"/>
      <point x="248" y="418"/>
      <point x="225" y="416" type="qcurve"/>
      <point x="205" y="416"/>
      <point x="193" y="416" type="qcurve" smooth="yes"/>
      <point x="82" y="416"/>
      <point x="82" y="541" type="qcurve" smooth="yes"/>
      <point x="82" y="575"/>
      <point x="88" y="618" type="qcurve" smooth="yes"/>
      <point x="139" y="963"/>
      <point x="483" y="1149" type="qcurve"/>
      <point x="379" y="1309" type="line"/>
    </contour>
  </outline>
</glyph>
<glyph name="lee-ethi" format="2">
  <advance width="1270"/>
  <unicode hex="120C"/>
  <outline>
    <contour>
      <point x="639" y="1362" type="qcurve"/>
      <point x="653" y="1366"/>
      <point x="666" y="1366" type="qcurve" smooth="yes"/>
      <point x="711" y="1366"/>
      <point x="737" y="1296" type="qcurve"/>
      <point x="772" y="1194"/>
      <point x="791" y="1174" type="qcurve"/>
      <point x="846" y="1110"/>
      <point x="899" y="1049" type="qcurve"/>
      <point x="942" y="993"/>
      <point x="991" y="870" type="qcurve" smooth="yes"/>
      <point x="1036" y="756"/>
      <point x="1049" y="532" type="qcurve" smooth="yes"/>
      <point x="1065" y="244"/>
      <point x="1073" y="197" type="qcurve" smooth="yes"/>
      <point x="1100" y="37"/>
      <point x="1188" y="2" type="qcurve"/>
      <point x="1087" y="-12"/>
      <point x="1012" y="-8" type="qcurve"/>
      <point x="848" y="-18"/>
      <point x="780" y="121"/>
      <point x="778" y="258" type="qcurve"/>
      <point x="778" y="350" type="line" smooth="yes"/>
      <point x="778" y="543"/>
      <point x="748" y="721" type="qcurve" smooth="yes"/>
      <point x="733" y="801"/>
      <point x="723" y="831" type="qcurve"/>
      <point x="698" y="893"/>
      <point x="651" y="907" type="qcurve" smooth="yes"/>
      <point x="629" y="913"/>
      <point x="547" y="801" type="qcurve" smooth="yes"/>
      <point x="477" y="702"/>
      <point x="446" y="639" type="qcurve" smooth="yes"/>
      <point x="369" y="477"/>
      <point x="369" y="307" type="qcurve" smooth="yes"/>
      <point x="369" y="133"/>
      <point x="453" y="0" type="qcurve"/>
      <point x="227" y="-6"/>
      <point x="221" y="2" type="qcurve"/>
      <point x="147" y="2"/>
      <point x="125" y="20" type="qcurve"/>
      <point x="82" y="59"/>
      <point x="82" y="205" type="qcurve" smooth="yes"/>
      <point x="82" y="451"/>
      <point x="199" y="727" type="qcurve" smooth="yes"/>
      <point x="334" y="1049"/>
      <point x="537" y="1128" type="qcurve"/>
      <point x="498" y="1186"/>
      <point x="432" y="1303" type="qcurve"/>
      <point x="434" y="1303"/>
      <point x="637" y="1364"/>
    </contour>
    <contour>
      <point x="951" y="371" type="line"/>
      <point x="1272" y="412" type="line" smooth="yes"/>
      <point x="1303" y="416"/>
      <point x="1329" y="416" type="qcurve" smooth="yes"/>
      <point x="1448" y="416"/>
      <point x="1508" y="346" type="qcurve" smooth="yes"/>
      <point x="1557" y="289"/>
      <point x="1557" y="199" type="qcurve"/>
      <point x="1559" y="0"/>
      <point x="1352" y="0" type="qcurve" smooth="yes"/>
      <point x="885" y="0" type="line"/>
      <point x="883" y="35" type="line"/>
      <point x="1034" y="35" type="line" smooth="yes"/>
      <point x="1305" y="35"/>
      <point x="1305" y="201" type="qcurve" smooth="yes"/>
      <point x="1305" y="279"/>
      <point x="1219" y="322" type="qcurve" smooth="yes"/>
      <point x="1145" y="359"/>
      <point x="1069" y="348" type="qcurve" smooth="yes"/>
      <point x="955" y="332" type="line"/>
    </contour>
  </outline>
</glyph>
<glyph name="le-ethi" format="2">
  <advance width="1591"/>
  <unicode hex="120D"/>
  <unicode hex="F04A"/>
  <outline>
    <contour>
      <point x="647" y="1313" type="qcurve"/>
      <point x="707" y="1325"/>
      <point x="768" y="1235" type="qcurve" smooth="yes"/>
      <point x="840" y="1124"/>
      <point x="862" y="1112" type="qcurve" smooth="yes"/>
      <point x="1012" y="1034"/>
      <point x="1120" y="848" type="qcurve" smooth="yes"/>
      <point x="1167" y="766"/>
      <point x="1255" y="553" type="qcurve"/>
      <point x="1303" y="426"/>
      <point x="1403" y="174"/>
      <point x="1509" y="86" type="qcurve"/>
      <point x="1366" y="18" type="line" smooth="yes"/>
      <point x="1317" y="-4"/>
      <point x="1296" y="-4" type="qcurve" smooth="yes"/>
      <point x="1266" y="-4"/>
      <point x="1212" y="18" type="qcurve"/>
      <point x="1135" y="53"/>
      <point x="1036" y="389" type="qcurve" smooth="yes"/>
      <point x="895" y="874"/>
      <point x="745" y="915" type="qcurve"/>
      <point x="702" y="928"/>
      <point x="594" y="815" type="qcurve" smooth="yes"/>
      <point x="459" y="674"/>
      <point x="383" y="444" type="qcurve"/>
      <point x="545" y="532"/>
      <point x="674" y="532" type="qcurve" smooth="yes"/>
      <point x="807" y="532"/>
      <point x="838" y="426" type="qcurve" smooth="yes"/>
      <point x="846" y="401"/>
      <point x="846" y="379" type="qcurve" smooth="yes"/>
      <point x="846" y="279"/>
      <point x="700" y="205" type="qcurve" smooth="yes"/>
      <point x="662" y="186"/>
      <point x="475" y="125" type="qcurve" smooth="yes"/>
      <point x="449" y="117"/>
      <point x="330" y="51" type="qcurve" smooth="yes"/>
      <point x="233" y="0"/>
      <point x="184" y="0" type="qcurve" smooth="yes"/>
      <point x="141" y="0"/>
      <point x="117" y="33" type="qcurve" smooth="yes"/>
      <point x="82" y="80"/>
      <point x="82" y="199" type="qcurve" smooth="yes"/>
      <point x="82" y="432"/>
      <point x="256" y="729" type="qcurve" smooth="yes"/>
      <point x="418" y="1004"/>
      <point x="567" y="1087" type="qcurve"/>
      <point x="526" y="1143"/>
      <point x="438" y="1229" type="qcurve"/>
      <point x="502" y="1262"/>
    </contour>
    <contour>
      <point x="420" y="168" type="qcurve" smooth="yes"/>
      <point x="442" y="156"/>
      <point x="465" y="156" type="qcurve" smooth="yes"/>
      <point x="512" y="156"/>
      <point x="571" y="258"/>
      <point x="571" y="322" type="qcurve" smooth="yes"/>
      <point x="571" y="377"/>
      <point x="522" y="446"/>
      <point x="475" y="438" type="qcurve"/>
      <point x="426" y="428"/>
      <point x="371" y="334"/>
      <point x="371" y="276" type="qcurve" smooth="yes"/>
      <point x="371" y="193"/>
    </contour>
  </outline>
</glyph>
<glyph name="lo-ethi" format="2">
  <advance width="1270"/>
  <unicode hex="120E"/>
  <outline>
    <contour>
      <point x="639" y="1362" type="qcurve"/>
      <point x="653" y="1366"/>
      <point x="666" y="1366" type="qcurve" smooth="yes"/>
      <point x="711" y="1366"/>
      <point x="737" y="1296" type="qcurve"/>
      <point x="772" y="1194"/>
      <point x="791" y="1174" type="qcurve"/>
      <point x="846" y="1110"/>
      <point x="899" y="1049" type="qcurve"/>
      <point x="942" y="993"/>
      <point x="991" y="870" type="qcurve" smooth="yes"/>
      <point x="1036" y="756"/>
      <point x="1049" y="532" type="qcurve" smooth="yes"/>
      <point x="1065" y="244"/>
      <point x="1073" y="197" type="qcurve" smooth="yes"/>
      <point x="1100" y="37"/>
      <point x="1188" y="2" type="qcurve"/>
      <point x="1087" y="-12"/>
      <point x="1012" y="-8" type="qcurve"/>
      <point x="848" y="-18"/>
      <point x="780" y="121"/>
      <point x="778" y="258" type="qcurve"/>
      <point x="778" y="350" type="line" smooth="yes"/>
      <point x="778" y="543"/>
      <point x="748" y="721" type="qcurve" smooth="yes"/>
      <point x="733" y="801"/>
      <point x="723" y="831" type="qcurve"/>
      <point x="698" y="893"/>
      <point x="651" y="907" type="qcurve" smooth="yes"/>
      <point x="629" y="913"/>
      <point x="547" y="801" type="qcurve" smooth="yes"/>
      <point x="477" y="702"/>
      <point x="446" y="639" type="qcurve" smooth="yes"/>
      <point x="369" y="477"/>
      <point x="369" y="307" type="qcurve" smooth="yes"/>
      <point x="369" y="133"/>
      <point x="453" y="0" type="qcurve"/>
      <point x="227" y="-6"/>
      <point x="221" y="2" type="qcurve"/>
      <point x="147" y="2"/>
      <point x="125" y="20" type="qcurve"/>
      <point x="82" y="59"/>
      <point x="82" y="205" type="qcurve" smooth="yes"/>
      <point x="82" y="451"/>
      <point x="199" y="727" type="qcurve" smooth="yes"/>
      <point x="334" y="1049"/>
      <point x="537" y="1128" type="qcurve"/>
      <point x="498" y="1186"/>
      <point x="432" y="1303" type="qcurve"/>
      <point x="434" y="1303"/>
      <point x="637" y="1364"/>
    </contour>
    <contour>
      <point x="1506" y="752" type="line"/>
      <point x="1604" y="780"/>
      <point x="1671" y="780" type="qcurve" smooth="yes"/>
      <point x="1845" y="780"/>
      <point x="1841" y="573" type="qcurve" smooth="yes"/>
      <point x="1839" y="462"/>
      <point x="1755" y="420" type="qcurve" smooth="yes"/>
      <point x="1714" y="400"/>
      <point x="1563" y="381" type="qcurve"/>
      <point x="1401" y="317"/>
      <point x="1356" y="317" type="qcurve" smooth="yes"/>
      <point x="1296" y="318"/>
      <point x="1262" y="367" type="qcurve"/>
      <point x="1241" y="400"/>
      <point x="1217" y="481" type="qcurve" smooth="yes"/>
      <point x="1205" y="522"/>
      <point x="1223" y="664" type="qcurve"/>
      <point x="1200" y="664"/>
      <point x="985" y="623" type="qcurve"/>
      <point x="981" y="655" type="line"/>
    </contour>
    <contour>
      <point x="1620" y="528" type="qcurve" smooth="yes"/>
      <point x="1620" y="600"/>
      <point x="1559" y="725"/>
      <point x="1516" y="725" type="qcurve" smooth="yes"/>
      <point x="1446" y="725"/>
      <point x="1446" y="616" type="qcurve"/>
      <point x="1445" y="584"/>
      <point x="1456" y="520" type="qcurve"/>
      <point x="1463" y="486"/>
      <point x="1483" y="455" type="qcurve" smooth="yes"/>
      <point x="1511" y="412"/>
      <point x="1546" y="412" type="qcurve" smooth="yes"/>
      <point x="1620" y="411"/>
    </contour>
  </outline>
</glyph>
<glyph name="lwa-ethi" format="2">
  <advance width="1153"/>
  <unicode hex="120F"/>
  <outline>
    <contour>
      <point x="575" y="1380" type="line"/>
      <point x="594" y="1386"/>
      <point x="608" y="1386" type="qcurve" smooth="yes"/>
      <point x="662" y="1386"/>
      <point x="692" y="1296" type="qcurve" smooth="yes"/>
      <point x="731" y="1186"/>
      <point x="743" y="1174" type="qcurve" smooth="yes"/>
      <point x="834" y="1087"/>
      <point x="872" y="1012" type="qcurve" smooth="yes"/>
      <point x="936" y="887"/>
      <point x="952" y="668" type="qcurve" smooth="yes"/>
      <point x="956" y="606"/>
      <point x="948" y="475" type="qcurve" smooth="yes"/>
      <point x="940" y="319"/>
      <point x="940" y="264" type="qcurve" smooth="yes"/>
      <point x="940" y="61"/>
      <point x="1016" y="6" type="qcurve"/>
      <point x="889" y="-2" type="line"/>
      <point x="881" y="-2"/>
      <point x="811" y="-12"/>
      <point x="793" y="-12" type="qcurve" smooth="yes"/>
      <point x="664" y="-12"/>
      <point x="664" y="186" type="qcurve" smooth="yes"/>
      <point x="664" y="248"/>
      <point x="682" y="557"/>
      <point x="682" y="633" type="qcurve" smooth="yes"/>
      <point x="682" y="909"/>
      <point x="584" y="942" type="qcurve"/>
      <point x="528" y="938"/>
      <point x="401" y="754"/>
      <point x="387" y="645" type="qcurve" smooth="yes"/>
      <point x="377" y="563"/>
      <point x="377" y="528" type="qcurve" smooth="yes"/>
      <point x="377" y="430"/>
      <point x="432" y="422" type="qcurve"/>
      <point x="256" y="418" type="line"/>
      <point x="248" y="418"/>
      <point x="225" y="416" type="qcurve"/>
      <point x="205" y="416"/>
      <point x="193" y="416" type="qcurve" smooth="yes"/>
      <point x="82" y="416"/>
      <point x="82" y="541" type="qcurve" smooth="yes"/>
      <point x="82" y="575"/>
      <point x="88" y="618" type="qcurve" smooth="yes"/>
      <point x="139" y="963"/>
      <point x="483" y="1149" type="qcurve"/>
      <point x="379" y="1309" type="line"/>
    </contour>
    <contour>
      <point x="1391" y="20" type="line"/>
      <point x="1356" y="-59"/>
      <point x="1356" y="-131" type="qcurve" smooth="yes"/>
      <point x="1356" y="-238"/>
      <point x="1423" y="-303" type="qcurve"/>
      <point x="1413" y="-302"/>
      <point x="1354" y="-307" type="qcurve" smooth="yes"/>
      <point x="1309" y="-311"/>
      <point x="1278" y="-311" type="qcurve" smooth="yes"/>
      <point x="1061" y="-312"/>
      <point x="1061" y="-113" type="qcurve" smooth="yes"/>
      <point x="1061" y="-70"/>
      <point x="1069" y="-18" type="qcurve"/>
      <point x="614" y="-18" type="line"/>
      <point x="618" y="-41"/>
      <point x="618" y="-61" type="qcurve" smooth="yes"/>
      <point x="618" y="-180"/>
      <point x="516" y="-250" type="qcurve" smooth="yes"/>
      <point x="434" y="-305"/>
      <point x="338" y="-305" type="qcurve" smooth="yes"/>
      <point x="305" y="-305"/>
      <point x="287" y="-297" type="qcurve"/>
      <point x="290" y="-285"/>
      <point x="322" y="-217" type="qcurve" smooth="yes"/>
      <point x="350" y="-156"/>
      <point x="350" y="-111" type="qcurve" smooth="yes"/>
      <point x="349" y="-43"/>
      <point x="295" y="20" type="qcurve"/>
    </contour>
  </outline>
</glyph>
<glyph name="hha-ethi" format="2">
  <advance width="1765"/>
  <unicode hex="1210"/>
  <unicode hex="F04B"/>
  <outline>
    <contour>
      <point x="764" y="662" type="line"/>
      <point x="584" y="653"/>
      <point x="387" y="406"/>
      <point x="381" y="205" type="qcurve" smooth="yes"/>
      <point x="377" y="80"/>
      <point x="418" y="18" type="qcurve"/>
      <point x="150" y="0" type="line" smooth="yes"/>
      <point x="82" y="-4"/>
      <point x="82" y="100" type="qcurve" smooth="yes"/>
      <point x="82" y="123"/>
      <point x="86" y="174" type="qcurve" smooth="yes"/>
      <point x="100" y="426"/>
      <point x="268" y="559" type="qcurve" smooth="yes"/>
      <point x="391" y="655"/>
      <point x="584" y="684" type="qcurve"/>
      <point x="678" y="692"/>
      <point x="774" y="698" type="qcurve"/>
      <point x="801" y="1167" type="line"/>
      <point x="795" y="1212"/>
      <point x="735" y="1262"/>
      <point x="735" y="1255" type="qcurve"/>
      <point x="735" y="1257"/>
      <point x="745" y="1260" type="qcurve"/>
      <point x="967" y="1296" type="line" smooth="yes"/>
      <point x="989" y="1300"/>
      <point x="1008" y="1300" type="qcurve" smooth="yes"/>
      <point x="1096" y="1300"/>
      <point x="1085" y="1174" type="qcurve" smooth="yes"/>
      <point x="1051" y="752" type="line"/>
      <point x="1229" y="793"/>
      <point x="1327" y="793" type="qcurve" smooth="yes"/>
      <point x="1626" y="793"/>
      <point x="1602" y="465" type="qcurve"/>
      <point x="1595" y="403"/>
      <point x="1595" y="350" type="qcurve" smooth="yes"/>
      <point x="1595" y="102"/>
      <point x="1683" y="37" type="qcurve"/>
      <point x="1417" y="6" type="line" smooth="yes"/>
      <point x="1364" y="0"/>
      <point x="1323" y="88"/>
      <point x="1323" y="244" type="qcurve" smooth="yes"/>
      <point x="1323" y="299"/>
      <point x="1327" y="377" type="qcurve"/>
      <point x="1331" y="543"/>
      <point x="1270" y="629" type="qcurve" smooth="yes"/>
      <point x="1212" y="709"/>
      <point x="1112" y="709" type="qcurve" smooth="yes"/>
      <point x="1081" y="709"/>
      <point x="1049" y="700" type="qcurve"/>
      <point x="993" y="199" type="line"/>
      <point x="993" y="113"/>
      <point x="1020" y="61"/>
      <point x="1036" y="37" type="qcurve"/>
      <point x="760" y="6" type="line" smooth="yes"/>
      <point x="698" y="0"/>
      <point x="698" y="88" type="qcurve" smooth="yes"/>
      <point x="698" y="98"/>
      <point x="715" y="236" type="qcurve" smooth="yes"/>
    </contour>
  </outline>
</glyph>
<glyph name="hhi-ethi" format="2">
  <advance width="1765"/>
  <unicode hex="1212"/>
  <outline>
    <contour>
      <point x="764" y="662" type="line"/>
      <point x="584" y="653"/>
      <point x="387" y="406"/>
      <point x="381" y="205" type="qcurve" smooth="yes"/>
      <point x="377" y="80"/>
      <point x="418" y="18" type="qcurve"/>
      <point x="150" y="0" type="line" smooth="yes"/>
      <point x="82" y="-4"/>
      <point x="82" y="100" type="qcurve" smooth="yes"/>
      <point x="82" y="123"/>
      <point x="86" y="174" type="qcurve" smooth="yes"/>
      <point x="100" y="426"/>
      <point x="268" y="559" type="qcurve" smooth="yes"/>
      <point x="391" y="655"/>
      <point x="584" y="684" type="qcurve"/>
      <point x="678" y="692"/>
      <point x="774" y="698" type="qcurve"/>
      <point x="801" y="1167" type="line"/>
      <point x="795" y="1212"/>
      <point x="735" y="1262"/>
      <point x="735" y="1255" type="qcurve"/>
      <point x="735" y="1257"/>
      <point x="745" y="1260" type="qcurve"/>
      <point x="967" y="1296" type="line" smooth="yes"/>
      <point x="989" y="1300"/>
      <point x="1008" y="1300" type="qcurve" smooth="yes"/>
      <point x="1096" y="1300"/>
      <point x="1085" y="1174" type="qcurve" smooth="yes"/>
      <point x="1051" y="752" type="line"/>
      <point x="1229" y="793"/>
      <point x="1327" y="793" type="qcurve" smooth="yes"/>
      <point x="1626" y="793"/>
      <point x="1602" y="465" type="qcurve"/>
      <point x="1595" y="403"/>
      <point x="1595" y="350" type="qcurve" smooth="yes"/>
      <point x="1595" y="102"/>
      <point x="1683" y="37" type="qcurve"/>
      <point x="1417" y="6" type="line" smooth="yes"/>
      <point x="1364" y="0"/>
      <point x="1323" y="88"/>
      <point x="1323" y="244" type="qcurve" smooth="yes"/>
      <point x="1323" y="299"/>
      <point x="1327" y="377" type="qcurve"/>
      <point x="1331" y="543"/>
      <point x="1270" y="629" type="qcurve" smooth="yes"/>
      <point x="1212" y="709"/>
      <point x="1112" y="709" type="qcurve" smooth="yes"/>
      <point x="1081" y="709"/>
      <point x="1049" y="700" type="qcurve"/>
      <point x="993" y="199" type="line"/>
      <point x="993" y="113"/>
      <point x="1020" y="61"/>
      <point x="1036" y="37" type="qcurve"/>
      <point x="760" y="6" type="line" smooth="yes"/>
      <point x="698" y="0"/>
      <point x="698" y="88" type="qcurve" smooth="yes"/>
      <point x="698" y="98"/>
      <point x="715" y="236" type="qcurve" smooth="yes"/>
    </contour>
    <contour>
      <point x="1398" y="29" type="line"/>
      <point x="1736" y="29" type="line"/>
      <point x="1740" y="73"/>
      <point x="1826" y="104" type="qcurve" smooth="yes"/>
      <point x="1904" y="132"/>
      <point x="1992" y="133" type="qcurve" smooth="yes"/>
      <point x="2052" y="133"/>
      <point x="2082" y="119" type="qcurve"/>
      <point x="2052" y="47"/>
      <point x="2052" y="-18" type="qcurve" smooth="yes"/>
      <point x="2052" y="-94"/>
      <point x="2099" y="-182" type="qcurve"/>
      <point x="2035" y="-195"/>
      <point x="1978" y="-195" type="qcurve" smooth="yes"/>
      <point x="1863" y="-195"/>
      <point x="1736" y="-102"/>
      <point x="1736" y="-29" type="qcurve" smooth="yes"/>
      <point x="1736" y="-16"/>
      <point x="1738" y="-2" type="qcurve"/>
      <point x="1386" y="-2" type="line"/>
    </contour>
  </outline>
</glyph>
<glyph name="hhaa-ethi" format="2">
  <advance width="1712"/>
  <unicode hex="1213"/>
  <outline>
    <contour>
      <point x="899" y="1288" type="line" smooth="yes"/>
      <point x="958" y="1294"/>
      <point x="991" y="1294" type="qcurve" smooth="yes"/>
      <point x="1087" y="1294"/>
      <point x="1087" y="1221" type="qcurve" smooth="yes"/>
      <point x="1087" y="1198"/>
      <point x="1081" y="1161" type="qcurve" smooth="yes"/>
      <point x="1020" y="735" type="line"/>
      <point x="1208" y="778"/>
      <point x="1303" y="778" type="qcurve" smooth="yes"/>
      <point x="1448" y="778"/>
      <point x="1569" y="614"/>
      <point x="1569" y="465" type="qcurve" smooth="yes"/>
      <point x="1569" y="426"/>
      <point x="1559" y="266"/>
      <point x="1559" y="229" type="qcurve" smooth="yes"/>
      <point x="1559" y="74"/>
      <point x="1630" y="-6" type="qcurve"/>
      <point x="1579" y="-8"/>
      <point x="1393" y="-12" type="qcurve" smooth="yes"/>
      <point x="1315" y="-14"/>
      <point x="1296" y="8" type="qcurve" smooth="yes"/>
      <point x="1257" y="55"/>
      <point x="1257" y="242" type="qcurve" smooth="yes"/>
      <point x="1257" y="350"/>
      <point x="1270" y="520" type="qcurve" smooth="yes"/>
      <point x="1276" y="621"/>
      <point x="1212" y="670" type="qcurve" smooth="yes"/>
      <point x="1161" y="707"/>
      <point x="1083" y="707" type="qcurve" smooth="yes"/>
      <point x="1030" y="707"/>
      <point x="1010" y="692" type="qcurve"/>
      <point x="965" y="365" type="line"/>
      <point x="961" y="348"/>
      <point x="961" y="334" type="qcurve" smooth="yes"/>
      <point x="961" y="305"/>
      <point x="1010" y="256"/>
      <point x="1012" y="250" type="qcurve"/>
      <point x="768" y="236" type="line" smooth="yes"/>
      <point x="674" y="229"/>
      <point x="674" y="315" type="qcurve" smooth="yes"/>
      <point x="674" y="340"/>
      <point x="680" y="379" type="qcurve" smooth="yes"/>
      <point x="727" y="678" type="line"/>
      <point x="584" y="672"/>
      <point x="479" y="571" type="qcurve" smooth="yes"/>
      <point x="383" y="481"/>
      <point x="383" y="373" type="qcurve" smooth="yes"/>
      <point x="383" y="317"/>
      <point x="412" y="270" type="qcurve"/>
      <point x="152" y="258" type="line" smooth="yes"/>
      <point x="82" y="254"/>
      <point x="82" y="328" type="qcurve" smooth="yes"/>
      <point x="82" y="401"/>
      <point x="147" y="489" type="qcurve" smooth="yes"/>
      <point x="221" y="586"/>
      <point x="328" y="629" type="qcurve" smooth="yes"/>
      <point x="539" y="713"/>
      <point x="737" y="711" type="qcurve"/>
      <point x="764" y="932" type="line" smooth="yes"/>
      <point x="788" y="1139"/>
      <point x="788" y="1143" type="qcurve" smooth="yes"/>
      <point x="788" y="1227"/>
      <point x="743" y="1274" type="qcurve"/>
    </contour>
  </outline>
</glyph>
<glyph name="hhe-ethi" format="2">
  <advance width="1718"/>
  <unicode hex="1215"/>
  <outline>
    <contour>
      <point x="580" y="1362" type="qcurve"/>
      <point x="772" y="1370"/>
      <point x="772" y="1196" type="qcurve" smooth="yes"/>
      <point x="772" y="1161"/>
      <point x="764" y="1112" type="qcurve"/>
      <point x="815" y="1112"/>
      <point x="961" y="1141" type="qcurve"/>
      <point x="1024" y="1149"/>
      <point x="1028" y="1149" type="qcurve" smooth="yes"/>
      <point x="1081" y="1149"/>
      <point x="1081" y="1079" type="qcurve" smooth="yes"/>
      <point x="1081" y="1044"/>
      <point x="1063" y="950"/>
      <point x="1028" y="721" type="qcurve"/>
      <point x="1053" y="721"/>
      <point x="1159" y="731" type="qcurve" smooth="yes"/>
      <point x="1288" y="743"/>
      <point x="1346" y="748" type="qcurve"/>
      <point x="1448" y="754"/>
      <point x="1548" y="635"/>
      <point x="1569" y="485" type="qcurve"/>
      <point x="1579" y="424"/>
      <point x="1579" y="344" type="qcurve" smooth="yes"/>
      <point x="1579" y="328"/>
      <point x="1579" y="297" type="qcurve"/>
      <point x="1577" y="266"/>
      <point x="1577" y="252" type="qcurve" smooth="yes"/>
      <point x="1577" y="106"/>
      <point x="1636" y="25" type="qcurve"/>
      <point x="1468" y="-18"/>
      <point x="1421" y="-18" type="qcurve" smooth="yes"/>
      <point x="1401" y="-18"/>
      <point x="1386" y="-10" type="qcurve" smooth="yes"/>
      <point x="1362" y="2"/>
      <point x="1358" y="4" type="qcurve" smooth="yes"/>
      <point x="1303" y="25"/>
      <point x="1303" y="190" type="qcurve" smooth="yes"/>
      <point x="1303" y="213"/>
      <point x="1305" y="264" type="qcurve"/>
      <point x="1305" y="313"/>
      <point x="1305" y="340" type="qcurve" smooth="yes"/>
      <point x="1305" y="502"/>
      <point x="1270" y="578" type="qcurve" smooth="yes"/>
      <point x="1221" y="686"/>
      <point x="1092" y="686" type="qcurve" smooth="yes"/>
      <point x="1059" y="686"/>
      <point x="1020" y="680" type="qcurve"/>
      <point x="967" y="473"/>
      <point x="952" y="176" type="qcurve"/>
      <point x="950" y="100"/>
      <point x="997" y="25" type="qcurve"/>
      <point x="860" y="2" type="line" smooth="yes"/>
      <point x="791" y="-10"/>
      <point x="764" y="-10" type="qcurve" smooth="yes"/>
      <point x="670" y="-10"/>
      <point x="682" y="100" type="qcurve"/>
      <point x="735" y="526"/>
      <point x="760" y="637" type="qcurve"/>
      <point x="610" y="647"/>
      <point x="500" y="537" type="qcurve" smooth="yes"/>
      <point x="371" y="406"/>
      <point x="371" y="160" type="qcurve" smooth="yes"/>
      <point x="371" y="98"/>
      <point x="412" y="35"/>
      <point x="412" y="27" type="qcurve"/>
      <point x="397" y="18"/>
      <point x="238" y="6" type="qcurve"/>
      <point x="166" y="-2"/>
      <point x="168" y="-2" type="qcurve"/>
      <point x="74" y="-2"/>
      <point x="82" y="141" type="qcurve" smooth="yes"/>
      <point x="96" y="395"/>
      <point x="254" y="526" type="qcurve" smooth="yes"/>
      <point x="369" y="623"/>
      <point x="555" y="651" type="qcurve"/>
      <point x="657" y="657"/>
      <point x="760" y="666" type="qcurve"/>
      <point x="797" y="963" type="line" smooth="yes"/>
      <point x="805" y="1024"/>
      <point x="752" y="1116"/>
      <point x="686" y="1116" type="qcurve"/>
      <point x="537" y="1067"/>
      <point x="422" y="1067" type="qcurve"/>
      <point x="467" y="1120"/>
      <point x="467" y="1202" type="qcurve" smooth="yes"/>
      <point x="467" y="1280"/>
      <point x="436" y="1337" type="qcurve"/>
      <point x="477" y="1348"/>
    </contour>
  </outline>
</glyph>
<glyph name="hho-ethi" format="2">
  <advance width="1665"/>
  <unicode hex="1216"/>
  <outline>
    <contour>
      <point x="903" y="1272" type="line" smooth="yes"/>
      <point x="940" y="1282"/>
      <point x="965" y="1282" type="qcurve" smooth="yes"/>
      <point x="1055" y="1282"/>
      <point x="1055" y="1139" type="qcurve" smooth="yes"/>
      <point x="1055" y="1110"/>
      <point x="1051" y="1075" type="qcurve" smooth="yes"/>
      <point x="1040" y="989"/>
      <point x="1020" y="809"/>
      <point x="1020" y="729" type="qcurve"/>
      <point x="1040" y="729"/>
      <point x="1243" y="764"/>
      <point x="1305" y="764" type="qcurve" smooth="yes"/>
      <point x="1454" y="764"/>
      <point x="1485" y="668" type="qcurve" smooth="yes"/>
      <point x="1501" y="616"/>
      <point x="1522" y="414" type="qcurve" smooth="yes"/>
      <point x="1534" y="276"/>
      <point x="1583" y="266" type="qcurve"/>
      <point x="1370" y="221" type="line" smooth="yes"/>
      <point x="1350" y="217"/>
      <point x="1333" y="217" type="qcurve" smooth="yes"/>
      <point x="1249" y="217"/>
      <point x="1249" y="354" type="qcurve" smooth="yes"/>
      <point x="1249" y="371"/>
      <point x="1251" y="406" type="qcurve"/>
      <point x="1251" y="440"/>
      <point x="1251" y="459" type="qcurve" smooth="yes"/>
      <point x="1251" y="520"/>
      <point x="1243" y="561" type="qcurve"/>
      <point x="1212" y="696"/>
      <point x="1006" y="684" type="qcurve"/>
      <point x="967" y="514"/>
      <point x="973" y="420" type="qcurve" smooth="yes"/>
      <point x="977" y="362"/>
      <point x="1004" y="266" type="qcurve"/>
      <point x="879" y="236" type="line" smooth="yes"/>
      <point x="827" y="223"/>
      <point x="793" y="223" type="qcurve" smooth="yes"/>
      <point x="696" y="223"/>
      <point x="696" y="328" type="qcurve" smooth="yes"/>
      <point x="696" y="360"/>
      <point x="705" y="401" type="qcurve"/>
      <point x="711" y="455"/>
      <point x="741" y="651" type="qcurve"/>
      <point x="637" y="651"/>
      <point x="573" y="616" type="qcurve"/>
      <point x="518" y="584"/>
      <point x="459" y="502" type="qcurve" smooth="yes"/>
      <point x="350" y="350"/>
      <point x="350" y="174" type="qcurve" smooth="yes"/>
      <point x="350" y="76"/>
      <point x="395" y="31" type="qcurve"/>
      <point x="209" y="12" type="line" smooth="yes"/>
      <point x="123" y="4"/>
      <point x="96" y="68" type="qcurve" smooth="yes"/>
      <point x="82" y="100"/>
      <point x="82" y="176" type="qcurve" smooth="yes"/>
      <point x="82" y="467"/>
      <point x="371" y="614" type="qcurve" smooth="yes"/>
      <point x="461" y="659"/>
      <point x="750" y="715" type="qcurve"/>
      <point x="782" y="948"/>
      <point x="782" y="1057" type="qcurve" smooth="yes"/>
      <point x="782" y="1153"/>
      <point x="782" y="1151" type="qcurve"/>
      <point x="778" y="1204"/>
      <point x="754" y="1229" type="qcurve"/>
    </contour>
  </outline>
</glyph>
<glyph name="hhwa-ethi" format="2">
  <advance width="1712"/>
  <unicode hex="1217"/>
  <outline>
    <contour>
      <point x="899" y="1288" type="line" smooth="yes"/>
      <point x="958" y="1294"/>
      <point x="991" y="1294" type="qcurve" smooth="yes"/>
      <point x="1087" y="1294"/>
      <point x="1087" y="1221" type="qcurve" smooth="yes"/>
      <point x="1087" y="1198"/>
      <point x="1081" y="1161" type="qcurve" smooth="yes"/>
      <point x="1020" y="735" type="line"/>
      <point x="1208" y="778"/>
      <point x="1303" y="778" type="qcurve" smooth="yes"/>
      <point x="1448" y="778"/>
      <point x="1569" y="614"/>
      <point x="1569" y="465" type="qcurve" smooth="yes"/>
      <point x="1569" y="426"/>
      <point x="1559" y="266"/>
      <point x="1559" y="229" type="qcurve" smooth="yes"/>
      <point x="1559" y="74"/>
      <point x="1630" y="-6" type="qcurve"/>
      <point x="1579" y="-8"/>
      <point x="1393" y="-12" type="qcurve" smooth="yes"/>
      <point x="1315" y="-14"/>
      <point x="1296" y="8" type="qcurve" smooth="yes"/>
      <point x="1257" y="55"/>
      <point x="1257" y="242" type="qcurve" smooth="yes"/>
      <point x="1257" y="350"/>
      <point x="1270" y="520" type="qcurve" smooth="yes"/>
      <point x="1276" y="621"/>
      <point x="1212" y="670" type="qcurve" smooth="yes"/>
      <point x="1161" y="707"/>
      <point x="1083" y="707" type="qcurve" smooth="yes"/>
      <point x="1030" y="707"/>
      <point x="1010" y="692" type="qcurve"/>
      <point x="965" y="365" type="line"/>
      <point x="961" y="348"/>
      <point x="961" y="334" type="qcurve" smooth="yes"/>
      <point x="961" y="305"/>
      <point x="1010" y="256"/>
      <point x="1012" y="250" type="qcurve"/>
      <point x="768" y="236" type="line" smooth="yes"/>
      <point x="674" y="229"/>
      <point x="674" y="315" type="qcurve" smooth="yes"/>
      <point x="674" y="340"/>
      <point x="680" y="379" type="qcurve" smooth="yes"/>
      <point x="727" y="678" type="line"/>
      <point x="584" y="672"/>
      <point x="479" y="571" type="qcurve" smooth="yes"/>
      <point x="383" y="481"/>
      <point x="383" y="373" type="qcurve" smooth="yes"/>
      <point x="383" y="317"/>
      <point x="412" y="270" type="qcurve"/>
      <point x="152" y="258" type="line" smooth="yes"/>
      <point x="82" y="254"/>
      <point x="82" y="328" type="qcurve" smooth="yes"/>
      <point x="82" y="401"/>
      <point x="147" y="489" type="qcurve" smooth="yes"/>
      <point x="221" y="586"/>
      <point x="328" y="629" type="qcurve" smooth="yes"/>
      <point x="539" y="713"/>
      <point x="737" y="711" type="qcurve"/>
      <point x="764" y="932" type="line" smooth="yes"/>
      <point x="788" y="1139"/>
      <point x="788" y="1143" type="qcurve" smooth="yes"/>
      <point x="788" y="1227"/>
      <point x="743" y="1274" type="qcurve"/>
    </contour>
    <contour>
      <point x="1950" y="20" type="line"/>
      <point x="1915" y="-59"/>
      <point x="1915" y="-131" type="qcurve" smooth="yes"/>
      <point x="1915" y="-238"/>
      <point x="1982" y="-303" type="qcurve"/>
      <point x="1972" y="-302"/>
      <point x="1913" y="-307" type="qcurve" smooth="yes"/>
      <point x="1868" y="-311"/>
      <point x="1837" y="-311" type="qcurve" smooth="yes"/>
      <point x="1620" y="-312"/>
      <point x="1620" y="-113" type="qcurve" smooth="yes"/>
      <point x="1620" y="-70"/>
      <point x="1628" y="-18" type="qcurve"/>
      <point x="1173" y="-18" type="line"/>
      <point x="1177" y="-41"/>
      <point x="1177" y="-61" type="qcurve" smooth="yes"/>
      <point x="1177" y="-180"/>
      <point x="1075" y="-250" type="qcurve" smooth="yes"/>
      <point x="993" y="-305"/>
      <point x="897" y="-305" type="qcurve" smooth="yes"/>
      <point x="864" y="-305"/>
      <point x="846" y="-297" type="qcurve"/>
      <point x="849" y="-285"/>
      <point x="881" y="-217" type="qcurve" smooth="yes"/>
      <point x="909" y="-156"/>
      <point x="909" y="-111" type="qcurve" smooth="yes"/>
      <point x="908" y="-43"/>
      <point x="854" y="20" type="qcurve"/>
    </contour>
  </outline>
</glyph>
<glyph name="ma-ethi" format="2">
  <advance width="2085"/>
  <unicode hex="1218"/>
  <outline>
    <contour>
      <point x="1749" y="1219" type="line"/>
      <point x="1772" y="1223"/>
      <point x="1794" y="1223" type="qcurve" smooth="yes"/>
      <point x="2003" y="1223"/>
      <point x="2003" y="981" type="qcurve" smooth="yes"/>
      <point x="2003" y="938"/>
      <point x="1997" y="889" type="qcurve" smooth="yes"/>
      <point x="1978" y="750"/>
      <point x="1905" y="643" type="qcurve" smooth="yes"/>
      <point x="1845" y="559"/>
      <point x="1731" y="559" type="qcurve" smooth="yes"/>
      <point x="1714" y="559"/>
      <point x="1632" y="563"/>
      <point x="1610" y="563" type="qcurve" smooth="yes"/>
      <point x="1554" y="563"/>
      <point x="1350" y="526"/>
      <point x="1300" y="526" type="qcurve" smooth="yes"/>
      <point x="1200" y="526"/>
      <point x="1184" y="604" type="qcurve" smooth="yes"/>
      <point x="1163" y="696"/>
      <point x="1200" y="821" type="qcurve" smooth="yes"/>
      <point x="1288" y="1116" type="line" smooth="yes"/>
      <point x="1290" y="1124"/>
      <point x="1290" y="1135" type="qcurve" smooth="yes"/>
      <point x="1290" y="1186"/>
      <point x="1233" y="1186" type="qcurve" smooth="yes"/>
      <point x="1184" y="1186"/>
      <point x="1163" y="1128" type="qcurve"/>
      <point x="952" y="707" type="line" smooth="yes"/>
      <point x="895" y="590"/>
      <point x="858" y="547" type="qcurve"/>
      <point x="797" y="471"/>
      <point x="717" y="471" type="qcurve" smooth="yes"/>
      <point x="688" y="471"/>
      <point x="608" y="475" type="qcurve" smooth="yes"/>
      <point x="537" y="477"/>
      <point x="518" y="477" type="qcurve"/>
      <point x="487" y="475"/>
      <point x="379" y="465" type="qcurve"/>
      <point x="293" y="455"/>
      <point x="248" y="455" type="qcurve" smooth="yes"/>
      <point x="135" y="455"/>
      <point x="111" y="504" type="qcurve" smooth="yes"/>
      <point x="82" y="561"/>
      <point x="82" y="631" type="qcurve" smooth="yes"/>
      <point x="82" y="799"/>
      <point x="229" y="981" type="qcurve" smooth="yes"/>
      <point x="352" y="1133"/>
      <point x="514" y="1184" type="qcurve" smooth="yes"/>
      <point x="618" y="1217"/>
      <point x="815" y="1217" type="qcurve" smooth="yes"/>
      <point x="1077" y="1217"/>
      <point x="1231" y="1231" type="qcurve" smooth="yes"/>
      <point x="1399" y="1245"/>
      <point x="1399" y="1245" type="qcurve"/>
      <point x="1434" y="1245"/>
      <point x="1528" y="1223"/>
      <point x="1565" y="1227" type="qcurve"/>
      <point x="1565" y="1200" type="line"/>
    </contour>
    <contour>
      <point x="1554" y="1139" type="qcurve"/>
      <point x="1468" y="702"/>
      <point x="1468" y="680" type="qcurve" smooth="yes"/>
      <point x="1468" y="590"/>
      <point x="1520" y="590" type="qcurve" smooth="yes"/>
      <point x="1530" y="590"/>
      <point x="1602" y="608"/>
      <point x="1683" y="768"/>
      <point x="1712" y="946"/>
      <point x="1712" y="1008" type="qcurve" smooth="yes"/>
      <point x="1712" y="1151"/>
      <point x="1626" y="1151" type="qcurve" smooth="yes"/>
      <point x="1604" y="1151"/>
    </contour>
    <contour>
      <point x="412" y="776" type="qcurve" smooth="yes"/>
      <point x="375" y="692"/>
      <point x="375" y="633" type="qcurve" smooth="yes"/>
      <point x="375" y="530"/>
      <point x="461" y="530" type="qcurve" smooth="yes"/>
      <point x="559" y="530"/>
      <point x="625" y="653" type="qcurve" smooth="yes"/>
      <point x="901" y="1171" type="line"/>
      <point x="905" y="1171"/>
      <point x="831" y="1182"/>
      <point x="799" y="1182" type="qcurve" smooth="yes"/>
      <point x="731" y="1182"/>
      <point x="690" y="1159" type="qcurve"/>
      <point x="547" y="1073"/>
    </contour>
  </outline>
</glyph>
<glyph name="mu-ethi" format="2">
  <advance width="2519"/>
  <unicode hex="1219"/>
  <unicode hex="F050"/>
  <outline>
    <contour>
      <point x="1913" y="866" type="line"/>
      <point x="2046" y="868"/>
      <point x="2044" y="864" type="qcurve"/>
      <point x="2087" y="971"/>
      <point x="2335" y="971" type="qcurve" smooth="yes"/>
      <point x="2386" y="971"/>
      <point x="2408" y="965" type="qcurve"/>
      <point x="2384" y="905"/>
      <point x="2384" y="844" type="qcurve" smooth="yes"/>
      <point x="2384" y="748"/>
      <point x="2437" y="668" type="qcurve"/>
      <point x="2363" y="645"/>
      <point x="2288" y="645" type="qcurve" smooth="yes"/>
      <point x="2071" y="645"/>
      <point x="2036" y="844" type="qcurve"/>
      <point x="1909" y="840" type="line"/>
      <point x="1892" y="772"/>
      <point x="1794" y="649" type="qcurve" smooth="yes"/>
      <point x="1729" y="569"/>
      <point x="1638" y="561" type="qcurve"/>
      <point x="1532" y="555"/>
      <point x="1423" y="549" type="qcurve"/>
      <point x="1413" y="547"/>
      <point x="1331" y="530" type="qcurve" smooth="yes"/>
      <point x="1272" y="518"/>
      <point x="1237" y="518" type="qcurve" smooth="yes"/>
      <point x="1114" y="518"/>
      <point x="1110" y="664" type="qcurve"/>
      <point x="1120" y="825"/>
      <point x="1124" y="1081" type="qcurve"/>
      <point x="1122" y="1137"/>
      <point x="1059" y="1137" type="qcurve" smooth="yes"/>
      <point x="991" y="1137"/>
      <point x="979" y="1071" type="qcurve" smooth="yes"/>
      <point x="895" y="664" type="line" smooth="yes"/>
      <point x="874" y="565"/>
      <point x="817" y="498" type="qcurve" smooth="yes"/>
      <point x="754" y="424"/>
      <point x="670" y="418" type="qcurve"/>
      <point x="580" y="416"/>
      <point x="457" y="410" type="qcurve"/>
      <point x="408" y="403"/>
      <point x="307" y="377" type="qcurve" smooth="yes"/>
      <point x="227" y="356"/>
      <point x="193" y="356" type="qcurve" smooth="yes"/>
      <point x="82" y="356"/>
      <point x="82" y="545" type="qcurve" smooth="yes"/>
      <point x="82" y="737"/>
      <point x="211" y="928" type="qcurve" smooth="yes"/>
      <point x="317" y="1090"/>
      <point x="465" y="1133" type="qcurve" smooth="yes"/>
      <point x="545" y="1157"/>
      <point x="756" y="1157" type="qcurve" smooth="yes"/>
      <point x="1016" y="1157"/>
      <point x="1096" y="1169" type="qcurve"/>
      <point x="1143" y="1178"/>
      <point x="1188" y="1186" type="qcurve"/>
      <point x="1266" y="1190"/>
      <point x="1409" y="1206" type="qcurve"/>
      <point x="1409" y="1165" type="line"/>
      <point x="1622" y="1210" type="line"/>
      <point x="1645" y="1214"/>
      <point x="1665" y="1214" type="qcurve" smooth="yes"/>
      <point x="1774" y="1214"/>
      <point x="1919" y="1016"/>
      <point x="1911" y="891" type="qcurve"/>
    </contour>
    <contour>
      <point x="1413" y="1137" type="qcurve"/>
      <point x="1409" y="1104"/>
      <point x="1386" y="762" type="qcurve" smooth="yes"/>
      <point x="1374" y="590"/>
      <point x="1446" y="590" type="qcurve" smooth="yes"/>
      <point x="1456" y="590"/>
      <point x="1497" y="598"/>
      <point x="1503" y="598" type="qcurve"/>
      <point x="1559" y="602"/>
      <point x="1587" y="731" type="qcurve" smooth="yes"/>
      <point x="1608" y="823"/>
      <point x="1608" y="915" type="qcurve" smooth="yes"/>
      <point x="1608" y="1143"/>
      <point x="1468" y="1143" type="qcurve" smooth="yes"/>
      <point x="1448" y="1143"/>
    </contour>
    <contour>
      <point x="401" y="778" type="qcurve" smooth="yes"/>
      <point x="371" y="674"/>
      <point x="371" y="596" type="qcurve" smooth="yes"/>
      <point x="371" y="451"/>
      <point x="461" y="451" type="qcurve" smooth="yes"/>
      <point x="506" y="451"/>
      <point x="590" y="537"/>
      <point x="602" y="604" type="qcurve" smooth="yes"/>
      <point x="700" y="1110" type="line"/>
      <point x="684" y="1116"/>
      <point x="668" y="1116" type="qcurve" smooth="yes"/>
      <point x="598" y="1116"/>
      <point x="530" y="1038" type="qcurve" smooth="yes"/>
      <point x="451" y="946"/>
    </contour>
  </outline>
</glyph>
<glyph name="mi-ethi" format="2">
  <advance width="2228"/>
  <unicode hex="121A"/>
  <unicode hex="F051"/>
  <outline>
    <contour>
      <point x="1921" y="-158" type="line" smooth="yes"/>
      <point x="1868" y="-158"/>
      <point x="1759" y="-53"/>
      <point x="1757" y="-2" type="qcurve"/>
      <point x="1364" y="-4" type="line" smooth="yes"/>
      <point x="1223" y="-6"/>
      <point x="1223" y="94" type="qcurve" smooth="yes"/>
      <point x="1223" y="137"/>
      <point x="1251" y="213" type="qcurve"/>
      <point x="1274" y="268"/>
      <point x="1294" y="322" type="qcurve"/>
      <point x="1513" y="821" type="line"/>
      <point x="1487" y="848"/>
      <point x="1440" y="848" type="qcurve" smooth="yes"/>
      <point x="1434" y="848"/>
      <point x="1288" y="823"/>
      <point x="1241" y="823" type="qcurve" smooth="yes"/>
      <point x="1153" y="823"/>
      <point x="1092" y="905"/>
      <point x="1092" y="977" type="qcurve" smooth="yes"/>
      <point x="1092" y="999"/>
      <point x="1120" y="1171" type="qcurve" smooth="yes"/>
      <point x="1130" y="1237"/>
      <point x="1130" y="1245" type="qcurve" smooth="yes"/>
      <point x="1130" y="1300"/>
      <point x="1081" y="1303" type="qcurve" smooth="yes"/>
      <point x="1034" y="1305"/>
      <point x="1012" y="1282" type="qcurve"/>
      <point x="999" y="1262"/>
      <point x="975" y="1229"/>
      <point x="969" y="1190" type="qcurve" smooth="yes"/>
      <point x="965" y="1161"/>
      <point x="961" y="1133" type="qcurve"/>
      <point x="920" y="954"/>
      <point x="866" y="825" type="qcurve" smooth="yes"/>
      <point x="838" y="754"/>
      <point x="723" y="733" type="qcurve"/>
      <point x="670" y="725"/>
      <point x="537" y="725" type="qcurve" smooth="yes"/>
      <point x="469" y="725"/>
      <point x="371" y="688" type="qcurve"/>
      <point x="307" y="666"/>
      <point x="260" y="666" type="qcurve" smooth="yes"/>
      <point x="201" y="666"/>
      <point x="137" y="709" type="qcurve" smooth="yes"/>
      <point x="82" y="748"/>
      <point x="82" y="891" type="qcurve" smooth="yes"/>
      <point x="82" y="1038"/>
      <point x="207" y="1159" type="qcurve" smooth="yes"/>
      <point x="319" y="1270"/>
      <point x="473" y="1303" type="qcurve"/>
      <point x="621" y="1331"/>
      <point x="760" y="1331" type="qcurve" smooth="yes"/>
      <point x="934" y="1331"/>
      <point x="1438" y="1339" type="qcurve"/>
      <point x="1440" y="1309" type="line"/>
      <point x="1511" y="1327"/>
      <point x="1647" y="1350" type="qcurve"/>
      <point x="1700" y="1356"/>
      <point x="1741" y="1356" type="qcurve" smooth="yes"/>
      <point x="1839" y="1356"/>
      <point x="1880" y="1309" type="qcurve" smooth="yes"/>
      <point x="1913" y="1270"/>
      <point x="1921" y="1182" type="qcurve" smooth="yes"/>
      <point x="1929" y="1079"/>
      <point x="1802" y="768" type="qcurve"/>
      <point x="1753" y="653"/>
      <point x="1630" y="389" type="qcurve" smooth="yes"/>
      <point x="1528" y="170"/>
      <point x="1528" y="111" type="qcurve" smooth="yes"/>
      <point x="1528" y="41"/>
      <point x="1597" y="33" type="qcurve"/>
      <point x="1767" y="35"/>
      <point x="1767" y="39" type="qcurve"/>
      <point x="1780" y="78"/>
      <point x="1872" y="150"/>
      <point x="1913" y="150" type="qcurve" smooth="yes"/>
      <point x="2138" y="150" type="line"/>
      <point x="2095" y="82"/>
      <point x="2095" y="14" type="qcurve" smooth="yes"/>
      <point x="2095" y="-84"/>
      <point x="2146" y="-158" type="qcurve"/>
    </contour>
    <contour>
      <point x="1604" y="1262" type="qcurve" smooth="yes"/>
      <point x="1540" y="1290"/>
      <point x="1505" y="1290" type="qcurve" smooth="yes"/>
      <point x="1464" y="1290"/>
      <point x="1415" y="1260" type="qcurve"/>
      <point x="1413" y="1241"/>
      <point x="1391" y="1012"/>
      <point x="1391" y="1010" type="qcurve"/>
      <point x="1391" y="889"/>
      <point x="1489" y="879" type="qcurve"/>
      <point x="1538" y="879"/>
      <point x="1556" y="893" type="qcurve"/>
      <point x="1561" y="893"/>
      <point x="1614" y="1053" type="qcurve"/>
      <point x="1632" y="1102"/>
      <point x="1632" y="1165" type="qcurve" smooth="yes"/>
      <point x="1632" y="1249"/>
    </contour>
    <contour>
      <point x="457" y="1161" type="qcurve" smooth="yes"/>
      <point x="356" y="977"/>
      <point x="356" y="838" type="qcurve" smooth="yes"/>
      <point x="356" y="743"/>
      <point x="430" y="745" type="qcurve" smooth="yes"/>
      <point x="563" y="750"/>
      <point x="647" y="995" type="qcurve" smooth="yes"/>
      <point x="690" y="1122"/>
      <point x="711" y="1286" type="qcurve"/>
      <point x="678" y="1292"/>
      <point x="651" y="1292" type="qcurve" smooth="yes"/>
      <point x="528" y="1292"/>
    </contour>
  </outline>
</glyph>
<glyph name="mee-ethi" format="2">
  <advance width="2175"/>
  <unicode hex="121C"/>
  <unicode hex="F053"/>
  <outline>
    <contour>
      <point x="1888" y="422" type="line" smooth="yes"/>
      <point x="1919" y="426"/>
      <point x="1946" y="426" type="qcurve" smooth="yes"/>
      <point x="2046" y="426"/>
      <point x="2077" y="369" type="qcurve"/>
      <point x="2093" y="336"/>
      <point x="2093" y="233" type="qcurve" smooth="yes"/>
      <point x="2093" y="135"/>
      <point x="2017" y="78" type="qcurve" smooth="yes"/>
      <point x="1954" y="31"/>
      <point x="1862" y="25" type="qcurve" smooth="yes"/>
      <point x="1423" y="-2" type="line" smooth="yes"/>
      <point x="1264" y="-12"/>
      <point x="1264" y="96" type="qcurve" smooth="yes"/>
      <point x="1264" y="133"/>
      <point x="1329" y="332" type="qcurve"/>
      <point x="1534" y="829" type="line"/>
      <point x="1507" y="856"/>
      <point x="1452" y="856" type="qcurve" smooth="yes"/>
      <point x="1434" y="856"/>
      <point x="1288" y="829"/>
      <point x="1241" y="829" type="qcurve" smooth="yes"/>
      <point x="1153" y="829"/>
      <point x="1092" y="913"/>
      <point x="1092" y="983" type="qcurve" smooth="yes"/>
      <point x="1092" y="1006"/>
      <point x="1120" y="1180" type="qcurve" smooth="yes"/>
      <point x="1130" y="1243"/>
      <point x="1130" y="1251" type="qcurve" smooth="yes"/>
      <point x="1130" y="1307"/>
      <point x="1081" y="1309" type="qcurve" smooth="yes"/>
      <point x="1034" y="1311"/>
      <point x="1012" y="1288" type="qcurve"/>
      <point x="999" y="1270"/>
      <point x="975" y="1235"/>
      <point x="969" y="1196" type="qcurve" smooth="yes"/>
      <point x="965" y="1167"/>
      <point x="961" y="1139" type="qcurve"/>
      <point x="920" y="963"/>
      <point x="866" y="831" type="qcurve" smooth="yes"/>
      <point x="838" y="760"/>
      <point x="723" y="741" type="qcurve"/>
      <point x="670" y="731"/>
      <point x="537" y="733" type="qcurve"/>
      <point x="469" y="733"/>
      <point x="371" y="696" type="qcurve" smooth="yes"/>
      <point x="307" y="672"/>
      <point x="260" y="672" type="qcurve" smooth="yes"/>
      <point x="201" y="672"/>
      <point x="137" y="715" type="qcurve" smooth="yes"/>
      <point x="82" y="754"/>
      <point x="82" y="897" type="qcurve" smooth="yes"/>
      <point x="82" y="1044"/>
      <point x="207" y="1165" type="qcurve" smooth="yes"/>
      <point x="319" y="1278"/>
      <point x="473" y="1309" type="qcurve" smooth="yes"/>
      <point x="621" y="1339"/>
      <point x="760" y="1339" type="qcurve" smooth="yes"/>
      <point x="934" y="1339"/>
      <point x="1438" y="1346" type="qcurve"/>
      <point x="1440" y="1315" type="line"/>
      <point x="1511" y="1335"/>
      <point x="1647" y="1356" type="qcurve" smooth="yes"/>
      <point x="1700" y="1364"/>
      <point x="1741" y="1364" type="qcurve" smooth="yes"/>
      <point x="1839" y="1364"/>
      <point x="1880" y="1315" type="qcurve" smooth="yes"/>
      <point x="1913" y="1276"/>
      <point x="1921" y="1188" type="qcurve" smooth="yes"/>
      <point x="1929" y="1085"/>
      <point x="1802" y="776" type="qcurve" smooth="yes"/>
      <point x="1755" y="659"/>
      <point x="1645" y="395" type="qcurve"/>
    </contour>
    <contour>
      <point x="1645" y="49" type="qcurve"/>
      <point x="1665" y="49"/>
      <point x="1729" y="76" type="qcurve"/>
      <point x="1800" y="113"/>
      <point x="1800" y="233" type="qcurve" smooth="yes"/>
      <point x="1800" y="356"/>
      <point x="1720" y="371" type="qcurve"/>
      <point x="1698" y="371"/>
      <point x="1679" y="367" type="qcurve"/>
      <point x="1636" y="354"/>
      <point x="1622" y="328" type="qcurve"/>
      <point x="1573" y="225"/>
      <point x="1573" y="139" type="qcurve" smooth="yes"/>
      <point x="1573" y="41"/>
    </contour>
    <contour>
      <point x="1604" y="1270" type="qcurve"/>
      <point x="1540" y="1298"/>
      <point x="1505" y="1298" type="qcurve" smooth="yes"/>
      <point x="1464" y="1298"/>
      <point x="1415" y="1266" type="qcurve"/>
      <point x="1413" y="1249"/>
      <point x="1403" y="1130" type="qcurve"/>
      <point x="1391" y="1020"/>
      <point x="1391" y="1016" type="qcurve" smooth="yes"/>
      <point x="1391" y="897"/>
      <point x="1489" y="885" type="qcurve"/>
      <point x="1538" y="885"/>
      <point x="1556" y="899" type="qcurve"/>
      <point x="1561" y="899"/>
      <point x="1614" y="1059" type="qcurve" smooth="yes"/>
      <point x="1632" y="1110"/>
      <point x="1632" y="1174" type="qcurve" smooth="yes"/>
      <point x="1632" y="1255"/>
    </contour>
    <contour>
      <point x="457" y="1167" type="qcurve" smooth="yes"/>
      <point x="356" y="983"/>
      <point x="356" y="846" type="qcurve" smooth="yes"/>
      <point x="356" y="750"/>
      <point x="430" y="754" type="qcurve"/>
      <point x="563" y="756"/>
      <point x="647" y="1001" type="qcurve" smooth="yes"/>
      <point x="690" y="1128"/>
      <point x="711" y="1292" type="qcurve"/>
      <point x="678" y="1300"/>
      <point x="651" y="1300" type="qcurve" smooth="yes"/>
      <point x="528" y="1300"/>
    </contour>
  </outline>
</glyph>
<glyph name="me-ethi" format="2">
  <advance width="1894"/>
  <unicode hex="121D"/>
  <unicode hex="F054"/>
  <outline>
    <contour>
      <point x="1503" y="1311" type="qcurve" smooth="yes"/>
      <point x="1542" y="1323"/>
      <point x="1581" y="1323" type="qcurve" smooth="yes"/>
      <point x="1679" y="1323"/>
      <point x="1745" y="1243" type="qcurve"/>
      <point x="1804" y="1167"/>
      <point x="1812" y="1063" type="qcurve"/>
      <point x="1819" y="948"/>
      <point x="1753" y="877" type="qcurve" smooth="yes"/>
      <point x="1673" y="793"/>
      <point x="1509" y="793" type="qcurve" smooth="yes"/>
      <point x="1483" y="793"/>
      <point x="1456" y="795" type="qcurve"/>
      <point x="1448" y="795"/>
      <point x="1286" y="760"/>
      <point x="1241" y="760" type="qcurve" smooth="yes"/>
      <point x="1202" y="760"/>
      <point x="1184" y="772" type="qcurve"/>
      <point x="1143" y="797"/>
      <point x="1128" y="811" type="qcurve" smooth="yes"/>
      <point x="1102" y="834"/>
      <point x="1098" y="858" type="qcurve"/>
      <point x="1079" y="956"/>
      <point x="1067" y="1116" type="qcurve" smooth="yes"/>
      <point x="1057" y="1229"/>
      <point x="1047" y="1237" type="qcurve" smooth="yes"/>
      <point x="1006" y="1268"/>
      <point x="983" y="1268" type="qcurve" smooth="yes"/>
      <point x="956" y="1268"/>
      <point x="918" y="1247" type="qcurve"/>
      <point x="909" y="954"/>
      <point x="903" y="874" type="qcurve" smooth="yes"/>
      <point x="891" y="731"/>
      <point x="854" y="635" type="qcurve" smooth="yes"/>
      <point x="834" y="586"/>
      <point x="629" y="352" type="qcurve" smooth="yes"/>
      <point x="440" y="139"/>
      <point x="440" y="66" type="qcurve" smooth="yes"/>
      <point x="440" y="31"/>
      <point x="473" y="16" type="qcurve"/>
      <point x="281" y="0" type="line" smooth="yes"/>
      <point x="203" y="-6"/>
      <point x="197" y="-6" type="qcurve" smooth="yes"/>
      <point x="129" y="-6"/>
      <point x="117" y="43" type="qcurve" smooth="yes"/>
      <point x="113" y="57"/>
      <point x="113" y="74" type="qcurve" smooth="yes"/>
      <point x="113" y="158"/>
      <point x="223" y="289" type="qcurve" smooth="yes"/>
      <point x="281" y="356"/>
      <point x="432" y="500" type="qcurve" smooth="yes"/>
      <point x="543" y="606"/>
      <point x="543" y="629" type="qcurve" smooth="yes"/>
      <point x="543" y="637"/>
      <point x="537" y="639" type="qcurve"/>
      <point x="379" y="616"/>
      <point x="287" y="616" type="qcurve" smooth="yes"/>
      <point x="201" y="616"/>
      <point x="164" y="635" type="qcurve" smooth="yes"/>
      <point x="82" y="676"/>
      <point x="82" y="793" type="qcurve" smooth="yes"/>
      <point x="82" y="944"/>
      <point x="184" y="1079" type="qcurve" smooth="yes"/>
      <point x="270" y="1196"/>
      <point x="432" y="1247" type="qcurve" smooth="yes"/>
      <point x="520" y="1276"/>
      <point x="668" y="1284" type="qcurve" smooth="yes"/>
      <point x="786" y="1290"/>
      <point x="905" y="1294" type="qcurve"/>
      <point x="1047" y="1305"/>
      <point x="1303" y="1305" type="qcurve"/>
      <point x="1327" y="1249"/>
      <point x="1339" y="1262" type="qcurve"/>
      <point x="1382" y="1272"/>
    </contour>
    <contour>
      <point x="582" y="682" type="qcurve"/>
      <point x="600" y="727"/>
      <point x="633" y="870" type="qcurve"/>
      <point x="643" y="969"/>
      <point x="637" y="1243" type="qcurve"/>
      <point x="557" y="1243"/>
      <point x="524" y="1231" type="qcurve"/>
      <point x="430" y="1194"/>
      <point x="397" y="1065" type="qcurve" smooth="yes"/>
      <point x="356" y="911"/>
      <point x="356" y="831" type="qcurve" smooth="yes"/>
      <point x="356" y="678"/>
      <point x="520" y="678" type="qcurve" smooth="yes"/>
      <point x="547" y="678"/>
    </contour>
    <contour>
      <point x="1423" y="823" type="qcurve" smooth="yes"/>
      <point x="1538" y="840"/>
      <point x="1538" y="979" type="qcurve" smooth="yes"/>
      <point x="1538" y="1020"/>
      <point x="1530" y="1073" type="qcurve"/>
      <point x="1499" y="1245"/>
      <point x="1399" y="1245" type="qcurve" smooth="yes"/>
      <point x="1386" y="1245"/>
      <point x="1356" y="1241"/>
      <point x="1319" y="1219" type="qcurve"/>
      <point x="1321" y="809"/>
    </contour>
  </outline>
</glyph>
<glyph name="mo-ethi" format="2">
  <advance width="1878"/>
  <unicode hex="121E"/>
  <unicode hex="F055"/>
  <outline>
    <contour>
      <point x="1528" y="1362" type="qcurve"/>
      <point x="1550" y="1366"/>
      <point x="1571" y="1366" type="qcurve" smooth="yes"/>
      <point x="1675" y="1366"/>
      <point x="1739" y="1262" type="qcurve" smooth="yes"/>
      <point x="1796" y="1169"/>
      <point x="1796" y="1038" type="qcurve" smooth="yes"/>
      <point x="1796" y="864"/>
      <point x="1704" y="791" type="qcurve" smooth="yes"/>
      <point x="1632" y="731"/>
      <point x="1583" y="731" type="qcurve" smooth="yes"/>
      <point x="1575" y="731"/>
      <point x="1538" y="735"/>
      <point x="1526" y="735" type="qcurve" smooth="yes"/>
      <point x="1503" y="735"/>
      <point x="1477" y="729" type="qcurve" smooth="yes"/>
      <point x="1460" y="725"/>
      <point x="1358" y="678" type="qcurve" smooth="yes"/>
      <point x="1272" y="639"/>
      <point x="1223" y="639" type="qcurve" smooth="yes"/>
      <point x="1184" y="639"/>
      <point x="1157" y="662" type="qcurve"/>
      <point x="1100" y="715"/>
      <point x="1092" y="827" type="qcurve" smooth="yes"/>
      <point x="1061" y="1266" type="line"/>
      <point x="991" y="1262"/>
      <point x="956" y="1233"/>
      <point x="946" y="1180" type="qcurve"/>
      <point x="799" y="295" type="line" smooth="yes"/>
      <point x="780" y="184"/>
      <point x="780" y="145" type="qcurve" smooth="yes"/>
      <point x="780" y="68"/>
      <point x="829" y="12" type="qcurve"/>
      <point x="694" y="-14" type="line"/>
      <point x="645" y="-25"/>
      <point x="614" y="-25" type="qcurve" smooth="yes"/>
      <point x="557" y="-25"/>
      <point x="528" y="8" type="qcurve" smooth="yes"/>
      <point x="489" y="51"/>
      <point x="514" y="211" type="qcurve" smooth="yes"/>
      <point x="584" y="655" type="line"/>
      <point x="502" y="637"/>
      <point x="334" y="598"/>
      <point x="279" y="598" type="qcurve" smooth="yes"/>
      <point x="217" y="598"/>
      <point x="160" y="621" type="qcurve" smooth="yes"/>
      <point x="82" y="651"/>
      <point x="82" y="768" type="qcurve" smooth="yes"/>
      <point x="82" y="895"/>
      <point x="156" y="1016" type="qcurve" smooth="yes"/>
      <point x="246" y="1159"/>
      <point x="401" y="1214" type="qcurve" smooth="yes"/>
      <point x="508" y="1253"/>
      <point x="739" y="1270" type="qcurve"/>
      <point x="821" y="1282"/>
      <point x="991" y="1300" type="qcurve"/>
      <point x="1083" y="1307"/>
      <point x="1276" y="1321" type="qcurve"/>
      <point x="1280" y="1300" type="line"/>
      <point x="1368" y="1323"/>
    </contour>
    <contour>
      <point x="1331" y="1008" type="qcurve"/>
      <point x="1346" y="868"/>
      <point x="1352" y="850" type="qcurve"/>
      <point x="1374" y="760"/>
      <point x="1446" y="760" type="qcurve" smooth="yes"/>
      <point x="1466" y="760"/>
      <point x="1489" y="766" type="qcurve"/>
      <point x="1563" y="788"/>
      <point x="1563" y="922" type="qcurve" smooth="yes"/>
      <point x="1563" y="1040"/>
      <point x="1462" y="1284"/>
      <point x="1405" y="1286" type="qcurve"/>
      <point x="1376" y="1286"/>
      <point x="1346" y="1284" type="qcurve"/>
      <point x="1307" y="1280"/>
      <point x="1303" y="1262" type="qcurve"/>
      <point x="1303" y="1255"/>
      <point x="1331" y="1008"/>
    </contour>
    <contour>
      <point x="401" y="987" type="qcurve" smooth="yes"/>
      <point x="371" y="893"/>
      <point x="371" y="809" type="qcurve" smooth="yes"/>
      <point x="371" y="686"/>
      <point x="446" y="684" type="qcurve" smooth="yes"/>
      <point x="489" y="682"/>
      <point x="535" y="680" type="qcurve"/>
      <point x="578" y="680"/>
      <point x="592" y="694" type="qcurve"/>
      <point x="610" y="788"/>
      <point x="682" y="1227" type="qcurve"/>
      <point x="674" y="1227"/>
      <point x="637" y="1229" type="qcurve" smooth="yes"/>
      <point x="608" y="1231"/>
      <point x="592" y="1229" type="qcurve" smooth="yes"/>
      <point x="567" y="1227"/>
      <point x="549" y="1219" type="qcurve"/>
      <point x="465" y="1178"/>
    </contour>
  </outline>
</glyph>
<glyph name="mwa-ethi" format="2">
  <advance width="2048"/>
  <unicode hex="121F"/>
  <outline>
    <contour>
      <point x="1870" y="41" type="qcurve"/>
      <point x="1841" y="-6"/>
      <point x="1841" y="-59" type="qcurve" smooth="yes"/>
      <point x="1841" y="-100"/>
      <point x="1882" y="-217"/>
      <point x="1882" y="-229" type="qcurve"/>
      <point x="1839" y="-248"/>
      <point x="1790" y="-248" type="qcurve" smooth="yes"/>
      <point x="1681" y="-248"/>
      <point x="1499" y="-88"/>
      <point x="1495" y="0" type="qcurve"/>
      <point x="975" y="4" type="line"/>
      <point x="942" y="-72"/>
      <point x="881" y="-137" type="qcurve" smooth="yes"/>
      <point x="782" y="-242"/>
      <point x="659" y="-242" type="qcurve" smooth="yes"/>
      <point x="606" y="-242"/>
      <point x="551" y="-221" type="qcurve"/>
      <point x="635" y="-113"/>
      <point x="635" y="8" type="qcurve" smooth="yes"/>
      <point x="635" y="25"/>
      <point x="633" y="39" type="qcurve"/>
      <point x="1094" y="39"/>
      <point x="1094" y="41" type="qcurve"/>
      <point x="1092" y="57"/>
      <point x="1092" y="78" type="qcurve" smooth="yes"/>
      <point x="1092" y="205"/>
      <point x="1184" y="414" type="qcurve" smooth="yes"/>
      <point x="1360" y="815" type="line"/>
      <point x="1341" y="821"/>
      <point x="1315" y="848"/>
      <point x="1303" y="848" type="qcurve" smooth="yes"/>
      <point x="1257" y="848"/>
      <point x="1120" y="827"/>
      <point x="1098" y="827" type="qcurve" smooth="yes"/>
      <point x="1038" y="827"/>
      <point x="1006" y="872" type="qcurve" smooth="yes"/>
      <point x="967" y="926"/>
      <point x="977" y="1034" type="qcurve"/>
      <point x="989" y="1120"/>
      <point x="1004" y="1204" type="qcurve"/>
      <point x="1010" y="1286"/>
      <point x="965" y="1290" type="qcurve"/>
      <point x="879" y="1300"/>
      <point x="852" y="1251" type="qcurve"/>
      <point x="838" y="1190"/>
      <point x="823" y="1126" type="qcurve"/>
      <point x="823" y="1120"/>
      <point x="801" y="979" type="qcurve" smooth="yes"/>
      <point x="786" y="895"/>
      <point x="754" y="834" type="qcurve" smooth="yes"/>
      <point x="719" y="766"/>
      <point x="569" y="758" type="qcurve"/>
      <point x="475" y="756"/>
      <point x="381" y="756" type="qcurve"/>
      <point x="362" y="752"/>
      <point x="238" y="696"/>
      <point x="203" y="696" type="qcurve" smooth="yes"/>
      <point x="145" y="696"/>
      <point x="109" y="754" type="qcurve" smooth="yes"/>
      <point x="68" y="819"/>
      <point x="68" y="899" type="qcurve" smooth="yes"/>
      <point x="68" y="936"/>
      <point x="78" y="967" type="qcurve" smooth="yes"/>
      <point x="129" y="1128"/>
      <point x="166" y="1180" type="qcurve" smooth="yes"/>
      <point x="242" y="1284"/>
      <point x="422" y="1335" type="qcurve"/>
      <point x="475" y="1352"/>
      <point x="545" y="1352" type="qcurve" smooth="yes"/>
      <point x="584" y="1352"/>
      <point x="731" y="1339"/>
      <point x="762" y="1339" type="qcurve"/>
      <point x="1233" y="1341"/>
      <point x="1286" y="1337" type="qcurve"/>
      <point x="1284" y="1298" type="line"/>
      <point x="1300" y="1298"/>
      <point x="1448" y="1337"/>
      <point x="1460" y="1337" type="qcurve"/>
      <point x="1509" y="1348"/>
      <point x="1550" y="1348" type="qcurve" smooth="yes"/>
      <point x="1729" y="1348"/>
      <point x="1743" y="1176" type="qcurve" smooth="yes"/>
      <point x="1755" y="1047"/>
      <point x="1638" y="762" type="qcurve"/>
      <point x="1546" y="545"/>
      <point x="1452" y="328" type="qcurve"/>
      <point x="1386" y="162"/>
      <point x="1384" y="41" type="qcurve"/>
      <point x="1548" y="39"/>
    </contour>
    <contour>
      <point x="1440" y="1053" type="qcurve"/>
      <point x="1456" y="1100"/>
      <point x="1456" y="1155" type="qcurve" smooth="yes"/>
      <point x="1456" y="1241"/>
      <point x="1423" y="1255" type="qcurve"/>
      <point x="1380" y="1276"/>
      <point x="1339" y="1276" type="qcurve" smooth="yes"/>
      <point x="1311" y="1276"/>
      <point x="1290" y="1266" type="qcurve"/>
      <point x="1257" y="1020" type="line"/>
      <point x="1257" y="881"/>
      <point x="1335" y="870" type="qcurve"/>
      <point x="1348" y="870"/>
      <point x="1366" y="868"/>
      <point x="1370" y="870" type="qcurve" smooth="yes"/>
      <point x="1374" y="872"/>
      <point x="1386" y="881" type="qcurve"/>
      <point x="1403" y="928"/>
    </contour>
    <contour>
      <point x="401" y="801" type="qcurve" smooth="yes"/>
      <point x="539" y="801"/>
      <point x="590" y="1292" type="qcurve"/>
      <point x="580" y="1296"/>
      <point x="565" y="1296" type="qcurve" smooth="yes"/>
      <point x="477" y="1296"/>
      <point x="418" y="1180" type="qcurve" smooth="yes"/>
      <point x="332" y="1010"/>
      <point x="332" y="891" type="qcurve" smooth="yes"/>
      <point x="332" y="801"/>
    </contour>
  </outline>
</glyph>
<glyph name="sza-ethi" format="2">
  <advance width="1763"/>
  <unicode hex="1220"/>
  <unicode hex="F057"/>
  <outline>
    <contour>
      <point x="199" y="1047" type="qcurve"/>
      <point x="430" y="1090" type="line" smooth="yes"/>
      <point x="471" y="1098"/>
      <point x="494" y="1098" type="qcurve" smooth="yes"/>
      <point x="549" y="1098"/>
      <point x="549" y="1036" type="qcurve" smooth="yes"/>
      <point x="549" y="989"/>
      <point x="508" y="805" type="qcurve"/>
      <point x="502" y="782"/>
      <point x="444" y="629" type="qcurve" smooth="yes"/>
      <point x="397" y="504"/>
      <point x="397" y="438" type="qcurve" smooth="yes"/>
      <point x="397" y="356"/>
      <point x="469" y="334" type="qcurve" smooth="yes"/>
      <point x="489" y="328"/>
      <point x="510" y="328" type="qcurve" smooth="yes"/>
      <point x="653" y="328"/>
      <point x="756" y="653" type="qcurve" smooth="yes"/>
      <point x="809" y="827"/>
      <point x="809" y="926" type="qcurve" smooth="yes"/>
      <point x="809" y="1028"/>
      <point x="756" y="1071" type="qcurve"/>
      <point x="1024" y="1124" type="line" smooth="yes"/>
      <point x="1042" y="1128"/>
      <point x="1059" y="1128" type="qcurve" smooth="yes"/>
      <point x="1133" y="1128"/>
      <point x="1133" y="1040" type="qcurve" smooth="yes"/>
      <point x="1133" y="1026"/>
      <point x="1130" y="999" type="qcurve" smooth="yes"/>
      <point x="1122" y="913"/>
      <point x="1077" y="672" type="qcurve"/>
      <point x="1184" y="543"/>
      <point x="1251" y="547" type="qcurve" smooth="yes"/>
      <point x="1335" y="553"/>
      <point x="1370" y="645" type="qcurve" smooth="yes"/>
      <point x="1393" y="705"/>
      <point x="1405" y="858" type="qcurve" smooth="yes"/>
      <point x="1415" y="993"/>
      <point x="1362" y="1065" type="qcurve"/>
      <point x="1556" y="1104" type="line" smooth="yes"/>
      <point x="1577" y="1108"/>
      <point x="1593" y="1108" type="qcurve" smooth="yes"/>
      <point x="1698" y="1108"/>
      <point x="1696" y="872" type="qcurve" smooth="yes"/>
      <point x="1692" y="596"/>
      <point x="1483" y="571" type="qcurve" smooth="yes"/>
      <point x="1427" y="565"/>
      <point x="1311" y="524" type="qcurve" smooth="yes"/>
      <point x="1206" y="487"/>
      <point x="1126" y="487" type="qcurve" smooth="yes"/>
      <point x="1067" y="487"/>
      <point x="999" y="504" type="qcurve"/>
      <point x="950" y="440"/>
      <point x="924" y="416" type="qcurve" smooth="yes"/>
      <point x="879" y="375"/>
      <point x="805" y="340" type="qcurve" smooth="yes"/>
      <point x="700" y="293"/>
      <point x="625" y="295" type="qcurve" smooth="yes"/>
      <point x="496" y="297"/>
      <point x="440" y="289"/>
      <point x="352" y="270" type="qcurve" smooth="yes"/>
      <point x="287" y="256"/>
      <point x="250" y="256" type="qcurve" smooth="yes"/>
      <point x="164" y="256"/>
      <point x="127" y="332" type="qcurve" smooth="yes"/>
      <point x="96" y="393"/>
      <point x="96" y="451" type="qcurve" smooth="yes"/>
      <point x="96" y="510"/>
      <point x="168" y="690"/>
      <point x="205" y="782" type="qcurve"/>
      <point x="244" y="889"/>
      <point x="244" y="934" type="qcurve" smooth="yes"/>
      <point x="244" y="995"/>
    </contour>
  </outline>
</glyph>
<glyph name="szi-ethi" format="2">
  <advance width="1567"/>
  <unicode hex="1222"/>
  <outline>
    <contour>
      <point x="1395" y="1233" type="line" smooth="yes"/>
      <point x="1544" y="1249"/>
      <point x="1544" y="1110" type="qcurve" smooth="yes"/>
      <point x="1544" y="1040"/>
      <point x="1507" y="926" type="qcurve" smooth="yes"/>
      <point x="1337" y="387" type="line" smooth="yes"/>
      <point x="1276" y="193"/>
      <point x="1282" y="119" type="qcurve" smooth="yes"/>
      <point x="1288" y="49"/>
      <point x="1331" y="6" type="qcurve"/>
      <point x="1206" y="2" type="line" smooth="yes"/>
      <point x="1044" y="-4"/>
      <point x="1032" y="10" type="qcurve" smooth="yes"/>
      <point x="997" y="51"/>
      <point x="997" y="129" type="qcurve" smooth="yes"/>
      <point x="997" y="219"/>
      <point x="1044" y="369" type="qcurve" smooth="yes"/>
      <point x="1169" y="770" type="line"/>
      <point x="1028" y="780"/>
      <point x="924" y="860" type="qcurve"/>
      <point x="793" y="696"/>
      <point x="537" y="696" type="qcurve" smooth="yes"/>
      <point x="524" y="696"/>
      <point x="426" y="702" type="qcurve"/>
      <point x="406" y="705"/>
      <point x="252" y="662"/>
      <point x="211" y="662" type="qcurve" smooth="yes"/>
      <point x="162" y="662"/>
      <point x="131" y="684" type="qcurve"/>
      <point x="82" y="723"/>
      <point x="82" y="780" type="qcurve" smooth="yes"/>
      <point x="82" y="825"/>
      <point x="168" y="1040"/>
      <point x="168" y="1100" type="qcurve" smooth="yes"/>
      <point x="168" y="1141"/>
      <point x="152" y="1178" type="qcurve"/>
      <point x="299" y="1198" type="line" smooth="yes"/>
      <point x="332" y="1202"/>
      <point x="356" y="1202" type="qcurve" smooth="yes"/>
      <point x="473" y="1202"/>
      <point x="473" y="1114" type="qcurve" smooth="yes"/>
      <point x="473" y="1090"/>
      <point x="463" y="1053" type="qcurve" smooth="yes"/>
      <point x="459" y="1040"/>
      <point x="416" y="922" type="qcurve" smooth="yes"/>
      <point x="385" y="840"/>
      <point x="385" y="801" type="qcurve" smooth="yes"/>
      <point x="385" y="739"/>
      <point x="449" y="737" type="qcurve" smooth="yes"/>
      <point x="555" y="733"/>
      <point x="625" y="807" type="qcurve" smooth="yes"/>
      <point x="709" y="897"/>
      <point x="709" y="1081" type="qcurve" smooth="yes"/>
      <point x="709" y="1137"/>
      <point x="700" y="1200" type="qcurve"/>
      <point x="819" y="1200" type="line" smooth="yes"/>
      <point x="938" y="1200"/>
      <point x="963" y="1192" type="qcurve" smooth="yes"/>
      <point x="995" y="1182"/>
      <point x="995" y="1126" type="qcurve" smooth="yes"/>
      <point x="995" y="1110"/>
      <point x="991" y="1061" type="qcurve" smooth="yes"/>
      <point x="987" y="1001"/>
      <point x="985" y="963" type="qcurve" smooth="yes"/>
      <point x="983" y="918"/>
      <point x="1065" y="862" type="qcurve" smooth="yes"/>
      <point x="1133" y="817"/>
      <point x="1188" y="803" type="qcurve"/>
      <point x="1262" y="1065" type="line"/>
      <point x="1268" y="1133"/>
      <point x="1251" y="1169" type="qcurve" smooth="yes"/>
      <point x="1247" y="1178"/>
      <point x="1219" y="1212" type="qcurve"/>
    </contour>
    <contour>
      <point x="1200" y="29" type="line"/>
      <point x="1538" y="29" type="line"/>
      <point x="1542" y="73"/>
      <point x="1628" y="104" type="qcurve" smooth="yes"/>
      <point x="1706" y="132"/>
      <point x="1794" y="133" type="qcurve" smooth="yes"/>
      <point x="1854" y="133"/>
      <point x="1884" y="119" type="qcurve"/>
      <point x="1854" y="47"/>
      <point x="1854" y="-18" type="qcurve" smooth="yes"/>
      <point x="1854" y="-94"/>
      <point x="1901" y="-182" type="qcurve"/>
      <point x="1837" y="-195"/>
      <point x="1780" y="-195" type="qcurve" smooth="yes"/>
      <point x="1665" y="-195"/>
      <point x="1538" y="-102"/>
      <point x="1538" y="-29" type="qcurve" smooth="yes"/>
      <point x="1538" y="-16"/>
      <point x="1540" y="-2" type="qcurve"/>
      <point x="1188" y="-2" type="line"/>
    </contour>
  </outline>
</glyph>
<glyph name="sze-ethi" format="2">
  <advance width="2222"/>
  <unicode hex="1225"/>
  <outline>
    <contour>
      <point x="1706" y="649" type="qcurve" smooth="yes"/>
      <point x="1786" y="649"/>
      <point x="1843" y="743" type="qcurve" smooth="yes"/>
      <point x="1894" y="831"/>
      <point x="1894" y="940" type="qcurve" smooth="yes"/>
      <point x="1894" y="1047"/>
      <point x="1841" y="1102" type="qcurve"/>
      <point x="2017" y="1102" type="line" smooth="yes"/>
      <point x="2109" y="1102"/>
      <point x="2140" y="1071"/>
      <point x="2140" y="991" type="qcurve" smooth="yes"/>
      <point x="2140" y="850"/>
      <point x="2058" y="748" type="qcurve" smooth="yes"/>
      <point x="1942" y="600"/>
      <point x="1683" y="600" type="qcurve" smooth="yes"/>
      <point x="1548" y="600"/>
      <point x="1450" y="682" type="qcurve"/>
      <point x="1245" y="528"/>
      <point x="1008" y="528" type="qcurve" smooth="yes"/>
      <point x="895" y="528"/>
      <point x="774" y="584" type="qcurve"/>
      <point x="530" y="293" type="line" smooth="yes"/>
      <point x="379" y="113"/>
      <point x="379" y="49" type="qcurve" smooth="yes"/>
      <point x="379" y="25"/>
      <point x="397" y="12" type="qcurve"/>
      <point x="203" y="0" type="line" smooth="yes"/>
      <point x="82" y="-8"/>
      <point x="82" y="57" type="qcurve" smooth="yes"/>
      <point x="82" y="145"/>
      <point x="221" y="317" type="qcurve" smooth="yes"/>
      <point x="639" y="834" type="line" smooth="yes"/>
      <point x="733" y="950"/>
      <point x="733" y="1020" type="qcurve" smooth="yes"/>
      <point x="733" y="1055"/>
      <point x="709" y="1079" type="qcurve"/>
      <point x="717" y="1079"/>
      <point x="903" y="1098" type="qcurve" smooth="yes"/>
      <point x="1022" y="1110"/>
      <point x="1024" y="1026" type="qcurve" smooth="yes"/>
      <point x="1026" y="930"/>
      <point x="985" y="860" type="qcurve"/>
      <point x="934" y="791"/>
      <point x="885" y="721" type="qcurve"/>
      <point x="893" y="578"/>
      <point x="1034" y="573" type="qcurve" smooth="yes"/>
      <point x="1087" y="571"/>
      <point x="1145" y="614" type="qcurve" smooth="yes"/>
      <point x="1210" y="662"/>
      <point x="1253" y="745" type="qcurve" smooth="yes"/>
      <point x="1309" y="850"/>
      <point x="1309" y="956" type="qcurve" smooth="yes"/>
      <point x="1309" y="1032"/>
      <point x="1280" y="1079" type="qcurve"/>
      <point x="1436" y="1079" type="line" smooth="yes"/>
      <point x="1520" y="1079"/>
      <point x="1544" y="1071" type="qcurve"/>
      <point x="1593" y="1057"/>
      <point x="1593" y="1004" type="qcurve" smooth="yes"/>
      <point x="1593" y="991"/>
      <point x="1591" y="975" type="qcurve"/>
      <point x="1571" y="856"/>
      <point x="1546" y="795" type="qcurve"/>
      <point x="1550" y="737"/>
      <point x="1587" y="698" type="qcurve"/>
      <point x="1630" y="649"/>
    </contour>
  </outline>
</glyph>
<glyph name="szo-ethi" format="2">
  <advance width="1602"/>
  <unicode hex="1226"/>
  <outline>
    <contour>
      <point x="1339" y="1251" type="line" smooth="yes"/>
      <point x="1382" y="1260"/>
      <point x="1415" y="1260" type="qcurve" smooth="yes"/>
      <point x="1511" y="1260"/>
      <point x="1518" y="1163" type="qcurve"/>
      <point x="1532" y="997"/>
      <point x="1413" y="868" type="qcurve" smooth="yes"/>
      <point x="1309" y="752"/>
      <point x="1114" y="745" type="qcurve" smooth="yes"/>
      <point x="979" y="741"/>
      <point x="995" y="741" type="qcurve"/>
      <point x="926" y="741"/>
      <point x="881" y="770" type="qcurve"/>
      <point x="563" y="322" type="line" smooth="yes"/>
      <point x="442" y="150"/>
      <point x="442" y="111" type="qcurve" smooth="yes"/>
      <point x="442" y="82"/>
      <point x="471" y="53" type="qcurve"/>
      <point x="342" y="25" type="line" smooth="yes"/>
      <point x="229" y="0"/>
      <point x="201" y="2" type="qcurve"/>
      <point x="133" y="10"/>
      <point x="133" y="63" type="qcurve" smooth="yes"/>
      <point x="133" y="129"/>
      <point x="246" y="295" type="qcurve" smooth="yes"/>
      <point x="498" y="662" type="line"/>
      <point x="479" y="670"/>
      <point x="453" y="670" type="qcurve" smooth="yes"/>
      <point x="416" y="670"/>
      <point x="231" y="618"/>
      <point x="190" y="618" type="qcurve" smooth="yes"/>
      <point x="129" y="618"/>
      <point x="100" y="662" type="qcurve" smooth="yes"/>
      <point x="82" y="690"/>
      <point x="82" y="735" type="qcurve" smooth="yes"/>
      <point x="82" y="788"/>
      <point x="156" y="1024"/>
      <point x="156" y="1069" type="qcurve" smooth="yes"/>
      <point x="156" y="1114"/>
      <point x="133" y="1139" type="qcurve"/>
      <point x="346" y="1171" type="line" smooth="yes"/>
      <point x="375" y="1176"/>
      <point x="395" y="1176" type="qcurve" smooth="yes"/>
      <point x="471" y="1176"/>
      <point x="471" y="1120" type="qcurve" smooth="yes"/>
      <point x="471" y="1090"/>
      <point x="432" y="995" type="qcurve" smooth="yes"/>
      <point x="358" y="813"/>
      <point x="358" y="774" type="qcurve" smooth="yes"/>
      <point x="358" y="709"/>
      <point x="436" y="713" type="qcurve" smooth="yes"/>
      <point x="530" y="719" type="line"/>
      <point x="588" y="799"/>
      <point x="680" y="940" type="qcurve"/>
      <point x="743" y="1047"/>
      <point x="743" y="1077" type="qcurve" smooth="yes"/>
      <point x="743" y="1116"/>
      <point x="711" y="1159" type="qcurve"/>
      <point x="889" y="1200" type="line" smooth="yes"/>
      <point x="975" y="1221"/>
      <point x="1010" y="1190" type="qcurve"/>
      <point x="1038" y="1167"/>
      <point x="1038" y="1128" type="qcurve" smooth="yes"/>
      <point x="1038" y="1092"/>
      <point x="952" y="897"/>
      <point x="958" y="856" type="qcurve"/>
      <point x="965" y="825"/>
      <point x="993" y="801" type="qcurve" smooth="yes"/>
      <point x="1032" y="766"/>
      <point x="1087" y="772" type="qcurve" smooth="yes"/>
      <point x="1169" y="780"/>
      <point x="1214" y="874" type="qcurve" smooth="yes"/>
      <point x="1251" y="956"/>
      <point x="1247" y="1067" type="qcurve" smooth="yes"/>
      <point x="1245" y="1163"/>
      <point x="1206" y="1223" type="qcurve"/>
    </contour>
  </outline>
</glyph>
<glyph name="szwa-ethi" format="2">
  <advance width="1567"/>
  <unicode hex="1227"/>
  <outline>
    <contour>
      <point x="1395" y="1233" type="line" smooth="yes"/>
      <point x="1544" y="1249"/>
      <point x="1544" y="1110" type="qcurve" smooth="yes"/>
      <point x="1544" y="1040"/>
      <point x="1507" y="926" type="qcurve" smooth="yes"/>
      <point x="1337" y="387" type="line" smooth="yes"/>
      <point x="1276" y="193"/>
      <point x="1282" y="119" type="qcurve" smooth="yes"/>
      <point x="1288" y="49"/>
      <point x="1331" y="6" type="qcurve"/>
      <point x="1206" y="2" type="line" smooth="yes"/>
      <point x="1044" y="-4"/>
      <point x="1032" y="10" type="qcurve" smooth="yes"/>
      <point x="997" y="51"/>
      <point x="997" y="129" type="qcurve" smooth="yes"/>
      <point x="997" y="219"/>
      <point x="1044" y="369" type="qcurve" smooth="yes"/>
      <point x="1169" y="770" type="line"/>
      <point x="1028" y="780"/>
      <point x="924" y="860" type="qcurve"/>
      <point x="793" y="696"/>
      <point x="537" y="696" type="qcurve" smooth="yes"/>
      <point x="524" y="696"/>
      <point x="426" y="702" type="qcurve"/>
      <point x="406" y="705"/>
      <point x="252" y="662"/>
      <point x="211" y="662" type="qcurve" smooth="yes"/>
      <point x="162" y="662"/>
      <point x="131" y="684" type="qcurve"/>
      <point x="82" y="723"/>
      <point x="82" y="780" type="qcurve" smooth="yes"/>
      <point x="82" y="825"/>
      <point x="168" y="1040"/>
      <point x="168" y="1100" type="qcurve" smooth="yes"/>
      <point x="168" y="1141"/>
      <point x="152" y="1178" type="qcurve"/>
      <point x="299" y="1198" type="line" smooth="yes"/>
      <point x="332" y="1202"/>
      <point x="356" y="1202" type="qcurve" smooth="yes"/>
      <point x="473" y="1202"/>
      <point x="473" y="1114" type="qcurve" smooth="yes"/>
      <point x="473" y="1090"/>
      <point x="463" y="1053" type="qcurve" smooth="yes"/>
      <point x="459" y="1040"/>
      <point x="416" y="922" type="qcurve" smooth="yes"/>
      <point x="385" y="840"/>
      <point x="385" y="801" type="qcurve" smooth="yes"/>
      <point x="385" y="739"/>
      <point x="449" y="737" type="qcurve" smooth="yes"/>
      <point x="555" y="733"/>
      <point x="625" y="807" type="qcurve" smooth="yes"/>
      <point x="709" y="897"/>
      <point x="709" y="1081" type="qcurve" smooth="yes"/>
      <point x="709" y="1137"/>
      <point x="700" y="1200" type="qcurve"/>
      <point x="819" y="1200" type="line" smooth="yes"/>
      <point x="938" y="1200"/>
      <point x="963" y="1192" type="qcurve" smooth="yes"/>
      <point x="995" y="1182"/>
      <point x="995" y="1126" type="qcurve" smooth="yes"/>
      <point x="995" y="1110"/>
      <point x="991" y="1061" type="qcurve" smooth="yes"/>
      <point x="987" y="1001"/>
      <point x="985" y="963" type="qcurve" smooth="yes"/>
      <point x="983" y="918"/>
      <point x="1065" y="862" type="qcurve" smooth="yes"/>
      <point x="1133" y="817"/>
      <point x="1188" y="803" type="qcurve"/>
      <point x="1262" y="1065" type="line"/>
      <point x="1268" y="1133"/>
      <point x="1251" y="1169" type="qcurve" smooth="yes"/>
      <point x="1247" y="1178"/>
      <point x="1219" y="1212" type="qcurve"/>
    </contour>
    <contour>
      <point x="1693" y="20" type="line"/>
      <point x="1658" y="-59"/>
      <point x="1658" y="-131" type="qcurve" smooth="yes"/>
      <point x="1658" y="-238"/>
      <point x="1725" y="-303" type="qcurve"/>
      <point x="1715" y="-302"/>
      <point x="1656" y="-307" type="qcurve" smooth="yes"/>
      <point x="1611" y="-311"/>
      <point x="1580" y="-311" type="qcurve" smooth="yes"/>
      <point x="1363" y="-312"/>
      <point x="1363" y="-113" type="qcurve" smooth="yes"/>
      <point x="1363" y="-70"/>
      <point x="1371" y="-18" type="qcurve"/>
      <point x="916" y="-18" type="line"/>
      <point x="920" y="-41"/>
      <point x="920" y="-61" type="qcurve" smooth="yes"/>
      <point x="920" y="-180"/>
      <point x="818" y="-250" type="qcurve" smooth="yes"/>
      <point x="736" y="-305"/>
      <point x="640" y="-305" type="qcurve" smooth="yes"/>
      <point x="607" y="-305"/>
      <point x="589" y="-297" type="qcurve"/>
      <point x="592" y="-285"/>
      <point x="624" y="-217" type="qcurve" smooth="yes"/>
      <point x="652" y="-156"/>
      <point x="652" y="-111" type="qcurve" smooth="yes"/>
      <point x="651" y="-43"/>
      <point x="597" y="20" type="qcurve"/>
    </contour>
  </outline>
</glyph>
<glyph name="ra-ethi" format="2">
  <advance width="1237"/>
  <unicode hex="1228"/>
  <unicode hex="F05B"/>
  <outline>
    <contour>
      <point x="647" y="127" type="qcurve" smooth="yes"/>
      <point x="743" y="172" type="line"/>
      <point x="793" y="348"/>
      <point x="995" y="348" type="qcurve" smooth="yes"/>
      <point x="1018" y="348"/>
      <point x="1090" y="344"/>
      <point x="1098" y="344" type="qcurve"/>
      <point x="1063" y="281"/>
      <point x="1063" y="217" type="qcurve" smooth="yes"/>
      <point x="1063" y="115"/>
      <point x="1155" y="47" type="qcurve"/>
      <point x="1032" y="-2"/>
      <point x="932" y="-2" type="qcurve" smooth="yes"/>
      <point x="807" y="-2"/>
      <point x="778" y="88" type="qcurve"/>
      <point x="659" y="88" type="line"/>
      <point x="477" y="4"/>
      <point x="371" y="4" type="qcurve" smooth="yes"/>
      <point x="266" y="4"/>
      <point x="190" y="66" type="qcurve"/>
      <point x="78" y="162"/>
      <point x="78" y="295" type="qcurve" smooth="yes"/>
      <point x="78" y="446"/>
      <point x="217" y="602" type="qcurve"/>
      <point x="307" y="676"/>
      <point x="498" y="840" type="qcurve"/>
      <point x="741" y="1055"/>
      <point x="741" y="1196" type="qcurve" smooth="yes"/>
      <point x="741" y="1245"/>
      <point x="707" y="1280" type="qcurve"/>
      <point x="895" y="1305" type="line" smooth="yes"/>
      <point x="932" y="1309"/>
      <point x="958" y="1309" type="qcurve" smooth="yes"/>
      <point x="1016" y="1309"/>
      <point x="1028" y="1282" type="qcurve"/>
      <point x="1032" y="1276"/>
      <point x="1032" y="1223" type="qcurve"/>
      <point x="1036" y="1038"/>
      <point x="674" y="741" type="qcurve" smooth="yes"/>
      <point x="569" y="655"/>
      <point x="483" y="537" type="qcurve" smooth="yes"/>
      <point x="371" y="383"/>
      <point x="371" y="270" type="qcurve" smooth="yes"/>
      <point x="371" y="229"/>
      <point x="385" y="197" type="qcurve" smooth="yes"/>
      <point x="426" y="100"/>
      <point x="535" y="100" type="qcurve" smooth="yes"/>
      <point x="592" y="100"/>
    </contour>
  </outline>
</glyph>
<glyph name="ru-ethi" format="2">
  <advance width="1462"/>
  <unicode hex="1229"/>
  <unicode hex="F05C"/>
  <outline>
    <contour>
      <point x="834" y="1276" type="qcurve"/>
      <point x="874" y="1241"/>
      <point x="874" y="1204" type="qcurve" smooth="yes"/>
      <point x="874" y="1143"/>
      <point x="750" y="1049" type="qcurve"/>
      <point x="635" y="958"/>
      <point x="518" y="870" type="qcurve"/>
      <point x="395" y="758"/>
      <point x="395" y="657" type="qcurve" smooth="yes"/>
      <point x="395" y="629"/>
      <point x="403" y="602" type="qcurve" smooth="yes"/>
      <point x="420" y="549"/>
      <point x="541" y="549" type="qcurve" smooth="yes"/>
      <point x="700" y="549"/>
      <point x="1323" y="639" type="qcurve"/>
      <point x="1315" y="592"/>
      <point x="1315" y="549" type="qcurve" smooth="yes"/>
      <point x="1315" y="397"/>
      <point x="1409" y="328" type="qcurve"/>
      <point x="1329" y="303"/>
      <point x="1253" y="303" type="qcurve" smooth="yes"/>
      <point x="1128" y="303"/>
      <point x="977" y="434"/>
      <point x="991" y="553" type="qcurve"/>
      <point x="977" y="553"/>
      <point x="813" y="537" type="qcurve"/>
      <point x="803" y="461"/>
      <point x="774" y="268" type="qcurve" smooth="yes"/>
      <point x="756" y="150"/>
      <point x="756" y="102" type="qcurve" smooth="yes"/>
      <point x="756" y="4"/>
      <point x="846" y="-8" type="qcurve"/>
      <point x="498" y="-8"/>
      <point x="471" y="37"/>
      <point x="471" y="115" type="qcurve" smooth="yes"/>
      <point x="471" y="258"/>
      <point x="512" y="508" type="qcurve"/>
      <point x="449" y="483"/>
      <point x="338" y="483" type="qcurve" smooth="yes"/>
      <point x="82" y="483"/>
      <point x="82" y="659" type="qcurve" smooth="yes"/>
      <point x="82" y="682"/>
      <point x="86" y="707" type="qcurve" smooth="yes"/>
      <point x="106" y="821"/>
      <point x="231" y="905" type="qcurve"/>
      <point x="340" y="967"/>
      <point x="563" y="1094"/>
      <point x="563" y="1165" type="qcurve" smooth="yes"/>
      <point x="563" y="1214"/>
      <point x="520" y="1276" type="qcurve"/>
      <point x="834" y="1276"/>
    </contour>
  </outline>
</glyph>
<glyph name="ri-ethi" format="2">
  <advance width="1245"/>
  <unicode hex="122A"/>
  <outline>
    <contour>
      <point x="879" y="1309" type="line" smooth="yes"/>
      <point x="938" y="1325"/>
      <point x="981" y="1325" type="qcurve" smooth="yes"/>
      <point x="1071" y="1325"/>
      <point x="1071" y="1249" type="qcurve" smooth="yes"/>
      <point x="1071" y="1186"/>
      <point x="1006" y="1077" type="qcurve" smooth="yes"/>
      <point x="954" y="991"/>
      <point x="778" y="836" type="qcurve"/>
      <point x="582" y="657"/>
      <point x="514" y="573" type="qcurve" smooth="yes"/>
      <point x="387" y="416"/>
      <point x="393" y="268" type="qcurve" smooth="yes"/>
      <point x="401" y="86"/>
      <point x="539" y="86" type="qcurve" smooth="yes"/>
      <point x="578" y="86"/>
      <point x="627" y="100" type="qcurve" smooth="yes"/>
      <point x="702" y="121"/>
      <point x="770" y="186" type="qcurve" smooth="yes"/>
      <point x="852" y="262"/>
      <point x="852" y="348" type="qcurve" smooth="yes"/>
      <point x="852" y="412"/>
      <point x="801" y="475" type="qcurve"/>
      <point x="940" y="524" type="line" smooth="yes"/>
      <point x="997" y="545"/>
      <point x="1042" y="545" type="qcurve" smooth="yes"/>
      <point x="1163" y="545"/>
      <point x="1163" y="418" type="qcurve" smooth="yes"/>
      <point x="1163" y="389"/>
      <point x="1157" y="356" type="qcurve" smooth="yes"/>
      <point x="1141" y="266"/>
      <point x="1028" y="205" type="qcurve" smooth="yes"/>
      <point x="946" y="160"/>
      <point x="721" y="88" type="qcurve" smooth="yes"/>
      <point x="455" y="4"/>
      <point x="342" y="4" type="qcurve" smooth="yes"/>
      <point x="102" y="4"/>
      <point x="84" y="252" type="qcurve" smooth="yes"/>
      <point x="82" y="279"/>
      <point x="82" y="301" type="qcurve" smooth="yes"/>
      <point x="82" y="418"/>
      <point x="223" y="614"/>
      <point x="428" y="778" type="qcurve" smooth="yes"/>
      <point x="537" y="864"/>
      <point x="639" y="983" type="qcurve" smooth="yes"/>
      <point x="772" y="1135"/>
      <point x="772" y="1210" type="qcurve" smooth="yes"/>
      <point x="772" y="1253"/>
      <point x="727" y="1268" type="qcurve"/>
    </contour>
  </outline>
</glyph>
<glyph name="raa-ethi" format="2">
  <advance width="1694"/>
  <unicode hex="122B"/>
  <outline>
    <contour>
      <point x="1065" y="1272" type="qcurve" smooth="yes"/>
      <point x="1071" y="1247"/>
      <point x="1071" y="1223" type="qcurve" smooth="yes"/>
      <point x="1071" y="1098"/>
      <point x="905" y="930" type="qcurve"/>
      <point x="776" y="811"/>
      <point x="647" y="692" type="qcurve"/>
      <point x="403" y="436"/>
      <point x="403" y="233" type="qcurve" smooth="yes"/>
      <point x="403" y="68"/>
      <point x="567" y="68" type="qcurve" smooth="yes"/>
      <point x="621" y="68"/>
      <point x="684" y="88" type="qcurve"/>
      <point x="668" y="381"/>
      <point x="885" y="494" type="qcurve" smooth="yes"/>
      <point x="1049" y="580"/>
      <point x="1554" y="633" type="qcurve"/>
      <point x="1542" y="606"/>
      <point x="1542" y="569" type="qcurve" smooth="yes"/>
      <point x="1542" y="477"/>
      <point x="1612" y="356" type="qcurve"/>
      <point x="1548" y="342"/>
      <point x="1487" y="342" type="qcurve" smooth="yes"/>
      <point x="1253" y="342"/>
      <point x="1253" y="522" type="qcurve" smooth="yes"/>
      <point x="1253" y="543"/>
      <point x="1257" y="565" type="qcurve"/>
      <point x="1090" y="549"/>
      <point x="1036" y="449" type="qcurve" smooth="yes"/>
      <point x="993" y="371"/>
      <point x="993" y="156" type="qcurve"/>
      <point x="840" y="102"/>
      <point x="686" y="49" type="qcurve"/>
      <point x="485" y="-14"/>
      <point x="358" y="-14" type="qcurve" smooth="yes"/>
      <point x="82" y="-14"/>
      <point x="82" y="285" type="qcurve" smooth="yes"/>
      <point x="82" y="422"/>
      <point x="260" y="596" type="qcurve"/>
      <point x="424" y="741"/>
      <point x="590" y="885" type="qcurve"/>
      <point x="766" y="1051"/>
      <point x="766" y="1165" type="qcurve" smooth="yes"/>
      <point x="766" y="1210"/>
      <point x="743" y="1253" type="qcurve"/>
      <point x="883" y="1296" type="line"/>
      <point x="913" y="1307"/>
      <point x="969" y="1307" type="qcurve" smooth="yes"/>
      <point x="1057" y="1307"/>
    </contour>
  </outline>
</glyph>
<glyph name="ree-ethi" format="2">
  <advance width="1497"/>
  <unicode hex="122C"/>
  <outline>
    <contour>
      <point x="895" y="1292" type="line" smooth="yes"/>
      <point x="936" y="1303"/>
      <point x="965" y="1303" type="qcurve" smooth="yes"/>
      <point x="1034" y="1303"/>
      <point x="1034" y="1241" type="qcurve" smooth="yes"/>
      <point x="1034" y="1235"/>
      <point x="1034" y="1225" type="qcurve"/>
      <point x="1032" y="1212"/>
      <point x="1032" y="1210" type="qcurve"/>
      <point x="1028" y="1069"/>
      <point x="643" y="717" type="qcurve" smooth="yes"/>
      <point x="551" y="633"/>
      <point x="481" y="522" type="qcurve" smooth="yes"/>
      <point x="389" y="381"/>
      <point x="389" y="270" type="qcurve" smooth="yes"/>
      <point x="389" y="223"/>
      <point x="406" y="184" type="qcurve" smooth="yes"/>
      <point x="440" y="106"/>
      <point x="561" y="106" type="qcurve" smooth="yes"/>
      <point x="606" y="106"/>
      <point x="651" y="117" type="qcurve"/>
      <point x="621" y="256"/>
      <point x="621" y="293" type="qcurve" smooth="yes"/>
      <point x="621" y="369"/>
      <point x="676" y="424" type="qcurve" smooth="yes"/>
      <point x="723" y="471"/>
      <point x="809" y="489" type="qcurve"/>
      <point x="846" y="496"/>
      <point x="979" y="508" type="qcurve" smooth="yes"/>
      <point x="1020" y="512"/>
      <point x="1128" y="537" type="qcurve" smooth="yes"/>
      <point x="1225" y="557"/>
      <point x="1272" y="557" type="qcurve" smooth="yes"/>
      <point x="1389" y="557"/>
      <point x="1407" y="444" type="qcurve"/>
      <point x="1415" y="403"/>
      <point x="1415" y="369" type="qcurve" smooth="yes"/>
      <point x="1415" y="246"/>
      <point x="1329" y="184" type="qcurve" smooth="yes"/>
      <point x="1268" y="141"/>
      <point x="1161" y="129" type="qcurve" smooth="yes"/>
      <point x="1098" y="123"/>
      <point x="1034" y="119" type="qcurve"/>
      <point x="842" y="76"/>
      <point x="823" y="76" type="qcurve" smooth="yes"/>
      <point x="799" y="76"/>
      <point x="705" y="82" type="qcurve" smooth="yes"/>
      <point x="657" y="84"/>
      <point x="403" y="2"/>
      <point x="336" y="2" type="qcurve" smooth="yes"/>
      <point x="252" y="2"/>
      <point x="190" y="53" type="qcurve" smooth="yes"/>
      <point x="82" y="145"/>
      <point x="82" y="270" type="qcurve" smooth="yes"/>
      <point x="82" y="410"/>
      <point x="217" y="590" type="qcurve"/>
      <point x="242" y="621"/>
      <point x="602" y="938"/>
      <point x="672" y="1030" type="qcurve" smooth="yes"/>
      <point x="776" y="1171"/>
      <point x="705" y="1245" type="qcurve"/>
    </contour>
    <contour>
      <point x="1042" y="150" type="qcurve"/>
      <point x="1139" y="160"/>
      <point x="1139" y="301" type="qcurve" smooth="yes"/>
      <point x="1139" y="379"/>
      <point x="1063" y="498"/>
      <point x="999" y="487" type="qcurve" smooth="yes"/>
      <point x="897" y="471"/>
      <point x="897" y="336" type="qcurve" smooth="yes"/>
      <point x="897" y="258"/>
      <point x="936" y="203" type="qcurve" smooth="yes"/>
      <point x="979" y="141"/>
    </contour>
  </outline>
</glyph>
<glyph name="re-ethi" format="2">
  <advance width="1370"/>
  <unicode hex="122D"/>
  <unicode hex="F060"/>
  <outline>
    <contour>
      <point x="856" y="1307" type="qcurve" smooth="yes"/>
      <point x="1212" y="1331" type="line"/>
      <point x="1210" y="1309"/>
      <point x="1210" y="1286" type="qcurve" smooth="yes"/>
      <point x="1210" y="1147"/>
      <point x="1288" y="1024" type="qcurve"/>
      <point x="1055" y="1024"/>
      <point x="993" y="1044" type="qcurve" smooth="yes"/>
      <point x="881" y="1081"/>
      <point x="881" y="1219" type="qcurve" smooth="yes"/>
      <point x="881" y="1245"/>
      <point x="885" y="1274" type="qcurve"/>
      <point x="672" y="1270"/>
      <point x="563" y="1147" type="qcurve" smooth="yes"/>
      <point x="465" y="1038"/>
      <point x="375" y="563"/>
      <point x="375" y="393" type="qcurve" smooth="yes"/>
      <point x="375" y="219"/>
      <point x="422" y="180" type="qcurve" smooth="yes"/>
      <point x="489" y="125"/>
      <point x="580" y="125" type="qcurve" smooth="yes"/>
      <point x="657" y="125"/>
      <point x="752" y="166" type="qcurve"/>
      <point x="807" y="375"/>
      <point x="1126" y="358" type="qcurve"/>
      <point x="1083" y="293"/>
      <point x="1083" y="223" type="qcurve" smooth="yes"/>
      <point x="1083" y="121"/>
      <point x="1167" y="35" type="qcurve"/>
      <point x="1038" y="-16"/>
      <point x="987" y="-16" type="qcurve" smooth="yes"/>
      <point x="952" y="-16"/>
      <point x="877" y="6"/>
      <point x="803" y="68" type="qcurve"/>
      <point x="743" y="121"/>
      <point x="694" y="115" type="qcurve" smooth="yes"/>
      <point x="662" y="111"/>
      <point x="510" y="82" type="qcurve" smooth="yes"/>
      <point x="385" y="57"/>
      <point x="313" y="57" type="qcurve" smooth="yes"/>
      <point x="164" y="57"/>
      <point x="115" y="156" type="qcurve" smooth="yes"/>
      <point x="82" y="221"/>
      <point x="82" y="356" type="qcurve" smooth="yes"/>
      <point x="82" y="528"/>
      <point x="139" y="844" type="qcurve" smooth="yes"/>
      <point x="186" y="1110"/>
      <point x="418" y="1217" type="qcurve"/>
      <point x="563" y="1286"/>
    </contour>
  </outline>
</glyph>
<glyph name="ro-ethi" format="2">
  <advance width="1550"/>
  <unicode hex="122E"/>
  <outline>
    <contour>
      <point x="1092" y="1331" type="qcurve" smooth="yes"/>
      <point x="1151" y="1337"/>
      <point x="1200" y="1337" type="qcurve" smooth="yes"/>
      <point x="1376" y="1337"/>
      <point x="1436" y="1255" type="qcurve"/>
      <point x="1468" y="1208"/>
      <point x="1468" y="1108" type="qcurve"/>
      <point x="1466" y="1004"/>
      <point x="1401" y="952" type="qcurve" smooth="yes"/>
      <point x="1354" y="915"/>
      <point x="1255" y="901" type="qcurve" smooth="yes"/>
      <point x="1182" y="891"/>
      <point x="1108" y="881" type="qcurve"/>
      <point x="1090" y="877"/>
      <point x="997" y="846" type="qcurve" smooth="yes"/>
      <point x="928" y="823"/>
      <point x="885" y="823" type="qcurve" smooth="yes"/>
      <point x="854" y="823"/>
      <point x="829" y="834" type="qcurve"/>
      <point x="690" y="887"/>
      <point x="690" y="1061" type="qcurve" smooth="yes"/>
      <point x="690" y="1104"/>
      <point x="700" y="1151" type="qcurve"/>
      <point x="535" y="1167"/>
      <point x="463" y="993" type="qcurve" smooth="yes"/>
      <point x="420" y="889"/>
      <point x="395" y="631" type="qcurve" smooth="yes"/>
      <point x="383" y="512"/>
      <point x="383" y="428" type="qcurve" smooth="yes"/>
      <point x="383" y="193"/>
      <point x="467" y="125" type="qcurve" smooth="yes"/>
      <point x="508" y="92"/>
      <point x="584" y="92" type="qcurve" smooth="yes"/>
      <point x="709" y="92"/>
      <point x="776" y="147" type="qcurve"/>
      <point x="778" y="150"/>
      <point x="827" y="229" type="qcurve" smooth="yes"/>
      <point x="852" y="270"/>
      <point x="907" y="291" type="qcurve"/>
      <point x="979" y="315"/>
      <point x="1143" y="324" type="qcurve"/>
      <point x="1102" y="260"/>
      <point x="1102" y="195" type="qcurve" smooth="yes"/>
      <point x="1102" y="92"/>
      <point x="1190" y="10" type="qcurve"/>
      <point x="1094" y="-20"/>
      <point x="1022" y="-20" type="qcurve" smooth="yes"/>
      <point x="936" y="-20"/>
      <point x="780" y="94"/>
      <point x="731" y="88" type="qcurve" smooth="yes"/>
      <point x="690" y="84"/>
      <point x="530" y="49" type="qcurve" smooth="yes"/>
      <point x="395" y="18"/>
      <point x="322" y="18" type="qcurve" smooth="yes"/>
      <point x="145" y="18"/>
      <point x="109" y="168" type="qcurve" smooth="yes"/>
      <point x="82" y="274"/>
      <point x="82" y="463" type="qcurve" smooth="yes"/>
      <point x="82" y="829"/>
      <point x="178" y="958" type="qcurve" smooth="yes"/>
      <point x="346" y="1186"/>
      <point x="635" y="1186" type="qcurve" smooth="yes"/>
      <point x="643" y="1186"/>
      <point x="666" y="1186"/>
      <point x="672" y="1186" type="qcurve" smooth="yes"/>
      <point x="702" y="1186"/>
      <point x="709" y="1192" type="qcurve"/>
      <point x="760" y="1257"/>
      <point x="786" y="1270" type="qcurve" smooth="yes"/>
      <point x="858" y="1307"/>
    </contour>
    <contour>
      <point x="1130" y="913" type="qcurve" smooth="yes"/>
      <point x="1206" y="934"/>
      <point x="1206" y="1100" type="qcurve" smooth="yes"/>
      <point x="1206" y="1182"/>
      <point x="1157" y="1303"/>
      <point x="1116" y="1303" type="qcurve" smooth="yes"/>
      <point x="1106" y="1303"/>
      <point x="1096" y="1298" type="qcurve"/>
      <point x="979" y="1255"/>
      <point x="979" y="1096" type="qcurve" smooth="yes"/>
      <point x="979" y="1020"/>
      <point x="1044" y="909"/>
      <point x="1102" y="909" type="qcurve" smooth="yes"/>
      <point x="1114" y="909"/>
    </contour>
  </outline>
</glyph>
<glyph name="rwa-ethi" format="2">
  <advance width="1755"/>
  <unicode hex="122F"/>
  <outline>
    <contour>
      <point x="1130" y="1126" type="line"/>
      <point x="1135" y="1106"/>
      <point x="1135" y="1085" type="qcurve" smooth="yes"/>
      <point x="1135" y="963"/>
      <point x="995" y="840" type="qcurve"/>
      <point x="868" y="745"/>
      <point x="739" y="651" type="qcurve" smooth="yes"/>
      <point x="602" y="549"/>
      <point x="416" y="305"/>
      <point x="406" y="209" type="qcurve" smooth="yes"/>
      <point x="389" y="47"/>
      <point x="532" y="47" type="qcurve" smooth="yes"/>
      <point x="598" y="47"/>
      <point x="684" y="88" type="qcurve"/>
      <point x="705" y="446"/>
      <point x="1237" y="453" type="qcurve" smooth="yes"/>
      <point x="1573" y="457" type="line"/>
      <point x="1559" y="426"/>
      <point x="1559" y="387" type="qcurve" smooth="yes"/>
      <point x="1559" y="299"/>
      <point x="1618" y="193" type="qcurve"/>
      <point x="1559" y="178"/>
      <point x="1499" y="178" type="qcurve" smooth="yes"/>
      <point x="1262" y="178"/>
      <point x="1262" y="365" type="qcurve" smooth="yes"/>
      <point x="1262" y="385"/>
      <point x="1264" y="408" type="qcurve"/>
      <point x="1108" y="406"/>
      <point x="1008" y="281"/>
      <point x="965" y="47" type="qcurve"/>
      <point x="614" y="16" type="line" smooth="yes"/>
      <point x="575" y="12"/>
      <point x="451" y="-6" type="qcurve" smooth="yes"/>
      <point x="350" y="-23"/>
      <point x="297" y="-23" type="qcurve" smooth="yes"/>
      <point x="74" y="-23"/>
      <point x="82" y="254" type="qcurve" smooth="yes"/>
      <point x="86" y="397"/>
      <point x="283" y="557" type="qcurve"/>
      <point x="463" y="686"/>
      <point x="643" y="817" type="qcurve" smooth="yes"/>
      <point x="836" y="961"/>
      <point x="836" y="1063" type="qcurve" smooth="yes"/>
      <point x="836" y="1092"/>
      <point x="821" y="1120" type="qcurve"/>
      <point x="385" y="1116" type="line"/>
      <point x="424" y="1204"/>
      <point x="424" y="1274" type="qcurve" smooth="yes"/>
      <point x="424" y="1362"/>
      <point x="371" y="1403" type="qcurve"/>
      <point x="510" y="1409"/>
      <point x="575" y="1376" type="qcurve" smooth="yes"/>
      <point x="680" y="1323"/>
      <point x="725" y="1155" type="qcurve"/>
      <point x="1315" y="1155" type="line"/>
      <point x="1337" y="1303"/>
      <point x="1419" y="1352" type="qcurve" smooth="yes"/>
      <point x="1491" y="1393"/>
      <point x="1673" y="1391" type="qcurve"/>
      <point x="1649" y="1350"/>
      <point x="1624" y="1309" type="qcurve"/>
      <point x="1595" y="1251"/>
      <point x="1595" y="1198" type="qcurve" smooth="yes"/>
      <point x="1595" y="1161"/>
      <point x="1610" y="1122" type="qcurve"/>
    </contour>
  </outline>
</glyph>
<glyph name="sa-ethi" format="2">
  <advance width="1206"/>
  <unicode hex="1230"/>
  <unicode hex="F063"/>
  <outline>
    <contour>
      <point x="770" y="1128" type="qcurve"/>
      <point x="930" y="1128"/>
      <point x="1010" y="1040" type="qcurve" smooth="yes"/>
      <point x="1079" y="961"/>
      <point x="1075" y="821" type="qcurve" smooth="yes"/>
      <point x="1057" y="190" type="line" smooth="yes"/>
      <point x="1055" y="82"/>
      <point x="1124" y="0" type="qcurve"/>
      <point x="905" y="0" type="line" smooth="yes"/>
      <point x="819" y="0"/>
      <point x="801" y="23" type="qcurve"/>
      <point x="772" y="53"/>
      <point x="772" y="188" type="qcurve" smooth="yes"/>
      <point x="772" y="250"/>
      <point x="776" y="373" type="qcurve" smooth="yes"/>
      <point x="793" y="805" type="line"/>
      <point x="799" y="930"/>
      <point x="684" y="1075"/>
      <point x="600" y="1075" type="qcurve" smooth="yes"/>
      <point x="469" y="1075"/>
      <point x="410" y="940" type="qcurve" smooth="yes"/>
      <point x="371" y="850"/>
      <point x="360" y="672" type="qcurve" smooth="yes"/>
      <point x="356" y="596"/>
      <point x="356" y="119" type="qcurve" smooth="yes"/>
      <point x="356" y="76"/>
      <point x="379" y="45" type="qcurve" smooth="yes"/>
      <point x="395" y="23"/>
      <point x="412" y="-2" type="qcurve"/>
      <point x="377" y="-4"/>
      <point x="340" y="-4" type="qcurve"/>
      <point x="242" y="-6"/>
      <point x="231" y="-6" type="qcurve" smooth="yes"/>
      <point x="123" y="-6"/>
      <point x="100" y="53" type="qcurve" smooth="yes"/>
      <point x="80" y="106"/>
      <point x="82" y="356" type="qcurve" smooth="yes"/>
      <point x="84" y="492"/>
      <point x="88" y="555" type="qcurve" smooth="yes"/>
      <point x="94" y="676"/>
      <point x="115" y="778" type="qcurve" smooth="yes"/>
      <point x="162" y="1010"/>
      <point x="506" y="1118" type="qcurve"/>
      <point x="506" y="1309"/>
      <point x="506" y="1327" type="qcurve"/>
      <point x="500" y="1386"/>
      <point x="469" y="1419" type="qcurve"/>
      <point x="498" y="1419"/>
      <point x="618" y="1421" type="qcurve" smooth="yes"/>
      <point x="711" y="1423"/>
      <point x="731" y="1415" type="qcurve" smooth="yes"/>
      <point x="762" y="1403"/>
      <point x="768" y="1341" type="qcurve"/>
      <point x="770" y="1309"/>
    </contour>
  </outline>
</glyph>
<glyph name="su-ethi" format="2">
  <advance width="1206"/>
  <unicode hex="1231"/>
  <outline>
    <contour>
      <point x="770" y="1128" type="qcurve"/>
      <point x="930" y="1128"/>
      <point x="1010" y="1040" type="qcurve" smooth="yes"/>
      <point x="1079" y="961"/>
      <point x="1075" y="821" type="qcurve" smooth="yes"/>
      <point x="1057" y="190" type="line" smooth="yes"/>
      <point x="1055" y="82"/>
      <point x="1124" y="0" type="qcurve"/>
      <point x="905" y="0" type="line" smooth="yes"/>
      <point x="819" y="0"/>
      <point x="801" y="23" type="qcurve"/>
      <point x="772" y="53"/>
      <point x="772" y="188" type="qcurve" smooth="yes"/>
      <point x="772" y="250"/>
      <point x="776" y="373" type="qcurve" smooth="yes"/>
      <point x="793" y="805" type="line"/>
      <point x="799" y="930"/>
      <point x="684" y="1075"/>
      <point x="600" y="1075" type="qcurve" smooth="yes"/>
      <point x="469" y="1075"/>
      <point x="410" y="940" type="qcurve" smooth="yes"/>
      <point x="371" y="850"/>
      <point x="360" y="672" type="qcurve" smooth="yes"/>
      <point x="356" y="596"/>
      <point x="356" y="119" type="qcurve" smooth="yes"/>
      <point x="356" y="76"/>
      <point x="379" y="45" type="qcurve" smooth="yes"/>
      <point x="395" y="23"/>
      <point x="412" y="-2" type="qcurve"/>
      <point x="377" y="-4"/>
      <point x="340" y="-4" type="qcurve"/>
      <point x="242" y="-6"/>
      <point x="231" y="-6" type="qcurve" smooth="yes"/>
      <point x="123" y="-6"/>
      <point x="100" y="53" type="qcurve" smooth="yes"/>
      <point x="80" y="106"/>
      <point x="82" y="356" type="qcurve" smooth="yes"/>
      <point x="84" y="492"/>
      <point x="88" y="555" type="qcurve" smooth="yes"/>
      <point x="94" y="676"/>
      <point x="115" y="778" type="qcurve" smooth="yes"/>
      <point x="162" y="1010"/>
      <point x="506" y="1118" type="qcurve"/>
      <point x="506" y="1309"/>
      <point x="506" y="1327" type="qcurve"/>
      <point x="500" y="1386"/>
      <point x="469" y="1419" type="qcurve"/>
      <point x="498" y="1419"/>
      <point x="618" y="1421" type="qcurve" smooth="yes"/>
      <point x="711" y="1423"/>
      <point x="731" y="1415" type="qcurve" smooth="yes"/>
      <point x="762" y="1403"/>
      <point x="768" y="1341" type="qcurve"/>
      <point x="770" y="1309"/>
    </contour>
    <contour>
      <point x="815" y="580" type="line"/>
      <point x="1173" y="580" type="line"/>
      <point x="1177" y="625"/>
      <point x="1263" y="655" type="qcurve"/>
      <point x="1341" y="686"/>
      <point x="1429" y="686" type="qcurve" smooth="yes"/>
      <point x="1489" y="686"/>
      <point x="1519" y="670" type="qcurve"/>
      <point x="1489" y="598"/>
      <point x="1489" y="532" type="qcurve" smooth="yes"/>
      <point x="1489" y="457"/>
      <point x="1536" y="369" type="qcurve"/>
      <point x="1472" y="358"/>
      <point x="1415" y="358" type="qcurve" smooth="yes"/>
      <point x="1300" y="358"/>
      <point x="1173" y="449"/>
      <point x="1173" y="522" type="qcurve" smooth="yes"/>
      <point x="1173" y="537"/>
      <point x="1175" y="549" type="qcurve"/>
      <point x="803" y="549" type="line"/>
    </contour>
  </outline>
</glyph>
<glyph name="saa-ethi" format="2">
  <advance width="1223"/>
  <unicode hex="1233"/>
  <outline>
    <contour>
      <point x="696" y="1417" type="line" smooth="yes"/>
      <point x="750" y="1423"/>
      <point x="762" y="1356" type="qcurve" smooth="yes"/>
      <point x="768" y="1321"/>
      <point x="768" y="1120" type="qcurve"/>
      <point x="934" y="1094"/>
      <point x="997" y="1012" type="qcurve" smooth="yes"/>
      <point x="1055" y="938"/>
      <point x="1055" y="784" type="qcurve" smooth="yes"/>
      <point x="1055" y="729"/>
      <point x="1049" y="651" type="qcurve"/>
      <point x="1047" y="645"/>
      <point x="1018" y="197" type="qcurve" smooth="yes"/>
      <point x="1008" y="55"/>
      <point x="1077" y="16" type="qcurve"/>
      <point x="909" y="6" type="line" smooth="yes"/>
      <point x="807" y="0"/>
      <point x="780" y="27" type="qcurve" smooth="yes"/>
      <point x="745" y="61"/>
      <point x="754" y="193" type="qcurve" smooth="yes"/>
      <point x="768" y="422"/>
      <point x="786" y="817" type="qcurve"/>
      <point x="786" y="928"/>
      <point x="688" y="1061"/>
      <point x="606" y="1063" type="qcurve" smooth="yes"/>
      <point x="508" y="1067"/>
      <point x="446" y="991" type="qcurve" smooth="yes"/>
      <point x="389" y="924"/>
      <point x="375" y="807" type="qcurve" smooth="yes"/>
      <point x="365" y="725"/>
      <point x="358" y="616" type="qcurve"/>
      <point x="342" y="436"/>
      <point x="424" y="399" type="qcurve"/>
      <point x="188" y="373" type="line" smooth="yes"/>
      <point x="102" y="362"/>
      <point x="88" y="426" type="qcurve"/>
      <point x="86" y="432"/>
      <point x="84" y="600" type="qcurve" smooth="yes"/>
      <point x="82" y="702"/>
      <point x="172" y="911"/>
      <point x="252" y="979" type="qcurve" smooth="yes"/>
      <point x="356" y="1069"/>
      <point x="494" y="1106" type="qcurve"/>
      <point x="494" y="1217"/>
      <point x="492" y="1325" type="qcurve"/>
      <point x="489" y="1364"/>
      <point x="436" y="1393" type="qcurve"/>
    </contour>
  </outline>
</glyph>
<glyph name="see-ethi" format="2">
  <advance width="1206"/>
  <unicode hex="1234"/>
  <outline>
    <contour>
      <point x="770" y="1128" type="qcurve"/>
      <point x="930" y="1128"/>
      <point x="1010" y="1040" type="qcurve" smooth="yes"/>
      <point x="1079" y="961"/>
      <point x="1075" y="821" type="qcurve" smooth="yes"/>
      <point x="1057" y="190" type="line" smooth="yes"/>
      <point x="1055" y="82"/>
      <point x="1124" y="0" type="qcurve"/>
      <point x="905" y="0" type="line" smooth="yes"/>
      <point x="819" y="0"/>
      <point x="801" y="23" type="qcurve"/>
      <point x="772" y="53"/>
      <point x="772" y="188" type="qcurve" smooth="yes"/>
      <point x="772" y="250"/>
      <point x="776" y="373" type="qcurve" smooth="yes"/>
      <point x="793" y="805" type="line"/>
      <point x="799" y="930"/>
      <point x="684" y="1075"/>
      <point x="600" y="1075" type="qcurve" smooth="yes"/>
      <point x="469" y="1075"/>
      <point x="410" y="940" type="qcurve" smooth="yes"/>
      <point x="371" y="850"/>
      <point x="360" y="672" type="qcurve" smooth="yes"/>
      <point x="356" y="596"/>
      <point x="356" y="119" type="qcurve" smooth="yes"/>
      <point x="356" y="76"/>
      <point x="379" y="45" type="qcurve" smooth="yes"/>
      <point x="395" y="23"/>
      <point x="412" y="-2" type="qcurve"/>
      <point x="377" y="-4"/>
      <point x="340" y="-4" type="qcurve"/>
      <point x="242" y="-6"/>
      <point x="231" y="-6" type="qcurve" smooth="yes"/>
      <point x="123" y="-6"/>
      <point x="100" y="53" type="qcurve" smooth="yes"/>
      <point x="80" y="106"/>
      <point x="82" y="356" type="qcurve" smooth="yes"/>
      <point x="84" y="492"/>
      <point x="88" y="555" type="qcurve" smooth="yes"/>
      <point x="94" y="676"/>
      <point x="115" y="778" type="qcurve" smooth="yes"/>
      <point x="162" y="1010"/>
      <point x="506" y="1118" type="qcurve"/>
      <point x="506" y="1309"/>
      <point x="506" y="1327" type="qcurve"/>
      <point x="500" y="1386"/>
      <point x="469" y="1419" type="qcurve"/>
      <point x="498" y="1419"/>
      <point x="618" y="1421" type="qcurve" smooth="yes"/>
      <point x="711" y="1423"/>
      <point x="731" y="1415" type="qcurve" smooth="yes"/>
      <point x="762" y="1403"/>
      <point x="768" y="1341" type="qcurve"/>
      <point x="770" y="1309"/>
    </contour>
    <contour>
      <point x="887" y="371" type="line"/>
      <point x="1208" y="412" type="line" smooth="yes"/>
      <point x="1239" y="416"/>
      <point x="1265" y="416" type="qcurve" smooth="yes"/>
      <point x="1384" y="416"/>
      <point x="1444" y="346" type="qcurve" smooth="yes"/>
      <point x="1493" y="289"/>
      <point x="1493" y="199" type="qcurve"/>
      <point x="1495" y="0"/>
      <point x="1288" y="0" type="qcurve" smooth="yes"/>
      <point x="821" y="0" type="line"/>
      <point x="819" y="35" type="line"/>
      <point x="970" y="35" type="line" smooth="yes"/>
      <point x="1241" y="35"/>
      <point x="1241" y="201" type="qcurve" smooth="yes"/>
      <point x="1241" y="279"/>
      <point x="1155" y="322" type="qcurve" smooth="yes"/>
      <point x="1081" y="359"/>
      <point x="1005" y="348" type="qcurve" smooth="yes"/>
      <point x="891" y="332" type="line"/>
    </contour>
  </outline>
</glyph>
<glyph name="so-ethi" format="2">
  <advance width="1227"/>
  <unicode hex="1236"/>
  <outline>
    <contour>
      <point x="647" y="1417" type="line"/>
      <point x="672" y="1417"/>
      <point x="711" y="1421" type="qcurve"/>
      <point x="743" y="1423"/>
      <point x="758" y="1423" type="qcurve" smooth="yes"/>
      <point x="797" y="1423"/>
      <point x="827" y="1384"/>
      <point x="827" y="1325" type="qcurve" smooth="yes"/>
      <point x="827" y="1272"/>
      <point x="811" y="1118" type="qcurve"/>
      <point x="864" y="1100"/>
      <point x="977" y="1059"/>
      <point x="1010" y="1028" type="qcurve" smooth="yes"/>
      <point x="1124" y="922"/>
      <point x="1106" y="709" type="qcurve" smooth="yes"/>
      <point x="1094" y="559" type="line" smooth="yes"/>
      <point x="1090" y="508"/>
      <point x="1090" y="471" type="qcurve" smooth="yes"/>
      <point x="1090" y="389"/>
      <point x="1112" y="367" type="qcurve" smooth="yes"/>
      <point x="1128" y="352"/>
      <point x="1145" y="340" type="qcurve"/>
      <point x="985" y="322" type="line" smooth="yes"/>
      <point x="909" y="313"/>
      <point x="901" y="313" type="qcurve" smooth="yes"/>
      <point x="801" y="313"/>
      <point x="801" y="463" type="qcurve" smooth="yes"/>
      <point x="801" y="494"/>
      <point x="803" y="530" type="qcurve"/>
      <point x="811" y="608"/>
      <point x="817" y="803" type="qcurve" smooth="yes"/>
      <point x="821" y="901"/>
      <point x="782" y="969" type="qcurve" smooth="yes"/>
      <point x="737" y="1047"/>
      <point x="641" y="1057" type="qcurve" smooth="yes"/>
      <point x="506" y="1071"/>
      <point x="444" y="918" type="qcurve"/>
      <point x="420" y="854"/>
      <point x="391" y="668" type="qcurve" smooth="yes"/>
      <point x="373" y="541"/>
      <point x="373" y="266" type="qcurve" smooth="yes"/>
      <point x="373" y="168"/>
      <point x="379" y="131" type="qcurve" smooth="yes"/>
      <point x="389" y="66"/>
      <point x="428" y="6" type="qcurve"/>
      <point x="246" y="-12" type="line" smooth="yes"/>
      <point x="213" y="-16"/>
      <point x="195" y="-16" type="qcurve" smooth="yes"/>
      <point x="98" y="-16"/>
      <point x="90" y="68" type="qcurve" smooth="yes"/>
      <point x="82" y="172"/>
      <point x="82" y="289" type="qcurve" smooth="yes"/>
      <point x="82" y="586"/>
      <point x="143" y="770" type="qcurve" smooth="yes"/>
      <point x="195" y="920"/>
      <point x="287" y="987" type="qcurve" smooth="yes"/>
      <point x="330" y="1020"/>
      <point x="512" y="1098" type="qcurve"/>
      <point x="541" y="1223"/>
      <point x="541" y="1311" type="qcurve" smooth="yes"/>
      <point x="541" y="1391"/>
      <point x="514" y="1413" type="qcurve"/>
    </contour>
  </outline>
</glyph>
<glyph name="sha-ethi" format="2">
  <advance width="1229"/>
  <unicode hex="1238"/>
  <unicode hex="F068"/>
  <outline>
    <contour>
      <point x="1182" y="1626" type="qcurve"/>
      <point x="1145" y="1556"/>
      <point x="1145" y="1475" type="qcurve" smooth="yes"/>
      <point x="1145" y="1378"/>
      <point x="1192" y="1292" type="qcurve"/>
      <point x="1149" y="1280"/>
      <point x="1104" y="1280" type="qcurve" smooth="yes"/>
      <point x="1018" y="1280"/>
      <point x="881" y="1354"/>
      <point x="872" y="1395" type="qcurve"/>
      <point x="780" y="1372" type="line"/>
      <point x="778" y="1241"/>
      <point x="776" y="1110" type="qcurve"/>
      <point x="791" y="1104"/>
      <point x="887" y="1081" type="qcurve" smooth="yes"/>
      <point x="969" y="1063"/>
      <point x="995" y="1040" type="qcurve" smooth="yes"/>
      <point x="1069" y="977"/>
      <point x="1069" y="842" type="qcurve" smooth="yes"/>
      <point x="1069" y="754"/>
      <point x="1034" y="397"/>
      <point x="1034" y="305" type="qcurve" smooth="yes"/>
      <point x="1034" y="43"/>
      <point x="1096" y="10" type="qcurve"/>
      <point x="928" y="-12" type="line"/>
      <point x="905" y="-16"/>
      <point x="889" y="-16" type="qcurve" smooth="yes"/>
      <point x="768" y="-16"/>
      <point x="768" y="207" type="qcurve" smooth="yes"/>
      <point x="768" y="252"/>
      <point x="772" y="309" type="qcurve"/>
      <point x="772" y="319"/>
      <point x="795" y="561" type="qcurve" smooth="yes"/>
      <point x="809" y="713"/>
      <point x="809" y="813" type="qcurve" smooth="yes"/>
      <point x="809" y="1055"/>
      <point x="680" y="1069" type="qcurve" smooth="yes"/>
      <point x="545" y="1085"/>
      <point x="467" y="870" type="qcurve" smooth="yes"/>
      <point x="414" y="721"/>
      <point x="403" y="348" type="qcurve" smooth="yes"/>
      <point x="395" y="53"/>
      <point x="461" y="23" type="qcurve"/>
      <point x="344" y="6" type="line" smooth="yes"/>
      <point x="285" y="-2"/>
      <point x="254" y="-2" type="qcurve" smooth="yes"/>
      <point x="178" y="-2"/>
      <point x="158" y="55" type="qcurve"/>
      <point x="137" y="106"/>
      <point x="139" y="283" type="qcurve" smooth="yes"/>
      <point x="141" y="580"/>
      <point x="164" y="694" type="qcurve"/>
      <point x="190" y="844"/>
      <point x="367" y="1032"/>
      <point x="518" y="1085" type="qcurve"/>
      <point x="518" y="1346" type="line"/>
      <point x="457" y="1341"/>
      <point x="385" y="1333" type="qcurve"/>
      <point x="356" y="1262"/>
      <point x="258" y="1214" type="qcurve"/>
      <point x="174" y="1178"/>
      <point x="94" y="1178" type="qcurve" smooth="yes"/>
      <point x="59" y="1178"/>
      <point x="41" y="1186" type="qcurve"/>
      <point x="82" y="1251"/>
      <point x="82" y="1329" type="qcurve" smooth="yes"/>
      <point x="82" y="1409"/>
      <point x="41" y="1481" type="qcurve"/>
      <point x="125" y="1507"/>
      <point x="188" y="1507" type="qcurve" smooth="yes"/>
      <point x="274" y="1507"/>
      <point x="332" y="1456" type="qcurve"/>
      <point x="334" y="1452"/>
      <point x="406" y="1364" type="qcurve"/>
      <point x="586" y="1395"/>
      <point x="870" y="1434" type="qcurve"/>
      <point x="872" y="1487"/>
      <point x="926" y="1546" type="qcurve" smooth="yes"/>
      <point x="999" y="1630"/>
      <point x="1122" y="1630" type="qcurve" smooth="yes"/>
      <point x="1151" y="1630"/>
    </contour>
  </outline>
</glyph>
<glyph name="she-ethi" format="2">
  <advance width="1501"/>
  <unicode hex="123D"/>
  <outline>
    <contour>
      <point x="1407" y="1556" type="qcurve"/>
      <point x="1364" y="1493"/>
      <point x="1364" y="1419" type="qcurve" smooth="yes"/>
      <point x="1364" y="1329"/>
      <point x="1419" y="1247" type="qcurve"/>
      <point x="1411" y="1247"/>
      <point x="1315" y="1241"/>
      <point x="1280" y="1241" type="qcurve" smooth="yes"/>
      <point x="1077" y="1241"/>
      <point x="1030" y="1346" type="qcurve"/>
      <point x="893" y="1348" type="line"/>
      <point x="915" y="1292"/>
      <point x="940" y="1253" type="qcurve" smooth="yes"/>
      <point x="987" y="1176"/>
      <point x="1079" y="1083" type="qcurve"/>
      <point x="1260" y="1055"/>
      <point x="1292" y="901" type="qcurve"/>
      <point x="1309" y="829"/>
      <point x="1270" y="584" type="qcurve" smooth="yes"/>
      <point x="1227" y="301"/>
      <point x="1227" y="201" type="qcurve" smooth="yes"/>
      <point x="1227" y="37"/>
      <point x="1296" y="0" type="qcurve"/>
      <point x="1219" y="0"/>
      <point x="1098" y="-8" type="qcurve" smooth="yes"/>
      <point x="1024" y="-12"/>
      <point x="995" y="6" type="qcurve" smooth="yes"/>
      <point x="946" y="37"/>
      <point x="950" y="141" type="qcurve" smooth="yes"/>
      <point x="954" y="268"/>
      <point x="995" y="535" type="qcurve" smooth="yes"/>
      <point x="1034" y="786"/>
      <point x="1034" y="877" type="qcurve" smooth="yes"/>
      <point x="1034" y="999"/>
      <point x="983" y="1026" type="qcurve"/>
      <point x="958" y="1038"/>
      <point x="932" y="1038" type="qcurve" smooth="yes"/>
      <point x="854" y="1038"/>
      <point x="784" y="922" type="qcurve" smooth="yes"/>
      <point x="733" y="838"/>
      <point x="725" y="784" type="qcurve" smooth="yes"/>
      <point x="662" y="395"/>
      <point x="662" y="262" type="qcurve" smooth="yes"/>
      <point x="662" y="43"/>
      <point x="762" y="4" type="qcurve"/>
      <point x="618" y="-2" type="line" smooth="yes"/>
      <point x="551" y="-4"/>
      <point x="535" y="-4" type="qcurve" smooth="yes"/>
      <point x="436" y="-4"/>
      <point x="389" y="135"/>
      <point x="395" y="414" type="qcurve" smooth="yes"/>
      <point x="399" y="641"/>
      <point x="485" y="795" type="qcurve"/>
      <point x="543" y="903"/>
      <point x="651" y="987" type="qcurve" smooth="yes"/>
      <point x="766" y="1079"/>
      <point x="770" y="1083" type="qcurve"/>
      <point x="608" y="1245"/>
      <point x="590" y="1348" type="qcurve"/>
      <point x="485" y="1341"/>
      <point x="459" y="1346" type="qcurve"/>
      <point x="408" y="1214"/>
      <point x="170" y="1214" type="qcurve" smooth="yes"/>
      <point x="147" y="1214"/>
      <point x="82" y="1217" type="qcurve"/>
      <point x="129" y="1339"/>
      <point x="129" y="1430" type="qcurve" smooth="yes"/>
      <point x="129" y="1513"/>
      <point x="82" y="1540" type="qcurve"/>
      <point x="289" y="1534"/>
      <point x="328" y="1520" type="qcurve" smooth="yes"/>
      <point x="381" y="1501"/>
      <point x="471" y="1386" type="qcurve"/>
      <point x="1016" y="1397"/>
      <point x="1004" y="1391" type="qcurve"/>
      <point x="1055" y="1569"/>
      <point x="1251" y="1569" type="qcurve" smooth="yes"/>
      <point x="1286" y="1569"/>
      <point x="1395" y="1556"/>
    </contour>
  </outline>
</glyph>
<glyph name="sho-ethi" format="2">
  <advance width="1403"/>
  <unicode hex="123E"/>
  <outline>
    <contour>
      <point x="1321" y="1577" type="qcurve"/>
      <point x="1249" y="1501"/>
      <point x="1249" y="1417" type="qcurve" smooth="yes"/>
      <point x="1249" y="1329"/>
      <point x="1321" y="1257" type="qcurve"/>
      <point x="1286" y="1253"/>
      <point x="1253" y="1253" type="qcurve" smooth="yes"/>
      <point x="1071" y="1253"/>
      <point x="983" y="1370" type="qcurve"/>
      <point x="842" y="1368" type="line"/>
      <point x="823" y="1087" type="line"/>
      <point x="983" y="1063"/>
      <point x="1020" y="971" type="qcurve" smooth="yes"/>
      <point x="1038" y="924"/>
      <point x="1038" y="848" type="qcurve" smooth="yes"/>
      <point x="1038" y="786"/>
      <point x="1006" y="530"/>
      <point x="1006" y="483" type="qcurve" smooth="yes"/>
      <point x="1006" y="379"/>
      <point x="1057" y="362" type="qcurve"/>
      <point x="874" y="342"/>
      <point x="846" y="342" type="qcurve" smooth="yes"/>
      <point x="782" y="342"/>
      <point x="770" y="371" type="qcurve" smooth="yes"/>
      <point x="745" y="430"/>
      <point x="745" y="514" type="qcurve" smooth="yes"/>
      <point x="745" y="590"/>
      <point x="799" y="885"/>
      <point x="799" y="936" type="qcurve" smooth="yes"/>
      <point x="799" y="1067"/>
      <point x="684" y="1065" type="qcurve" smooth="yes"/>
      <point x="506" y="1063"/>
      <point x="436" y="571" type="qcurve" smooth="yes"/>
      <point x="412" y="397"/>
      <point x="412" y="252" type="qcurve" smooth="yes"/>
      <point x="412" y="35"/>
      <point x="473" y="0" type="qcurve"/>
      <point x="442" y="0"/>
      <point x="330" y="-6"/>
      <point x="305" y="-6" type="qcurve" smooth="yes"/>
      <point x="197" y="-6"/>
      <point x="162" y="43" type="qcurve" smooth="yes"/>
      <point x="137" y="80"/>
      <point x="137" y="193" type="qcurve" smooth="yes"/>
      <point x="137" y="338"/>
      <point x="193" y="737"/>
      <point x="223" y="807" type="qcurve" smooth="yes"/>
      <point x="270" y="918"/>
      <point x="354" y="981" type="qcurve" smooth="yes"/>
      <point x="403" y="1016"/>
      <point x="547" y="1081" type="qcurve"/>
      <point x="584" y="1350"/>
      <point x="578" y="1360" type="qcurve"/>
      <point x="430" y="1358" type="line"/>
      <point x="354" y="1210"/>
      <point x="180" y="1210" type="qcurve" smooth="yes"/>
      <point x="133" y="1210"/>
      <point x="82" y="1223" type="qcurve"/>
      <point x="135" y="1311"/>
      <point x="135" y="1401" type="qcurve" smooth="yes"/>
      <point x="135" y="1466"/>
      <point x="102" y="1522" type="qcurve"/>
      <point x="119" y="1524"/>
      <point x="174" y="1530" type="qcurve" smooth="yes"/>
      <point x="219" y="1534"/>
      <point x="246" y="1534" type="qcurve" smooth="yes"/>
      <point x="383" y="1534"/>
      <point x="440" y="1393" type="qcurve"/>
      <point x="963" y="1409" type="line"/>
      <point x="1040" y="1597"/>
      <point x="1223" y="1597" type="qcurve" smooth="yes"/>
      <point x="1274" y="1597"/>
    </contour>
  </outline>
</glyph>
<glyph name="shwa-ethi" format="2">
  <advance width="1280"/>
  <unicode hex="123F"/>
  <outline>
    <contour>
      <point x="1268" y="1583" type="qcurve"/>
      <point x="1231" y="1534"/>
      <point x="1231" y="1458" type="qcurve" smooth="yes"/>
      <point x="1231" y="1339"/>
      <point x="1292" y="1282" type="qcurve"/>
      <point x="1251" y="1276"/>
      <point x="1210" y="1276" type="qcurve" smooth="yes"/>
      <point x="1010" y="1276"/>
      <point x="977" y="1378" type="qcurve"/>
      <point x="821" y="1364" type="line"/>
      <point x="821" y="1083" type="line"/>
      <point x="1042" y="1106"/>
      <point x="1042" y="786" type="qcurve" smooth="yes"/>
      <point x="1042" y="705"/>
      <point x="1008" y="338"/>
      <point x="1008" y="256" type="qcurve" smooth="yes"/>
      <point x="1008" y="63"/>
      <point x="1081" y="0" type="qcurve"/>
      <point x="909" y="-6"/>
      <point x="905" y="-6" type="qcurve" smooth="yes"/>
      <point x="799" y="-6"/>
      <point x="774" y="29" type="qcurve" smooth="yes"/>
      <point x="739" y="78"/>
      <point x="739" y="209" type="qcurve" smooth="yes"/>
      <point x="739" y="305"/>
      <point x="791" y="774"/>
      <point x="791" y="868" type="qcurve" smooth="yes"/>
      <point x="791" y="1065"/>
      <point x="709" y="1071" type="qcurve" smooth="yes"/>
      <point x="655" y="1075"/>
      <point x="514" y="944"/>
      <point x="487" y="858" type="qcurve" smooth="yes"/>
      <point x="444" y="723"/>
      <point x="444" y="575" type="qcurve" smooth="yes"/>
      <point x="444" y="410"/>
      <point x="498" y="385" type="qcurve"/>
      <point x="354" y="377" type="line" smooth="yes"/>
      <point x="313" y="375"/>
      <point x="309" y="375" type="qcurve" smooth="yes"/>
      <point x="260" y="375"/>
      <point x="238" y="410" type="qcurve" smooth="yes"/>
      <point x="209" y="457"/>
      <point x="209" y="582" type="qcurve" smooth="yes"/>
      <point x="209" y="825"/>
      <point x="352" y="958" type="qcurve" smooth="yes"/>
      <point x="436" y="1038"/>
      <point x="553" y="1077" type="qcurve"/>
      <point x="553" y="1346" type="line"/>
      <point x="487" y="1343"/>
      <point x="442" y="1343" type="qcurve"/>
      <point x="387" y="1192"/>
      <point x="178" y="1192" type="qcurve" smooth="yes"/>
      <point x="168" y="1192"/>
      <point x="90" y="1196" type="qcurve"/>
      <point x="139" y="1245"/>
      <point x="139" y="1333" type="qcurve" smooth="yes"/>
      <point x="139" y="1458"/>
      <point x="82" y="1495" type="qcurve"/>
      <point x="164" y="1507"/>
      <point x="219" y="1507" type="qcurve" smooth="yes"/>
      <point x="307" y="1507"/>
      <point x="356" y="1475" type="qcurve" smooth="yes"/>
      <point x="399" y="1446"/>
      <point x="432" y="1378" type="qcurve"/>
      <point x="950" y="1413" type="line"/>
      <point x="1001" y="1591"/>
      <point x="1182" y="1591" type="qcurve" smooth="yes"/>
      <point x="1219" y="1591"/>
    </contour>
    <contour>
      <point x="1518" y="20" type="line"/>
      <point x="1483" y="-59"/>
      <point x="1483" y="-131" type="qcurve" smooth="yes"/>
      <point x="1483" y="-238"/>
      <point x="1550" y="-303" type="qcurve"/>
      <point x="1540" y="-302"/>
      <point x="1481" y="-307" type="qcurve" smooth="yes"/>
      <point x="1436" y="-311"/>
      <point x="1405" y="-311" type="qcurve" smooth="yes"/>
      <point x="1188" y="-312"/>
      <point x="1188" y="-113" type="qcurve" smooth="yes"/>
      <point x="1188" y="-70"/>
      <point x="1196" y="-18" type="qcurve"/>
      <point x="741" y="-18" type="line"/>
      <point x="745" y="-41"/>
      <point x="745" y="-61" type="qcurve" smooth="yes"/>
      <point x="745" y="-180"/>
      <point x="643" y="-250" type="qcurve" smooth="yes"/>
      <point x="561" y="-305"/>
      <point x="465" y="-305" type="qcurve" smooth="yes"/>
      <point x="432" y="-305"/>
      <point x="414" y="-297" type="qcurve"/>
      <point x="417" y="-285"/>
      <point x="449" y="-217" type="qcurve" smooth="yes"/>
      <point x="477" y="-156"/>
      <point x="477" y="-111" type="qcurve" smooth="yes"/>
      <point x="476" y="-43"/>
      <point x="422" y="20" type="qcurve"/>
    </contour>
  </outline>
</glyph>
<glyph name="qu-ethi" format="2">
  <advance width="1593"/>
  <unicode hex="1241"/>
  <outline>
    <contour>
      <point x="971" y="1040" type="qcurve"/>
      <point x="1112" y="1065"/>
      <point x="1208" y="1065" type="qcurve" smooth="yes"/>
      <point x="1354" y="1065"/>
      <point x="1405" y="1004" type="qcurve" smooth="yes"/>
      <point x="1442" y="961"/>
      <point x="1440" y="858" type="qcurve" smooth="yes"/>
      <point x="1436" y="698"/>
      <point x="1253" y="623" type="qcurve" smooth="yes"/>
      <point x="1133" y="571"/>
      <point x="901" y="551" type="qcurve"/>
      <point x="893" y="430"/>
      <point x="877" y="260" type="qcurve" smooth="yes"/>
      <point x="864" y="141"/>
      <point x="864" y="104" type="qcurve" smooth="yes"/>
      <point x="864" y="57"/>
      <point x="891" y="16"/>
      <point x="928" y="-4" type="qcurve"/>
      <point x="713" y="-4" type="line" smooth="yes"/>
      <point x="637" y="-4"/>
      <point x="625" y="0" type="qcurve"/>
      <point x="584" y="20"/>
      <point x="588" y="115" type="qcurve"/>
      <point x="598" y="168"/>
      <point x="631" y="496" type="qcurve"/>
      <point x="483" y="475"/>
      <point x="391" y="475" type="qcurve" smooth="yes"/>
      <point x="127" y="475"/>
      <point x="145" y="659" type="qcurve" smooth="yes"/>
      <point x="166" y="868"/>
      <point x="410" y="946" type="qcurve" smooth="yes"/>
      <point x="492" y="971"/>
      <point x="690" y="987" type="qcurve"/>
      <point x="696" y="1057"/>
      <point x="715" y="1178" type="qcurve"/>
      <point x="731" y="1270"/>
      <point x="731" y="1307" type="qcurve" smooth="yes"/>
      <point x="731" y="1372"/>
      <point x="694" y="1405" type="qcurve"/>
      <point x="823" y="1454"/>
      <point x="895" y="1454" type="qcurve" smooth="yes"/>
      <point x="1001" y="1454"/>
      <point x="1001" y="1323" type="qcurve" smooth="yes"/>
      <point x="1001" y="1319"/>
    </contour>
    <contour>
      <point x="913" y="586" type="line"/>
      <point x="1030" y="582"/>
      <point x="1141" y="678"/>
      <point x="1153" y="807" type="qcurve" smooth="yes"/>
      <point x="1155" y="836"/>
      <point x="1155" y="860" type="qcurve" smooth="yes"/>
      <point x="1155" y="993"/>
      <point x="1049" y="993" type="qcurve" smooth="yes"/>
      <point x="1020" y="993"/>
      <point x="958" y="985" type="qcurve"/>
    </contour>
    <contour>
      <point x="434" y="623" type="qcurve"/>
      <point x="444" y="567"/>
      <point x="516" y="551" type="qcurve"/>
      <point x="539" y="547"/>
      <point x="639" y="541" type="qcurve"/>
      <point x="680" y="954" type="line"/>
      <point x="606" y="954"/>
      <point x="545" y="922" type="qcurve"/>
      <point x="424" y="862"/>
      <point x="424" y="711" type="qcurve" smooth="yes"/>
      <point x="424" y="670"/>
    </contour>
    <contour>
      <point x="698" y="416" type="line"/>
      <point x="1056" y="416" type="line"/>
      <point x="1061" y="460"/>
      <point x="1147" y="492" type="qcurve" smooth="yes"/>
      <point x="1224" y="521"/>
      <point x="1312" y="520" type="qcurve" smooth="yes"/>
      <point x="1370" y="520"/>
      <point x="1403" y="506" type="qcurve"/>
      <point x="1372" y="432"/>
      <point x="1372" y="369" type="qcurve" smooth="yes"/>
      <point x="1372" y="291"/>
      <point x="1419" y="205" type="qcurve"/>
      <point x="1355" y="193"/>
      <point x="1298" y="193" type="qcurve" smooth="yes"/>
      <point x="1183" y="193"/>
      <point x="1056" y="285"/>
      <point x="1056" y="358" type="qcurve" smooth="yes"/>
      <point x="1056" y="371"/>
      <point x="1058" y="385" type="qcurve"/>
      <point x="686" y="385" type="line"/>
    </contour>
  </outline>
</glyph>
<glyph name="qee-ethi" format="2">
  <advance width="1593"/>
  <unicode hex="1244"/>
  <outline>
    <contour>
      <point x="971" y="1040" type="qcurve"/>
      <point x="1112" y="1065"/>
      <point x="1208" y="1065" type="qcurve" smooth="yes"/>
      <point x="1354" y="1065"/>
      <point x="1405" y="1004" type="qcurve" smooth="yes"/>
      <point x="1442" y="961"/>
      <point x="1440" y="858" type="qcurve" smooth="yes"/>
      <point x="1436" y="698"/>
      <point x="1253" y="623" type="qcurve" smooth="yes"/>
      <point x="1133" y="571"/>
      <point x="901" y="551" type="qcurve"/>
      <point x="893" y="430"/>
      <point x="877" y="260" type="qcurve" smooth="yes"/>
      <point x="864" y="141"/>
      <point x="864" y="104" type="qcurve" smooth="yes"/>
      <point x="864" y="57"/>
      <point x="891" y="16"/>
      <point x="928" y="-4" type="qcurve"/>
      <point x="713" y="-4" type="line" smooth="yes"/>
      <point x="637" y="-4"/>
      <point x="625" y="0" type="qcurve"/>
      <point x="584" y="20"/>
      <point x="588" y="115" type="qcurve"/>
      <point x="598" y="168"/>
      <point x="631" y="496" type="qcurve"/>
      <point x="483" y="475"/>
      <point x="391" y="475" type="qcurve" smooth="yes"/>
      <point x="127" y="475"/>
      <point x="145" y="659" type="qcurve" smooth="yes"/>
      <point x="166" y="868"/>
      <point x="410" y="946" type="qcurve" smooth="yes"/>
      <point x="492" y="971"/>
      <point x="690" y="987" type="qcurve"/>
      <point x="696" y="1057"/>
      <point x="715" y="1178" type="qcurve"/>
      <point x="731" y="1270"/>
      <point x="731" y="1307" type="qcurve" smooth="yes"/>
      <point x="731" y="1372"/>
      <point x="694" y="1405" type="qcurve"/>
      <point x="823" y="1454"/>
      <point x="895" y="1454" type="qcurve" smooth="yes"/>
      <point x="1001" y="1454"/>
      <point x="1001" y="1323" type="qcurve" smooth="yes"/>
      <point x="1001" y="1319"/>
    </contour>
    <contour>
      <point x="913" y="586" type="line"/>
      <point x="1030" y="582"/>
      <point x="1141" y="678"/>
      <point x="1153" y="807" type="qcurve" smooth="yes"/>
      <point x="1155" y="836"/>
      <point x="1155" y="860" type="qcurve" smooth="yes"/>
      <point x="1155" y="993"/>
      <point x="1049" y="993" type="qcurve" smooth="yes"/>
      <point x="1020" y="993"/>
      <point x="958" y="985" type="qcurve"/>
    </contour>
    <contour>
      <point x="434" y="623" type="qcurve"/>
      <point x="444" y="567"/>
      <point x="516" y="551" type="qcurve"/>
      <point x="539" y="547"/>
      <point x="639" y="541" type="qcurve"/>
      <point x="680" y="954" type="line"/>
      <point x="606" y="954"/>
      <point x="545" y="922" type="qcurve"/>
      <point x="424" y="862"/>
      <point x="424" y="711" type="qcurve" smooth="yes"/>
      <point x="424" y="670"/>
    </contour>
    <contour>
      <point x="766" y="375" type="line"/>
      <point x="1048" y="412" type="line" smooth="yes"/>
      <point x="1079" y="416"/>
      <point x="1108" y="416" type="qcurve" smooth="yes"/>
      <point x="1225" y="417"/>
      <point x="1284" y="346" type="qcurve" smooth="yes"/>
      <point x="1332" y="290"/>
      <point x="1333" y="199" type="qcurve" smooth="yes"/>
      <point x="1335" y="0"/>
      <point x="1128" y="0" type="qcurve" smooth="yes"/>
      <point x="786" y="0" type="line"/>
      <point x="786" y="37" type="line"/>
      <point x="811" y="35" type="line" smooth="yes"/>
      <point x="835" y="33"/>
      <point x="860" y="33" type="qcurve" smooth="yes"/>
      <point x="1081" y="33"/>
      <point x="1081" y="201" type="qcurve" smooth="yes"/>
      <point x="1081" y="270"/>
      <point x="1011" y="313" type="qcurve" smooth="yes"/>
      <point x="952" y="350"/>
      <point x="878" y="350" type="qcurve"/>
      <point x="860" y="351"/>
      <point x="845" y="348" type="qcurve" smooth="yes"/>
      <point x="766" y="334" type="line"/>
    </contour>
  </outline>
</glyph>
<glyph name="qe-ethi" format="2">
  <advance width="1440"/>
  <unicode hex="1245"/>
  <outline>
    <contour>
      <point x="594" y="1382" type="qcurve"/>
      <point x="674" y="1397"/>
      <point x="793" y="1423" type="qcurve"/>
      <point x="815" y="1430"/>
      <point x="834" y="1430" type="qcurve" smooth="yes"/>
      <point x="913" y="1430"/>
      <point x="913" y="1292" type="qcurve" smooth="yes"/>
      <point x="913" y="1223"/>
      <point x="891" y="1014" type="qcurve"/>
      <point x="979" y="1057"/>
      <point x="1116" y="1057" type="qcurve" smooth="yes"/>
      <point x="1362" y="1057"/>
      <point x="1358" y="877" type="qcurve" smooth="yes"/>
      <point x="1354" y="733"/>
      <point x="1237" y="655" type="qcurve" smooth="yes"/>
      <point x="1153" y="600"/>
      <point x="1006" y="578" type="qcurve" smooth="yes"/>
      <point x="924" y="565"/>
      <point x="842" y="553" type="qcurve"/>
      <point x="831" y="481"/>
      <point x="821" y="408" type="qcurve" smooth="yes"/>
      <point x="803" y="272"/>
      <point x="803" y="190" type="qcurve" smooth="yes"/>
      <point x="803" y="43"/>
      <point x="862" y="53" type="qcurve"/>
      <point x="727" y="-8"/>
      <point x="602" y="-8" type="qcurve" smooth="yes"/>
      <point x="557" y="-8"/>
      <point x="545" y="8" type="qcurve"/>
      <point x="516" y="43"/>
      <point x="516" y="121" type="qcurve" smooth="yes"/>
      <point x="516" y="190"/>
      <point x="557" y="512" type="qcurve"/>
      <point x="420" y="481"/>
      <point x="322" y="481" type="qcurve" smooth="yes"/>
      <point x="100" y="481"/>
      <point x="84" y="641" type="qcurve" smooth="yes"/>
      <point x="51" y="940"/>
      <point x="614" y="979" type="qcurve"/>
      <point x="625" y="1114"/>
      <point x="641" y="1317" type="qcurve"/>
      <point x="633" y="1329"/>
      <point x="590" y="1350" type="qcurve"/>
      <point x="582" y="1358"/>
      <point x="571" y="1358" type="qcurve" smooth="yes"/>
      <point x="565" y="1358"/>
      <point x="526" y="1343" type="qcurve" smooth="yes"/>
      <point x="479" y="1325"/>
      <point x="428" y="1317" type="qcurve" smooth="yes"/>
      <point x="348" y="1305"/>
      <point x="240" y="1309" type="qcurve"/>
      <point x="297" y="1372"/>
      <point x="297" y="1442" type="qcurve" smooth="yes"/>
      <point x="297" y="1520"/>
      <point x="242" y="1569" type="qcurve"/>
      <point x="362" y="1614"/>
      <point x="449" y="1614" type="qcurve" smooth="yes"/>
      <point x="606" y="1614"/>
      <point x="606" y="1470" type="qcurve" smooth="yes"/>
      <point x="606" y="1432"/>
    </contour>
    <contour>
      <point x="848" y="596" type="line"/>
      <point x="973" y="616"/>
      <point x="1061" y="698"/>
      <point x="1073" y="813" type="qcurve" smooth="yes"/>
      <point x="1081" y="897"/>
      <point x="1014" y="995"/>
      <point x="946" y="995" type="qcurve" smooth="yes"/>
      <point x="920" y="995"/>
      <point x="889" y="987" type="qcurve"/>
    </contour>
    <contour>
      <point x="367" y="680" type="qcurve"/>
      <point x="358" y="586"/>
      <point x="434" y="565" type="qcurve"/>
      <point x="498" y="559"/>
      <point x="563" y="553" type="qcurve"/>
      <point x="606" y="938" type="line"/>
      <point x="477" y="936"/>
      <point x="422" y="868" type="qcurve" smooth="yes"/>
      <point x="375" y="809"/>
    </contour>
  </outline>
</glyph>
<glyph name="qwi-ethi" format="2">
  <advance width="1593"/>
  <unicode hex="124A"/>
  <outline>
    <contour>
      <point x="971" y="1040" type="qcurve"/>
      <point x="1112" y="1065"/>
      <point x="1208" y="1065" type="qcurve" smooth="yes"/>
      <point x="1354" y="1065"/>
      <point x="1405" y="1004" type="qcurve" smooth="yes"/>
      <point x="1442" y="961"/>
      <point x="1440" y="858" type="qcurve" smooth="yes"/>
      <point x="1436" y="698"/>
      <point x="1253" y="623" type="qcurve" smooth="yes"/>
      <point x="1133" y="571"/>
      <point x="901" y="551" type="qcurve"/>
      <point x="893" y="430"/>
      <point x="877" y="260" type="qcurve" smooth="yes"/>
      <point x="864" y="141"/>
      <point x="864" y="104" type="qcurve" smooth="yes"/>
      <point x="864" y="57"/>
      <point x="891" y="16"/>
      <point x="928" y="-4" type="qcurve"/>
      <point x="713" y="-4" type="line" smooth="yes"/>
      <point x="637" y="-4"/>
      <point x="625" y="0" type="qcurve"/>
      <point x="584" y="20"/>
      <point x="588" y="115" type="qcurve"/>
      <point x="598" y="168"/>
      <point x="631" y="496" type="qcurve"/>
      <point x="483" y="475"/>
      <point x="391" y="475" type="qcurve" smooth="yes"/>
      <point x="127" y="475"/>
      <point x="145" y="659" type="qcurve" smooth="yes"/>
      <point x="166" y="868"/>
      <point x="410" y="946" type="qcurve" smooth="yes"/>
      <point x="492" y="971"/>
      <point x="690" y="987" type="qcurve"/>
      <point x="696" y="1057"/>
      <point x="715" y="1178" type="qcurve"/>
      <point x="731" y="1270"/>
      <point x="731" y="1307" type="qcurve" smooth="yes"/>
      <point x="731" y="1372"/>
      <point x="694" y="1405" type="qcurve"/>
      <point x="823" y="1454"/>
      <point x="895" y="1454" type="qcurve" smooth="yes"/>
      <point x="1001" y="1454"/>
      <point x="1001" y="1323" type="qcurve" smooth="yes"/>
      <point x="1001" y="1319"/>
    </contour>
    <contour>
      <point x="913" y="586" type="line"/>
      <point x="1030" y="582"/>
      <point x="1141" y="678"/>
      <point x="1153" y="807" type="qcurve" smooth="yes"/>
      <point x="1155" y="836"/>
      <point x="1155" y="860" type="qcurve" smooth="yes"/>
      <point x="1155" y="993"/>
      <point x="1049" y="993" type="qcurve" smooth="yes"/>
      <point x="1020" y="993"/>
      <point x="958" y="985" type="qcurve"/>
    </contour>
    <contour>
      <point x="434" y="623" type="qcurve"/>
      <point x="444" y="567"/>
      <point x="516" y="551" type="qcurve"/>
      <point x="539" y="547"/>
      <point x="639" y="541" type="qcurve"/>
      <point x="680" y="954" type="line"/>
      <point x="606" y="954"/>
      <point x="545" y="922" type="qcurve"/>
      <point x="424" y="862"/>
      <point x="424" y="711" type="qcurve" smooth="yes"/>
      <point x="424" y="670"/>
    </contour>
    <contour>
      <point x="1276" y="827" type="line"/>
      <point x="1630" y="827" type="line"/>
      <point x="1702" y="915"/>
      <point x="1702" y="1008" type="qcurve" smooth="yes"/>
      <point x="1702" y="1057"/>
      <point x="1683" y="1110" type="qcurve"/>
      <point x="1826" y="1110" type="line" smooth="yes"/>
      <point x="1980" y="1110"/>
      <point x="1984" y="1110" type="qcurve"/>
      <point x="2069" y="1102"/>
      <point x="2056" y="1053" type="qcurve" smooth="yes"/>
      <point x="2038" y="981"/>
      <point x="1990" y="860" type="qcurve" smooth="yes"/>
      <point x="1958" y="778"/>
      <point x="1958" y="729" type="qcurve" smooth="yes"/>
      <point x="1958" y="675"/>
      <point x="1994" y="662" type="qcurve"/>
      <point x="2011" y="655"/>
      <point x="2103" y="655" type="qcurve" smooth="yes"/>
      <point x="2439" y="655" type="line"/>
      <point x="2439" y="629"/>
      <point x="2429" y="528"/>
      <point x="2429" y="504" type="qcurve" smooth="yes"/>
      <point x="2429" y="412"/>
      <point x="2490" y="358" type="qcurve"/>
      <point x="2453" y="350"/>
      <point x="2408" y="350" type="qcurve" smooth="yes"/>
      <point x="2271" y="350"/>
      <point x="2179" y="408" type="qcurve" smooth="yes"/>
      <point x="2064" y="479"/>
      <point x="2080" y="614" type="qcurve"/>
      <point x="1781" y="598" type="line" smooth="yes"/>
      <point x="1683" y="593"/>
      <point x="1616" y="637"/>
      <point x="1616" y="686" type="qcurve"/>
      <point x="1616" y="662"/>
      <point x="1624" y="786" type="qcurve"/>
      <point x="1269" y="786" type="line"/>
    </contour>
  </outline>
</glyph>
<glyph name="qwaa-ethi" format="2">
  <advance width="1440"/>
  <unicode hex="124B"/>
  <unicode hex="F075"/>
  <outline>
    <contour>
      <point x="803" y="1454" type="line" smooth="yes"/>
      <point x="840" y="1460"/>
      <point x="866" y="1460" type="qcurve" smooth="yes"/>
      <point x="936" y="1460"/>
      <point x="936" y="1395" type="qcurve" smooth="yes"/>
      <point x="936" y="1386"/>
      <point x="928" y="1311" type="qcurve" smooth="yes"/>
      <point x="922" y="1243"/>
      <point x="926" y="1192" type="qcurve"/>
      <point x="1065" y="1212"/>
      <point x="1116" y="1212" type="qcurve" smooth="yes"/>
      <point x="1354" y="1212"/>
      <point x="1358" y="971" type="qcurve" smooth="yes"/>
      <point x="1362" y="662"/>
      <point x="850" y="598" type="qcurve"/>
      <point x="827" y="365" type="line"/>
      <point x="1012" y="342" type="line" smooth="yes"/>
      <point x="1157" y="324"/>
      <point x="1145" y="186" type="qcurve"/>
      <point x="1139" y="137"/>
      <point x="1139" y="113" type="qcurve" smooth="yes"/>
      <point x="1139" y="20"/>
      <point x="1192" y="-57" type="qcurve"/>
      <point x="1012" y="-100" type="line" smooth="yes"/>
      <point x="977" y="-109"/>
      <point x="954" y="-109" type="qcurve" smooth="yes"/>
      <point x="877" y="-109"/>
      <point x="881" y="14" type="qcurve"/>
      <point x="881" y="37"/>
      <point x="885" y="102" type="qcurve" smooth="yes"/>
      <point x="889" y="162"/>
      <point x="889" y="193" type="qcurve" smooth="yes"/>
      <point x="889" y="295"/>
      <point x="850" y="319" type="qcurve"/>
      <point x="764" y="319"/>
      <point x="678" y="319" type="qcurve"/>
      <point x="541" y="315"/>
      <point x="522" y="291" type="qcurve"/>
      <point x="524" y="184"/>
      <point x="346" y="12"/>
      <point x="229" y="12" type="qcurve" smooth="yes"/>
      <point x="201" y="12"/>
      <point x="176" y="18" type="qcurve"/>
      <point x="219" y="90"/>
      <point x="219" y="180" type="qcurve" smooth="yes"/>
      <point x="219" y="236"/>
      <point x="203" y="289" type="qcurve"/>
      <point x="440" y="301"/>
      <point x="553" y="365" type="qcurve"/>
      <point x="559" y="453"/>
      <point x="580" y="616" type="qcurve"/>
      <point x="549" y="614"/>
      <point x="430" y="582"/>
      <point x="403" y="580" type="qcurve" smooth="yes"/>
      <point x="285" y="571"/>
      <point x="213" y="616" type="qcurve" smooth="yes"/>
      <point x="117" y="676"/>
      <point x="127" y="819" type="qcurve"/>
      <point x="137" y="1018"/>
      <point x="344" y="1114" type="qcurve"/>
      <point x="479" y="1180"/>
      <point x="655" y="1188" type="qcurve"/>
      <point x="662" y="1292"/>
      <point x="662" y="1325" type="qcurve" smooth="yes"/>
      <point x="662" y="1366"/>
      <point x="651" y="1380" type="qcurve" smooth="yes"/>
      <point x="633" y="1401"/>
      <point x="616" y="1423" type="qcurve"/>
    </contour>
    <contour>
      <point x="403" y="823" type="qcurve"/>
      <point x="401" y="643"/>
      <point x="512" y="643" type="qcurve" smooth="yes"/>
      <point x="549" y="643"/>
      <point x="586" y="664" type="qcurve"/>
      <point x="608" y="836"/>
      <point x="645" y="1128" type="qcurve"/>
      <point x="543" y="1126"/>
      <point x="479" y="1061" type="qcurve" smooth="yes"/>
      <point x="403" y="981"/>
    </contour>
    <contour>
      <point x="924" y="1139" type="qcurve"/>
      <point x="862" y="639" type="line"/>
      <point x="975" y="678"/>
      <point x="1004" y="715" type="qcurve" smooth="yes"/>
      <point x="1047" y="770"/>
      <point x="1071" y="952" type="qcurve" smooth="yes"/>
      <point x="1077" y="1008"/>
      <point x="1051" y="1067" type="qcurve" smooth="yes"/>
      <point x="1018" y="1143"/>
      <point x="954" y="1143" type="qcurve" smooth="yes"/>
      <point x="940" y="1143"/>
    </contour>
  </outline>
</glyph>
<glyph name="qwe-ethi" format="2">
  <advance width="2331"/>
  <unicode hex="124D"/>
  <outline>
    <contour>
      <point x="971" y="1040" type="qcurve"/>
      <point x="1112" y="1065"/>
      <point x="1208" y="1065" type="qcurve" smooth="yes"/>
      <point x="1354" y="1065"/>
      <point x="1405" y="1004" type="qcurve" smooth="yes"/>
      <point x="1442" y="961"/>
      <point x="1440" y="858" type="qcurve"/>
      <point x="1440" y="848"/>
      <point x="1438" y="827" type="qcurve"/>
      <point x="1518" y="829" type="line"/>
      <point x="1589" y="887"/>
      <point x="1589" y="989" type="qcurve" smooth="yes"/>
      <point x="1589" y="1049"/>
      <point x="1567" y="1106" type="qcurve"/>
      <point x="1874" y="1106" type="line" smooth="yes"/>
      <point x="1915" y="1106"/>
      <point x="1915" y="1038" type="qcurve" smooth="yes"/>
      <point x="1915" y="967"/>
      <point x="1874" y="848" type="qcurve"/>
      <point x="2222" y="848" type="line"/>
      <point x="2161" y="786"/>
      <point x="2161" y="723" type="qcurve" smooth="yes"/>
      <point x="2161" y="676"/>
      <point x="2198" y="618" type="qcurve" smooth="yes"/>
      <point x="2222" y="582"/>
      <point x="2249" y="545" type="qcurve"/>
      <point x="2179" y="537"/>
      <point x="2124" y="537" type="qcurve" smooth="yes"/>
      <point x="1847" y="537"/>
      <point x="1847" y="721" type="qcurve" smooth="yes"/>
      <point x="1847" y="754"/>
      <point x="1853" y="795" type="qcurve"/>
      <point x="1430" y="795" type="line"/>
      <point x="1370" y="592"/>
      <point x="901" y="551" type="qcurve"/>
      <point x="893" y="430"/>
      <point x="877" y="260" type="qcurve" smooth="yes"/>
      <point x="864" y="141"/>
      <point x="864" y="104" type="qcurve" smooth="yes"/>
      <point x="864" y="57"/>
      <point x="891" y="16"/>
      <point x="928" y="-4" type="qcurve"/>
      <point x="713" y="-4" type="line" smooth="yes"/>
      <point x="637" y="-4"/>
      <point x="625" y="0" type="qcurve"/>
      <point x="584" y="20"/>
      <point x="588" y="115" type="qcurve"/>
      <point x="598" y="168"/>
      <point x="631" y="496" type="qcurve"/>
      <point x="483" y="475"/>
      <point x="391" y="475" type="qcurve" smooth="yes"/>
      <point x="127" y="475"/>
      <point x="145" y="659" type="qcurve" smooth="yes"/>
      <point x="166" y="868"/>
      <point x="410" y="946" type="qcurve" smooth="yes"/>
      <point x="492" y="971"/>
      <point x="690" y="987" type="qcurve"/>
      <point x="696" y="1057"/>
      <point x="715" y="1178" type="qcurve"/>
      <point x="731" y="1270"/>
      <point x="731" y="1307" type="qcurve" smooth="yes"/>
      <point x="731" y="1372"/>
      <point x="694" y="1405" type="qcurve"/>
      <point x="823" y="1454"/>
      <point x="895" y="1454" type="qcurve" smooth="yes"/>
      <point x="1001" y="1454"/>
      <point x="1001" y="1323" type="qcurve" smooth="yes"/>
      <point x="1001" y="1319"/>
    </contour>
    <contour>
      <point x="913" y="586" type="line"/>
      <point x="1030" y="582"/>
      <point x="1141" y="678"/>
      <point x="1153" y="807" type="qcurve" smooth="yes"/>
      <point x="1155" y="836"/>
      <point x="1155" y="860" type="qcurve" smooth="yes"/>
      <point x="1155" y="993"/>
      <point x="1049" y="993" type="qcurve" smooth="yes"/>
      <point x="1020" y="993"/>
      <point x="958" y="985" type="qcurve"/>
    </contour>
    <contour>
      <point x="434" y="623" type="qcurve"/>
      <point x="444" y="567"/>
      <point x="516" y="551" type="qcurve"/>
      <point x="539" y="547"/>
      <point x="639" y="541" type="qcurve"/>
      <point x="680" y="954" type="line"/>
      <point x="606" y="954"/>
      <point x="545" y="922" type="qcurve"/>
      <point x="424" y="862"/>
      <point x="424" y="711" type="qcurve" smooth="yes"/>
      <point x="424" y="670"/>
    </contour>
  </outline>
</glyph>
<glyph name="qhaa-ethi" format="2">
  <advance width="1692"/>
  <unicode hex="1253"/>
  <outline>
    <contour>
      <point x="938" y="1460" type="qcurve" smooth="yes"/>
      <point x="961" y="1466"/>
      <point x="981" y="1466" type="qcurve" smooth="yes"/>
      <point x="1075" y="1466"/>
      <point x="1102" y="1333" type="qcurve" smooth="yes"/>
      <point x="1114" y="1268"/>
      <point x="1114" y="1063" type="qcurve"/>
      <point x="1229" y="1122"/>
      <point x="1358" y="1122" type="qcurve" smooth="yes"/>
      <point x="1563" y="1122"/>
      <point x="1602" y="965" type="qcurve" smooth="yes"/>
      <point x="1610" y="930"/>
      <point x="1610" y="897" type="qcurve" smooth="yes"/>
      <point x="1610" y="645"/>
      <point x="1114" y="598" type="qcurve"/>
      <point x="1128" y="424"/>
      <point x="1008" y="324" type="qcurve" smooth="yes"/>
      <point x="934" y="260"/>
      <point x="782" y="215" type="qcurve"/>
      <point x="633" y="178"/>
      <point x="369" y="100" type="qcurve"/>
      <point x="369" y="-59"/>
      <point x="309" y="-113" type="qcurve"/>
      <point x="244" y="-166"/>
      <point x="45" y="-166" type="qcurve"/>
      <point x="49" y="-141"/>
      <point x="70" y="-78" type="qcurve"/>
      <point x="84" y="-27"/>
      <point x="84" y="10" type="qcurve" smooth="yes"/>
      <point x="84" y="57"/>
      <point x="63" y="111" type="qcurve"/>
      <point x="223" y="109"/>
      <point x="541" y="190" type="qcurve" smooth="yes"/>
      <point x="848" y="270"/>
      <point x="825" y="547" type="qcurve"/>
      <point x="573" y="528"/>
      <point x="541" y="528" type="qcurve" smooth="yes"/>
      <point x="416" y="528"/>
      <point x="356" y="571" type="qcurve"/>
      <point x="289" y="623"/>
      <point x="289" y="748" type="qcurve" smooth="yes"/>
      <point x="289" y="991"/>
      <point x="823" y="1014" type="qcurve"/>
      <point x="827" y="1186"/>
      <point x="817" y="1264" type="qcurve"/>
      <point x="801" y="1356"/>
      <point x="754" y="1407" type="qcurve"/>
      <point x="807" y="1425"/>
    </contour>
    <contour>
      <point x="1116" y="657" type="line"/>
      <point x="1219" y="653"/>
      <point x="1282" y="721" type="qcurve" smooth="yes"/>
      <point x="1337" y="780"/>
      <point x="1337" y="866" type="qcurve" smooth="yes"/>
      <point x="1337" y="938"/>
      <point x="1251" y="1042"/>
      <point x="1171" y="1042" type="qcurve" smooth="yes"/>
      <point x="1145" y="1042"/>
      <point x="1116" y="1034" type="qcurve"/>
    </contour>
    <contour>
      <point x="582" y="721" type="qcurve" smooth="yes"/>
      <point x="580" y="606"/>
      <point x="719" y="606" type="qcurve" smooth="yes"/>
      <point x="743" y="606"/>
      <point x="825" y="612" type="qcurve"/>
      <point x="825" y="956" type="line"/>
      <point x="586" y="965"/>
    </contour>
  </outline>
</glyph>
<glyph name="qhe-ethi" format="2">
  <advance width="1745"/>
  <unicode hex="1255"/>
  <unicode hex="F072"/>
  <outline>
    <contour>
      <point x="879" y="1382" type="qcurve"/>
      <point x="958" y="1397"/>
      <point x="1077" y="1409" type="qcurve" smooth="yes"/>
      <point x="1098" y="1411"/>
      <point x="1112" y="1411" type="qcurve" smooth="yes"/>
      <point x="1200" y="1411"/>
      <point x="1200" y="1288" type="qcurve" smooth="yes"/>
      <point x="1200" y="1229"/>
      <point x="1176" y="1014" type="qcurve"/>
      <point x="1264" y="1057"/>
      <point x="1401" y="1057" type="qcurve" smooth="yes"/>
      <point x="1647" y="1057"/>
      <point x="1642" y="877" type="qcurve" smooth="yes"/>
      <point x="1638" y="733"/>
      <point x="1522" y="655" type="qcurve" smooth="yes"/>
      <point x="1438" y="600"/>
      <point x="1290" y="578" type="qcurve" smooth="yes"/>
      <point x="1208" y="565"/>
      <point x="1126" y="553" type="qcurve"/>
      <point x="1116" y="481"/>
      <point x="1106" y="408" type="qcurve" smooth="yes"/>
      <point x="1087" y="272"/>
      <point x="1087" y="190" type="qcurve" smooth="yes"/>
      <point x="1087" y="43"/>
      <point x="1147" y="53" type="qcurve"/>
      <point x="1012" y="-8"/>
      <point x="889" y="-8" type="qcurve" smooth="yes"/>
      <point x="844" y="-8"/>
      <point x="829" y="8" type="qcurve"/>
      <point x="803" y="43"/>
      <point x="803" y="121" type="qcurve" smooth="yes"/>
      <point x="803" y="190"/>
      <point x="842" y="512" type="qcurve"/>
      <point x="705" y="481"/>
      <point x="608" y="481" type="qcurve" smooth="yes"/>
      <point x="387" y="481"/>
      <point x="369" y="641" type="qcurve" smooth="yes"/>
      <point x="336" y="940"/>
      <point x="899" y="979" type="qcurve"/>
      <point x="909" y="1114"/>
      <point x="926" y="1317" type="qcurve"/>
      <point x="918" y="1329"/>
      <point x="874" y="1350" type="qcurve"/>
      <point x="866" y="1358"/>
      <point x="856" y="1358" type="qcurve" smooth="yes"/>
      <point x="850" y="1358"/>
      <point x="811" y="1343" type="qcurve" smooth="yes"/>
      <point x="766" y="1325"/>
      <point x="713" y="1317" type="qcurve" smooth="yes"/>
      <point x="633" y="1305"/>
      <point x="524" y="1309" type="qcurve"/>
      <point x="582" y="1370"/>
      <point x="582" y="1442" type="qcurve" smooth="yes"/>
      <point x="582" y="1520"/>
      <point x="526" y="1569" type="qcurve"/>
      <point x="526" y="1571"/>
      <point x="473" y="1573" type="qcurve"/>
      <point x="418" y="1577"/>
      <point x="408" y="1573" type="qcurve"/>
      <point x="377" y="1499"/>
      <point x="270" y="1452" type="qcurve" smooth="yes"/>
      <point x="180" y="1411"/>
      <point x="96" y="1411" type="qcurve" smooth="yes"/>
      <point x="61" y="1411"/>
      <point x="45" y="1419" type="qcurve"/>
      <point x="86" y="1487"/>
      <point x="86" y="1563" type="qcurve" smooth="yes"/>
      <point x="86" y="1645"/>
      <point x="45" y="1714" type="qcurve"/>
      <point x="131" y="1741"/>
      <point x="197" y="1741" type="qcurve" smooth="yes"/>
      <point x="281" y="1741"/>
      <point x="336" y="1694" type="qcurve"/>
      <point x="344" y="1686"/>
      <point x="410" y="1604" type="qcurve"/>
      <point x="997" y="1638" type="line"/>
      <point x="999" y="1692"/>
      <point x="1053" y="1753" type="qcurve" smooth="yes"/>
      <point x="1126" y="1837"/>
      <point x="1249" y="1837" type="qcurve" smooth="yes"/>
      <point x="1278" y="1837"/>
      <point x="1309" y="1831" type="qcurve"/>
      <point x="1272" y="1761"/>
      <point x="1272" y="1681" type="qcurve" smooth="yes"/>
      <point x="1272" y="1585"/>
      <point x="1319" y="1497" type="qcurve"/>
      <point x="1278" y="1485"/>
      <point x="1235" y="1485" type="qcurve" smooth="yes"/>
      <point x="1149" y="1485"/>
      <point x="1075" y="1528" type="qcurve" smooth="yes"/>
      <point x="1008" y="1565"/>
      <point x="999" y="1606" type="qcurve"/>
      <point x="821" y="1597" type="line"/>
      <point x="891" y="1565"/>
      <point x="891" y="1470" type="qcurve" smooth="yes"/>
      <point x="891" y="1432"/>
    </contour>
    <contour>
      <point x="1133" y="596" type="line"/>
      <point x="1257" y="616"/>
      <point x="1346" y="698"/>
      <point x="1358" y="813" type="qcurve" smooth="yes"/>
      <point x="1366" y="897"/>
      <point x="1300" y="995"/>
      <point x="1233" y="995" type="qcurve" smooth="yes"/>
      <point x="1204" y="995"/>
      <point x="1174" y="987" type="qcurve"/>
    </contour>
    <contour>
      <point x="651" y="680" type="qcurve" smooth="yes"/>
      <point x="645" y="586"/>
      <point x="719" y="565" type="qcurve"/>
      <point x="782" y="559"/>
      <point x="848" y="553" type="qcurve"/>
      <point x="891" y="938" type="line"/>
      <point x="764" y="936"/>
      <point x="709" y="868" type="qcurve" smooth="yes"/>
      <point x="662" y="809"/>
    </contour>
  </outline>
</glyph>
<glyph name="qho-ethi" format="2">
  <advance width="1466"/>
  <unicode hex="1256"/>
  <outline>
    <contour>
      <point x="934" y="1479" type="qcurve" smooth="yes"/>
      <point x="1075" y="1477"/>
      <point x="1233" y="1372"/>
      <point x="1221" y="1274" type="qcurve" smooth="yes"/>
      <point x="1198" y="1087"/>
      <point x="901" y="956" type="qcurve"/>
      <point x="911" y="905" type="line"/>
      <point x="1038" y="920"/>
      <point x="1118" y="920" type="qcurve" smooth="yes"/>
      <point x="1384" y="920"/>
      <point x="1384" y="750" type="qcurve" smooth="yes"/>
      <point x="1384" y="717"/>
      <point x="1374" y="676" type="qcurve" smooth="yes"/>
      <point x="1346" y="549"/>
      <point x="1057" y="397"/>
      <point x="831" y="397" type="qcurve"/>
      <point x="795" y="201"/>
      <point x="795" y="147" type="qcurve" smooth="yes"/>
      <point x="795" y="76"/>
      <point x="854" y="53" type="qcurve"/>
      <point x="709" y="4"/>
      <point x="631" y="4" type="qcurve" smooth="yes"/>
      <point x="539" y="4"/>
      <point x="508" y="66" type="qcurve"/>
      <point x="502" y="74"/>
      <point x="526" y="315"/>
      <point x="541" y="387" type="qcurve"/>
      <point x="506" y="385"/>
      <point x="399" y="369" type="qcurve"/>
      <point x="303" y="352"/>
      <point x="252" y="352" type="qcurve" smooth="yes"/>
      <point x="84" y="352"/>
      <point x="57" y="496" type="qcurve" smooth="yes"/>
      <point x="51" y="532"/>
      <point x="51" y="563" type="qcurve" smooth="yes"/>
      <point x="51" y="727"/>
      <point x="272" y="817" type="qcurve" smooth="yes"/>
      <point x="385" y="862"/>
      <point x="596" y="893" type="qcurve"/>
      <point x="602" y="907"/>
      <point x="602" y="922" type="qcurve" smooth="yes"/>
      <point x="602" y="948"/>
      <point x="498" y="1114"/>
      <point x="502" y="1196" type="qcurve" smooth="yes"/>
      <point x="508" y="1317"/>
      <point x="766" y="1481"/>
    </contour>
    <contour>
      <point x="868" y="1440" type="qcurve" smooth="yes"/>
      <point x="815" y="1444"/>
      <point x="780" y="1360" type="qcurve"/>
      <point x="750" y="1292"/>
      <point x="754" y="1251" type="qcurve" smooth="yes"/>
      <point x="768" y="1130"/>
      <point x="860" y="1030" type="qcurve"/>
      <point x="903" y="1057"/>
      <point x="961" y="1210"/>
      <point x="961" y="1288" type="qcurve" smooth="yes"/>
      <point x="961" y="1434"/>
    </contour>
    <contour>
      <point x="344" y="588" type="qcurve" smooth="yes"/>
      <point x="348" y="473"/>
      <point x="412" y="444" type="qcurve"/>
      <point x="440" y="430"/>
      <point x="549" y="430" type="qcurve"/>
      <point x="621" y="848" type="line"/>
      <point x="526" y="842"/>
      <point x="440" y="770" type="qcurve" smooth="yes"/>
      <point x="340" y="690"/>
    </contour>
    <contour>
      <point x="844" y="453" type="line"/>
      <point x="975" y="465"/>
      <point x="1090" y="567"/>
      <point x="1102" y="682" type="qcurve" smooth="yes"/>
      <point x="1122" y="848"/>
      <point x="967" y="848" type="qcurve" smooth="yes"/>
      <point x="940" y="848"/>
      <point x="909" y="842" type="qcurve"/>
    </contour>
  </outline>
</glyph>
<glyph name="bu-ethi" format="2">
  <advance width="1184"/>
  <unicode hex="1261"/>
  <outline>
    <contour>
      <point x="489" y="1366" type="qcurve" smooth="yes"/>
      <point x="598" y="1403"/>
      <point x="696" y="1403" type="qcurve" smooth="yes"/>
      <point x="854" y="1403"/>
      <point x="944" y="1311" type="qcurve" smooth="yes"/>
      <point x="1044" y="1210"/>
      <point x="1036" y="1020" type="qcurve" smooth="yes"/>
      <point x="1012" y="391" type="line"/>
      <point x="1010" y="299"/>
      <point x="1010" y="252" type="qcurve" smooth="yes"/>
      <point x="1010" y="135"/>
      <point x="1047" y="41"/>
      <point x="1102" y="23" type="qcurve"/>
      <point x="1098" y="23"/>
      <point x="920" y="-16" type="qcurve" smooth="yes"/>
      <point x="854" y="-31"/>
      <point x="825" y="-31" type="qcurve" smooth="yes"/>
      <point x="768" y="-31"/>
      <point x="723" y="84"/>
      <point x="723" y="250" type="qcurve" smooth="yes"/>
      <point x="723" y="311"/>
      <point x="725" y="397" type="qcurve" smooth="yes"/>
      <point x="750" y="1049" type="line" smooth="yes"/>
      <point x="756" y="1198"/>
      <point x="694" y="1272" type="qcurve" smooth="yes"/>
      <point x="643" y="1331"/>
      <point x="557" y="1325" type="qcurve" smooth="yes"/>
      <point x="446" y="1317"/>
      <point x="393" y="1102" type="qcurve" smooth="yes"/>
      <point x="348" y="924"/>
      <point x="348" y="639" type="qcurve" smooth="yes"/>
      <point x="348" y="295"/>
      <point x="397" y="100" type="qcurve"/>
      <point x="414" y="41"/>
      <point x="465" y="35" type="qcurve"/>
      <point x="340" y="-6" type="line" smooth="yes"/>
      <point x="291" y="-23"/>
      <point x="254" y="-23" type="qcurve" smooth="yes"/>
      <point x="166" y="-23"/>
      <point x="82" y="172"/>
      <point x="82" y="395" type="qcurve" smooth="yes"/>
      <point x="82" y="653"/>
      <point x="90" y="739" type="qcurve" smooth="yes"/>
      <point x="117" y="1016"/>
      <point x="174" y="1126" type="qcurve" smooth="yes"/>
      <point x="258" y="1286"/>
    </contour>
    <contour>
      <point x="793" y="580" type="line"/>
      <point x="1151" y="580" type="line"/>
      <point x="1155" y="625"/>
      <point x="1241" y="655" type="qcurve"/>
      <point x="1319" y="686"/>
      <point x="1407" y="686" type="qcurve" smooth="yes"/>
      <point x="1467" y="686"/>
      <point x="1497" y="670" type="qcurve"/>
      <point x="1467" y="598"/>
      <point x="1467" y="532" type="qcurve" smooth="yes"/>
      <point x="1467" y="457"/>
      <point x="1514" y="369" type="qcurve"/>
      <point x="1450" y="358"/>
      <point x="1393" y="358" type="qcurve" smooth="yes"/>
      <point x="1278" y="358"/>
      <point x="1151" y="449"/>
      <point x="1151" y="522" type="qcurve" smooth="yes"/>
      <point x="1151" y="537"/>
      <point x="1153" y="549" type="qcurve"/>
      <point x="781" y="549" type="line"/>
    </contour>
  </outline>
</glyph>
<glyph name="baa-ethi" format="2">
  <advance width="1180"/>
  <unicode hex="1263"/>
  <outline>
    <contour>
      <point x="532" y="1376" type="qcurve" smooth="yes"/>
      <point x="649" y="1399"/>
      <point x="735" y="1399" type="qcurve" smooth="yes"/>
      <point x="897" y="1399"/>
      <point x="1040" y="1237"/>
      <point x="1034" y="1059" type="qcurve" smooth="yes"/>
      <point x="1001" y="207" type="line"/>
      <point x="1012" y="90"/>
      <point x="1014" y="82" type="qcurve" smooth="yes"/>
      <point x="1020" y="49"/>
      <point x="1061" y="23" type="qcurve"/>
      <point x="866" y="4" type="line" smooth="yes"/>
      <point x="797" y="-2"/>
      <point x="768" y="18" type="qcurve"/>
      <point x="731" y="47"/>
      <point x="719" y="141" type="qcurve"/>
      <point x="752" y="1075" type="line"/>
      <point x="735" y="1354"/>
      <point x="539" y="1339" type="qcurve" smooth="yes"/>
      <point x="453" y="1333"/>
      <point x="342" y="1114"/>
      <point x="344" y="948" type="qcurve"/>
      <point x="342" y="815"/>
      <point x="344" y="606" type="qcurve"/>
      <point x="348" y="463"/>
      <point x="430" y="408" type="qcurve"/>
      <point x="229" y="385" type="line"/>
      <point x="203" y="383"/>
      <point x="184" y="383" type="qcurve" smooth="yes"/>
      <point x="127" y="383"/>
      <point x="82" y="446"/>
      <point x="82" y="535" type="qcurve"/>
      <point x="76" y="600"/>
      <point x="84" y="780" type="qcurve"/>
      <point x="86" y="993"/>
      <point x="174" y="1139" type="qcurve"/>
      <point x="287" y="1331"/>
    </contour>
  </outline>
</glyph>
<glyph name="bee-ethi" format="2">
  <advance width="1184"/>
  <unicode hex="1264"/>
  <outline>
    <contour>
      <point x="489" y="1366" type="qcurve" smooth="yes"/>
      <point x="598" y="1403"/>
      <point x="696" y="1403" type="qcurve" smooth="yes"/>
      <point x="854" y="1403"/>
      <point x="944" y="1311" type="qcurve" smooth="yes"/>
      <point x="1044" y="1210"/>
      <point x="1036" y="1020" type="qcurve" smooth="yes"/>
      <point x="1012" y="391" type="line"/>
      <point x="1010" y="299"/>
      <point x="1010" y="252" type="qcurve" smooth="yes"/>
      <point x="1010" y="135"/>
      <point x="1047" y="41"/>
      <point x="1102" y="23" type="qcurve"/>
      <point x="1098" y="23"/>
      <point x="920" y="-16" type="qcurve" smooth="yes"/>
      <point x="854" y="-31"/>
      <point x="825" y="-31" type="qcurve" smooth="yes"/>
      <point x="768" y="-31"/>
      <point x="723" y="84"/>
      <point x="723" y="250" type="qcurve" smooth="yes"/>
      <point x="723" y="311"/>
      <point x="725" y="397" type="qcurve" smooth="yes"/>
      <point x="750" y="1049" type="line" smooth="yes"/>
      <point x="756" y="1198"/>
      <point x="694" y="1272" type="qcurve" smooth="yes"/>
      <point x="643" y="1331"/>
      <point x="557" y="1325" type="qcurve" smooth="yes"/>
      <point x="446" y="1317"/>
      <point x="393" y="1102" type="qcurve" smooth="yes"/>
      <point x="348" y="924"/>
      <point x="348" y="639" type="qcurve" smooth="yes"/>
      <point x="348" y="295"/>
      <point x="397" y="100" type="qcurve"/>
      <point x="414" y="41"/>
      <point x="465" y="35" type="qcurve"/>
      <point x="340" y="-6" type="line" smooth="yes"/>
      <point x="291" y="-23"/>
      <point x="254" y="-23" type="qcurve" smooth="yes"/>
      <point x="166" y="-23"/>
      <point x="82" y="172"/>
      <point x="82" y="395" type="qcurve" smooth="yes"/>
      <point x="82" y="653"/>
      <point x="90" y="739" type="qcurve" smooth="yes"/>
      <point x="117" y="1016"/>
      <point x="174" y="1126" type="qcurve" smooth="yes"/>
      <point x="258" y="1286"/>
    </contour>
    <contour>
      <point x="865" y="371" type="line"/>
      <point x="1186" y="412" type="line" smooth="yes"/>
      <point x="1217" y="416"/>
      <point x="1243" y="416" type="qcurve" smooth="yes"/>
      <point x="1362" y="416"/>
      <point x="1422" y="346" type="qcurve" smooth="yes"/>
      <point x="1471" y="289"/>
      <point x="1471" y="199" type="qcurve"/>
      <point x="1473" y="0"/>
      <point x="1266" y="0" type="qcurve" smooth="yes"/>
      <point x="799" y="0" type="line"/>
      <point x="797" y="35" type="line"/>
      <point x="948" y="35" type="line" smooth="yes"/>
      <point x="1219" y="35"/>
      <point x="1219" y="201" type="qcurve" smooth="yes"/>
      <point x="1219" y="279"/>
      <point x="1133" y="322" type="qcurve" smooth="yes"/>
      <point x="1059" y="359"/>
      <point x="983" y="348" type="qcurve" smooth="yes"/>
      <point x="869" y="332" type="line"/>
    </contour>
  </outline>
</glyph>
<glyph name="be-ethi" format="2">
  <advance width="1679"/>
  <unicode hex="1265"/>
  <outline>
    <contour>
      <point x="621" y="899" type="qcurve"/>
      <point x="461" y="850" type="line"/>
      <point x="465" y="819"/>
      <point x="465" y="793" type="qcurve" smooth="yes"/>
      <point x="465" y="639"/>
      <point x="317" y="569" type="qcurve" smooth="yes"/>
      <point x="209" y="518"/>
      <point x="82" y="528" type="qcurve"/>
      <point x="115" y="569"/>
      <point x="176" y="657"/>
      <point x="176" y="698" type="qcurve" smooth="yes"/>
      <point x="176" y="758"/>
      <point x="121" y="834" type="qcurve"/>
      <point x="623" y="942" type="line"/>
      <point x="662" y="1110"/>
      <point x="700" y="1165" type="qcurve" smooth="yes"/>
      <point x="795" y="1298"/>
      <point x="1042" y="1356" type="qcurve" smooth="yes"/>
      <point x="1153" y="1380"/>
      <point x="1241" y="1380" type="qcurve" smooth="yes"/>
      <point x="1571" y="1380"/>
      <point x="1550" y="1038" type="qcurve" smooth="yes"/>
      <point x="1520" y="504" type="line" smooth="yes"/>
      <point x="1511" y="373"/>
      <point x="1511" y="287" type="qcurve" smooth="yes"/>
      <point x="1511" y="43"/>
      <point x="1597" y="10" type="qcurve"/>
      <point x="1593" y="10"/>
      <point x="1401" y="4" type="qcurve" smooth="yes"/>
      <point x="1296" y="0"/>
      <point x="1229" y="74"/>
      <point x="1229" y="201" type="qcurve" smooth="yes"/>
      <point x="1229" y="262"/>
      <point x="1237" y="393" type="qcurve" smooth="yes"/>
      <point x="1274" y="1032" type="line" smooth="yes"/>
      <point x="1284" y="1202"/>
      <point x="1225" y="1272" type="qcurve" smooth="yes"/>
      <point x="1178" y="1327"/>
      <point x="1075" y="1327" type="qcurve" smooth="yes"/>
      <point x="887" y="1327"/>
      <point x="881" y="809" type="qcurve"/>
      <point x="881" y="733"/>
      <point x="877" y="532" type="qcurve" smooth="yes"/>
      <point x="874" y="391"/>
      <point x="874" y="326" type="qcurve" smooth="yes"/>
      <point x="874" y="158"/>
      <point x="903" y="23"/>
      <point x="948" y="0" type="qcurve"/>
      <point x="772" y="-2" type="line" smooth="yes"/>
      <point x="670" y="-4"/>
      <point x="602" y="41"/>
      <point x="596" y="129" type="qcurve" smooth="yes"/>
      <point x="594" y="158"/>
      <point x="594" y="399" type="qcurve" smooth="yes"/>
      <point x="594" y="455"/>
      <point x="606" y="647" type="qcurve" smooth="yes"/>
      <point x="621" y="850"/>
    </contour>
  </outline>
</glyph>
